<mxfile host="65bd71144e">
    <diagram id="CmksgfXjVpSQg6QOnC3d" name="Page-1">
        <mxGraphModel dx="960" dy="812" grid="0" gridSize="10" guides="1" tooltips="1" connect="1" arrows="1" fold="1" page="1" pageScale="1" pageWidth="4681" pageHeight="3300" math="0" shadow="0">
            <root>
                <mxCell id="0"/>
                <mxCell id="1" parent="0"/>
                <mxCell id="6" value="" style="shape=image;verticalLabelPosition=bottom;labelBackgroundColor=default;verticalAlign=top;aspect=fixed;imageAspect=0;image=data:image/png,iVBORw0KGgoAAAANSUhEUgAAAOIAAACFCAIAAADJg7NiAAAPfUlEQVR4Ae1d67msKgydtqYhy5lu7hRjM/t+JIQkgBoUxTlm/ziDEPJYWcY35/V36G/+TO/PHFR8p9crNd/v6Qu9f/Pn/XpN33Uj3+n9em8JratoHA3eVt1aHGg04OJdEXghkV6Nf4lTiZ2pAYQtx1e8BipHiq+IiaHA60Bs3BVgAPi1HIVSDwYL2fdnrg8EyRSQ8MKblyEQaDq963+YyOoYZy1kNnCAaEq/GAGQh4XrYYHQ+/Pd+psFKyOhmKrzvD6d58LUwMlvqPShQX/R93meySUa4dn1EA73YjxqZyKd4EuxU8WO6gyaufw7f6f3m3S+JzwgLoubRlZCgPkBVTb6ek8fWWbWTbyWhymdyxJ/kMXvN/xgir/AFkzu35/tkI/hEWYrvznd48S8e8Xfvz8iIPBORYjakjIgR9pa1Xl4MCFQJR3RVNeLAzRN5l6vRJuq5YbAks66osDQlNlkNJ0mbho6QlPCL9lXjeBvXSKLJAhlXZtuJ4HZvkfCnPn7mZh88+dNpQR2dR6BXYxrdbLXuRHc4fzVYUAQpWtUAPbhFhmVII8MygyYA7WEgAVLwYn1wno2dYSmHEnal/QJIwDMR3M8ofx8NbNAaC9G6MLWAZ9OB8RZA+Ze7VcLGwuuYXKPXfixE2+sMIk6DC1enObpzKkm5bfaaFWYgl235RAsLNhCEBO4iTEIP3ioaAmaziKLQQ7UGLRIjmJteONZR4YHyBVJt1opPBcdjNUC1WK3MA5TxLbQxs0VoWRySwdrq7SwmofdFkGsoh3O6MKtEzE/Ql4VF2ILTfRdKVyQNHSbQqjqWQm5kE80Db7rsC0Eiucc0zeemwbAoc5M3wgl14HSQvAGMGuCLCkG8uVTQZ8OpAiazK6TuuS2VNSjmgp9LTmjmzPbUQoDshkR3D1f6uJ2Wwhw/ZpTjpVlrSM0jZkq7puCCXB6+vBtU+yQNSHIAatMdOG7QnRND6Vb0xShor5vOPXMLSIApr3DJJQBunOzJccomxWVNrvxzFARdf5M06Ru8jXqDLne8AqPDJTvpeSUdrdoShrlLweXLmDC6Y26v0AZDpCCPGBbcoYoR6ePS79wXpvdNylVQg+7t1Kq7btH6XOJ4vEe8Hwjx9EKiu6/k6uuulkNInIgWksIGnZ1TbWK4SZN32EX03+Cj/G+IlTwCW5MxZ5w8E83fejG+X4Mcv5BTNApddK+wRFX54XhUpQnpZZJKEkfalhyjAZipmXcLZbT9JkOZbhbY/9ercEDewh/f3O4Ww+lz2Zxi6aiNJVgoGOy0FJbTAOhKThl86g0s8Qq1JwO6gC0MIyKQKjobTjZOOB1NZR6J0JZ+llIo+BeLJGMbCZpq4NXWF/rMIcQlSTba0rj2CGaog6IkJMZNhmHtJdlLMWbILpK17bicb5QGkxDnGQYNsJRJPzFU4cPnG3BXktiDAmW/fgkSh4I0uMp7OQZZ7asOW7JbelvbTakD8qLylo5eavHGkLS0zDhME3BFgcImxkn0B3diX1UfJd/cVZNq6Lpirp4S3Kh/sBEdh8hrHYmdE9pYAC5I4WpGOemXDExdiAndSoO3ziIuo0hsGvojCmWozQND8ahXMEjWjCc2Y3IZiWWnbW0gt5MbVZN8TL1Ay8GYJ2UesGveBGLo/TvdjWNklJdaI+5IdWQ2dxh2KZkiAt6cUVVQlxVstC5RtMwpi+Y6CmUzeZRmqLL4oFZZhZ9n741Ai+EW3ZHlmUD8ye8jUcPO7PBbDM9uqA8Ldfv+kgWFp/bZpUps7u6qV76iWbf9Fd9HQRZunBgWLWVBiUA8uF60xWN0CbeW1oOQRp90eEtiOewJsVZoxdNIUp65Ed1q7ixavdLulmhOJWACHR87CUnWdqIXgkV9JfdSmWHaqqSl+8dNfNxQm1I+baxAUUFr7OBKvFWYnielN3y21BEV/e573Fba8usNr4hlS434A1O+TYd3DIIx/LqHz5Z5TJKTAlH3y89i9K0JJTFEaeKAx7AJ7Qcb1zIoqXvTRNjw775rtw+m9L+LvZdeKkMc5TuFLAvFpqytLfOR+AFjw4Wdoe17uk/ulEGl9faUzw46ZMRkABO6b1Mz4SteGwj8/lxHVgkeRvuw4VXjeThhCYje/FQCrUi7iz4WnX9PVKnaSUpQ7vSQb+zF+lksLNeVHdM+5weni05B4eYOoWXpnj/mQicRdMzfXbdj0PAafq4lP9iwE7TX8za43x2mj4u5b8YsNP0F7P2OJ+dpo9L+S8G7DT9xaw9zmen6eNS/osBO01/MWuP89lp+riU/2LATtNfzNrjfHaaPi7lvxiw0/QXs/Y4n52mj0v5LwbsNP3FrD3O5100xTeLq283Z280i5eTG758OTUL4c1s8YVF5d1tMN9XDCNawS0K3Ni3U5Oypbydpvz2e+3DGaIpfXmGv5GtVWJvedh1PDkPX6TQTlSsZdRXDCNIOpdQSAI39K1rEnYoa6Epf/gE+a3CjTTVX4D0+hB8R3h6SiSCdJy4IT3uKxa+C6OVaJZxq2F0G980iiO27DSlOpn2dZnt5HqNppW0J3lzo8OXnOibcpuYINdk6SvGn0rTl7/KAYq/r1GjNqNv5OPAXztNw/4el/XH5C7AHQ7zsjbV6kR7wAg8Lx7ZriH6Ib2GOMLHqKHKkc9lcEfEcNWLTdz6GjVqM/q2A+ruUxpoyrZLGHisaKGw+Pi4kDB1HK+myHRio1g/TdeevmIqtmXc+ho1ajP6psQGbZxO004sPQ5PzhHIJZBWjagNwWVaOiFWY6OYdjuflEbzgTv5lpwc2TibppiAdEQdGKqmAhChRrm+YjperVuM6YF7+SbcHNc8maaAOJ/3jYtTF0OgRTpLVSSRG8fFdMBStxqRA8eNGrUpDypn7np87Na5NEXA7lBL6fAdfNFE0Ism01YvMZVdyR81EC+5exnF4rCpTbmw7JsSG7RxKk1vxdJUL2A5InElxRyBHFC++oiptJLqcj0VGulj1KjN6JsSG7RxJk0RrcPX+N2QiWcg4uYTqE61JxrqKya9J/qUNBV3MOUOlO1BVOrl/bMjIRh9k2KD2mfSFPOdTgGPRXj8hhSdnqr/E51Wg5XkoN1L9B0QE2Gv0DTW+nv6JkIY1DTTdMiasQxKKnGCOzxqbkUGhnIklu/TjyNoHWp4snlYzI7bnX0zA3ySYANN+bUiTKD4t1YxqSbVXlDZEUyPagpm+776tKlNkE8AFps5bpvaELheYk2+7chZvylmmvYz6ZocgVYEnKatiLn8AAScpgNAd5OtCDhNWxFz+QEIOE0HgO4mWxFwmrYi5vIDEHCaDgDdTbYi4DRtRczlByDgNB0AuptsRcBp2oqYyw9AwGk6AHQ32YqA07QVMZcfgIDTdADobrIVAadpK2IuPwABp+kA0N1kKwJO01bEXH4AAk7TAaC7yVYEnKatiLn8AAR20RQ/Tsi/kGDv5+wriOnzrXxMyfKXtjLfrlmG12gUgdiCN8K1KXaG0UtTxcbaaZo+oKnTNGCTPvqRyzJ3+iaKXd/TSs5f9sme/QNAjCd5WIeXgt4USwLrkTYZJePX/7bQ1LScLHzJq0pU7ePh6wMNFmPqJAEom/KD1SFixtV6jWLGEIzaxmRLWrXTNH2CTN8Ey2xLlWUbQbPLlxrCQgqhSBefKtdEl/oq6wYQS+UyV0PExHoS8cvsOly2LBhDsBpdAvS6fjtNQy3aXE627ngHmqb0yLJXt7bUW3oBPecuw2s0al8R15KF7kaXIL2sv4Gm7FMJA48VrfkLCyMdXaPneDVFpguaQ8f0jTWFqtcQMYWaEd5lMWMIe4yqOddtnEbT8F/H8BXUoYN1HzTyrBJJ6ZQ10nSImI4wd0GPpq1FsXxgIdKkCBr5JD06eutEmqbrfTynHH1LSucBUldj5hAxzQLtgh4TW4tiemAxUqEqXV7SIUWPjd86jaYU2hwWUQLGisMtDV75K5MH7ZQSORLvBuDYZWIaB+WPHpJbi2JyYCUEqSs7pOihG2ydTtMQI+I2ejVeKCtXL8NrNKqYIGmmBvTGstiJRrULl21dQlNVoi4LLTdEab10qVujUeUrzdk4TVoWo5GNSPcYVXOu27iGprh7p6PsdeEpS+hFOAFR5x+p9kThIWLSUWLZbpqK+6Grke4wKqdc2O5O04Cxegj1R0+hjrH0+A2pdPIhbzuQczKdSBP1KOF8MZHz4zSl06ytSNuNihlXNs00NS4nG1OMV/nijtTx26bxxoHkUztQwj3hnMwm6LxezAwv3OfT/2ExboVnL6L+WkIwGm2HufuMBpryGyWRMfyjCyU8+xfS8dnVMd97VFOk4Ij/DHzzZSXBKoaVWgyvUQyh7mX0WOK6zDbTtIs1V+II7ELAaboLNp90LQJO02vxdmu7EHCa7oLNJ12LgNP0Wrzd2i4EnKa7YPNJ1yLgNL0Wb7e2CwGn6S7YfNK1CDhNr8Xbre1CwGm6CzafdC0CTtNr8XZruxBwmu6CzSddi4DT9Fq83douBJymu2DzSdci4DS9Fm+3tgsBp+ku2HzStQg4Ta/F263tQsBpugs2n3QtAmfSFL+I4C8kro1sydrmpxc48TliMV74WvpuyaIknkbT9NXOrSJPXq0vTvscMcnRsIiS/OqPOHKD3xNoalutd0TskX0yF0RI+cHqc8T+wWV4jbzixRhWl5M1amOxDl+WomuSpPQ9u1ph4jliYtmJvsnitHVq9a+mlnVi251P7Jdlr00NFknJUui5xTK8Q3yzr/3bBvQJ0v1pyk6W2PNYc+t4NUWmC5pDxz2W4R3im8pB12QpzT02foamh4PN80AkpTV7Ypl9jphGNI9bj47eeipNgaQ1Zup0/ctimno6bj02fuuZNIWcpLNUlSG58W+LafLJuPXIHbaeQ9N4WTt98fI+kTT8Xz5hsSbqwK0niCn+OU3FOnEKmYs3KBEbi9M+R0zhT2HfJFnKt7+/B1VTcZdQXO5TMeUuLKehwHLf3z8pJrngNO2ygx6/IUWX9Bevr4v5v6dRwdNn0fSslV1TiVMVTsBsa0bOwLnoyv9a9RCxs5Jly0WLVO+DvkgwLSLLv3SV0uIgyfaopqDrOa8+bUZ6WrIoad1+e9O0m2OuyBFgBJymjIW3bouA0/S2qXHHGAGnKWPhrdsi4DS9bWrcMUbAacpYeOu2CDhNb5sad4wRcJoyFt66LQJO09umxh1jBJymjIW3bouA0/S2qXHHGAGnKWPhrdsi4DS9bWrcMUbAacpYeOu2CDhNb5sad4wRcJoyFt66LQJO09umxh1jBP4HAKQWtsyxtvgAAAAASUVORK5CYII=;" vertex="1" parent="1">
                    <mxGeometry x="39.996687011718734" y="34" width="226" height="133" as="geometry"/>
                </mxCell>
                <mxCell id="7" value="" style="shape=image;verticalLabelPosition=bottom;labelBackgroundColor=default;verticalAlign=top;aspect=fixed;imageAspect=0;image=data:image/png,iVBORw0KGgoAAAANSUhEUgAAAPAAAACFCAIAAADq2OK3AAARIklEQVR4Ae1dW7asKAytadWEHE7Npp1L12ROLxISEh4aFJXqlfq4h0fIY7NFROG+/k79vp/l/fkGFevyenHy/V5WKP37ft6v17J2GwnqoN0aFLzeyycq7NZUbcDq89pmRS7o+TkReCHlXp0/pijzmBNA7bK+M3xJrO/6WZDVROo15PmiAdXQoB1FvNbQC7jKCtn351uvCJIcUGccM4tjtAqZmd21+RYIvbzrP+zyal3q34BKwIQITX/RvOSlzaEoVTT8rsuC9wKQiNRLpP5+180f3jBCW2ga2AuDf0jQL/r+/X7B/PuzUk1q3RWFXXiDXOBLcfnFgjN03LBpdzxJ7qkLqL7DwIS/0Tfd6MgrOZSnqOPzcpGH/l6h25EMK/AKaUDcSeQXLY/dGPRIiQj2DZ5EVWCoihC1sbNAI85Jz8enYyA8Z9MWiNB6ZCFaiItcN9vPodkzl0SysR3CX+AyMfklWX3C/WRcps4QmpBmT1WChm1VCBmAMMwjtn4Q/7uQyAH40ixEBrWRBrM8pf9+3u847sPwIQkMdZ3aNwzXq2g2FUGqkgthlq7RUNG4AuqmytIxhLaEgLfFdDsNAUT2ZHGVXnaWnCF0MsXXp57Ygs/vD00FcOL7WS0sAY3V/k1WObU33SAHvmnmsH0xyouwgTgOOe9GLbu2mUhOvHHUqgaMUtpQBLwqv2lSVo4gtC0EaZXTI8yzMk4IQn9Ff4d6K6ciuLgWgU9vuCSBwTLoIKf7hd0oE9A4SYfxMsxpS8G4wiI52EondTDl352sZD5I29yRQqest6XxDhGi2ujdMPMMy0ZCZYScoRVVHckNm3YtphCq6oaYLzQzoUMPaYDAoC4qmse50bLCHQSEsWhZI+hp2ltaYFZIBkaLUMe9KH1hxdCKRaJv0G7H645rILmfxT5ihBYqMah9v6FJRMAoLazoZJdN3bSW61KHT+Q55WpqO8vOEDr2KU5rc7pCeMsnLUNjgRxncGVk4SnJSssOIQYQpy7TLKX1DFjM04RGUKlsDVNkZZHR0dcLF+uESUg3OZpDxynebS0omw0/202qtT02qwp0oUUd3m1o/Gp1jtbbl9sjNNmWfxPs/EgWngzUhIC4EKIEeQg3Y1cQSsr02xk5KSBlWWilSigRGhsNR4zQmS9ns+C5BqOlEkV350ut5qm8w2Zq1E5Z1EGHMJfUU2JbcVfNLqHLhQbJ3LhOC0PrklZtw2w8kj2ESa8sMj7z2jV7LBkO+ARycoLFYgIqpM6Sv822pWiunVgvDVRkBhWBoyZCR04McMtu0xRkj7pvePsBxB4Qh/Juj9BiuFPtIIMh8AUnEqIZCC3B/cJ34G9jyoEv01/L50MvwQv7qJmnFNDTwjDKg1BRiuO/cLidLLwu/BhRgFCWfha6UbDEshDcLzDb3FcVJHrVDYxEOHiK0KgnG+yApXK5ODpe6QNomVOJO5XaZdOS5DwIEN8gE+5h4RfX6T6w1A0jAYmJ1igZJvnylSA0l4WpxZUpDJZjb5qKoJThNFu0K6w22xpUTbe67gbKXCNzmtDgVeoIyGZwo+NZYcMfWYzt2vdhYSuK5hdHyMcl3sr1FGxBw+Q+mq8WSs/GpzGA3JHCToxzV65oWCsw2qw1rZV1q8PxbEws7NBZQofll/hS74NrdzkBYx80x1l2JdDru4YXiB+YRpSdF9Y8sQ4agUC8Tr4wGH9gxQSGXrViHW8i+L4bq+O/cWFFTv/5Iw9VKN0M6WeW7YZyoJuBOQY6v6Uu1OlHQHpTOJjPf2cJjTGJ15+ZgxjlskJPZHXAYKSweL2Pn7ZhOxxxeWwPSpKOL8yu6dW1BjfP8Usjqbc2nrfKkllUjcw69xme+iwsGg7vUOAnv8TiaKJVBoQrDiUQizyyLlXGEBTqdMsMEZ8yXvV0FKHxDSEN1vhGL751iU5jZ3AEzAjuyTAyr7g+gk/A8EVceCSMjQAW7Myomr5zab5DrMbMha0ehXL2lMVVYsAIrbo5v5Jq5mODWpXyzZhphW9sHsQ6QoBBD1c2INarvrbjByj4wli85MCPkIPZ6g/fk6ehmTgV7v0rfHuCMxHxeEj9AR//w7ts5jBjyExVOwRer+VDX3v+S9+1EM2RWnC9vyuLjAt/HUsXBs5t4kVTG+3A0VG04dCmSwwg9HQx/b1gQ0g+PBjyyz+0TgNLCzqyOBoTKVMl8LVNlQhxdrsVgzk0BSlNxDDvBeLWPKe7ONpFG/DlCdwPknOcApG2lyz344mIthhyfjyg4D5POQbHwpPWXr31hrgSx19P1YWspr78grPVAm5b6rGyJfnL5U7oX+49971EAKeb/68L96oRukTPSxyBGxBwQt8Aspu4DwEn9H1Yu6UbEHBC3wCym7gPASf0fVi7pRsQcELfALKbuA8BJ/R9WLulGxBwQt8Aspu4DwEn9H1Yu6UbEHBC3wCym7gPASf0fVi7pRsQcELfALKbuA8BJ/R9WLulGxBwQt8Aspu4D4FDhN74kFZ8jF9+az/FN/Nhj0HaCZT+84wM87FiqHwDtygwsW8ZPrNm+wmNvZJ2+unIiNC8SwQSkdvPE5qdT8cb4N4VHcVYMdTNOlsosMCEvml4Zs71EDptIASCVjsGCa33R9FWymqDO8GJlJF+EIukx2PFwv5KOveqjVsNo2l8u7OPztqyE5rGXh4/JC/YjRqhKwRheXNiwC5r9E25TZyR55SNFROHju2faj6nb+Y+mkHQTugwhsSt50gDhT7FctXp3Hw5yaGUjNr+ll5DSdgoHkZOUjxWDLf67+I21qhRm9E3G7qzSHUQOrlcApbqihQKiyMECglTwfkRurh5QMGyxjGUrs+xYiq2Nm5jjRq1GX1TYtNnLif0ID6fBzJnE9GZTkuJhB4rpt3OdXNtXjGTb+zkbySuJjR2Fd/PHwRFkwYoU+PwWDEdr9Yt6nTFXL4JN38heTGhoW/S/PRJRCRpIE1zDDowBw9cGSumA5a6VY2smM035ej8mWsJjR01w/hM5/EHXzRl4snqPMnHa3CUmGKA5K2qiNP4UUaNISgX2r4psekzlxJ6Kj7zQAyHn9GaRugg7n/oLerZMWKKAKS6PNqFasYYNWoz+qbEps9cSWjElYe+x7GI8x+xRAcuaT4Tv+VK3hkxGTURrSS0WK2Wl1p2rT3kmwxh+vSVhEam8FT1HBbnl+1oOSOcvM2+0LnboigO5aPE2BTZrwNCV79wZBrfRAjTJ82ENh5tLQKOA6LoIVHZm+TR9Zy6SJsw/IpztyXDwbGBYnbcBhrVJzc3I7X71ttdz8l3EDp9ogafJMh/aoMODTmDTmsdMUIjWe/9ok3QVCKG6Ry3sZ/47Wrr8u05jnZZNhO6S6sLOwIPIeCEfgh4N3sNAk7oa3B1rQ8h4IR+CHg3ew0CTuhrcHWtDyHghH4IeDd7DQJO6Gtwda0PIeCEfgh4N3sNAk7oa3B1rQ8h4IR+CHg3ew0CTuhrcHWtDyHghH4IeDd7DQJO6Gtwda0PIeCEfgh4N3sNAk7oa3B1rQ8h4IR+CHg3ew0CTuhrcHWtDyHghH4IeDd7DQKHCI1bd/L9Q8nBb7b5Z/mslY3OSf7WVObbe6n79ogYArEHb4RrV8wYQpfRW7vqiLF+QvNGtDqhA4q8eU4elT9ob+GRIFMbdv62TbLG/arsIntYh5fkdsVYYDtS1MfC20bJ+Mx/ewhtOrgbDgFQw15tN/4zkMR+k71GXSk3kz8iZjwX3ShmDMGo7ZneOmbVTmg+SIAOAJC82DaO8Nrla9oG7PqunBNCfJbH7z0iJk6a2ToX3ShmDMGordYd05bZCR2G3t2Du+txDiA0X05yKK1ba5WWXkDJtQeeG43azx639MJwoy1IJyzvIHTyvgQs1RWp7woHtp09Eez8CI3XhLggoODiA8+NRhVqRnjbYhcaVY7OmLmM0Ph/U9DjYXE20f1Y5P1PdM5O6HpETKORu6BrOdcUyysakbIiSOSNdO3v5C4kNJE5/FVPic+go3sMOjnO6lWNyuAk83oxjYh2QdeJXFNMVzQjFap4Kebcc47W+EzuMkJTON9wgBpwW9zsqfLOv7KbIc2dJ2v40N2wcH6bmMZB+aOrZK4pJis2QpC6stuUrvqp3OWEDmggwk+few5D1d0HnhuNKs5IQqoKnWmLXWhUuzBh7hZCq2HvMRCIALceKm40qkChNjtvV9tiVLMT6RGjqs2MmXsIjUMG3+MfAgK9CNMfNfvh8Sy69YiYhIT4eJjQYn15M9IDRmWTKdPDCR16Qz8C0pvCc3w+v2zHUx+55ELOyY5HQo068NyoTbDjPKFpkrcXab9R0WLOpJnQxsOxY/fhCoc4afv8MjSq1INrN6bCPeGc7HdQeb+YGd7lzb+ICOcX+bmMJQSj0W6Un2zQQej0zVFEMv3Rgy988yGk4/vFc2GOGKGRrPceeI5R7374JviXYKVUgtcoNtbouY67ubWZ0Df75eYcgUMIOKEPweaNZkXACT1rz7hfhxBwQh+CzRvNioATetaecb8OIeCEPgSbN5oVASf0rD3jfh1CwAl9CDZvNCsCTuhZe8b9OoSAE/oQbN5oVgSc0LP2jPt1CAEn9CHYvNGsCDihZ+0Z9+sQAk7oQ7B5o1kRcELP2jPu1yEEnNCHYPNGsyLghJ61Z9yvQwg4oQ/B5o1mRaCT0Hp31VvvhuUYbVIsfm9idzcUujNWLOqEcwXShqpG4LjP6ryYMYQu3xouz1NsJ3SAhza5vTZOMpfb3pJYsQ/1GQiEc/dtkpWMCceiyb2sBQzs4Ukx1uMHnhcYiw5R+13pCAAJPeEo/qOHVNTQfFtx9KTub/JirJj5UHHbefJ/JjFjCGbfEjizp+wjdDjSqzj6JD9BJgIpT7kYdBTYgF3fubPJM3X2zFgxcejLgJPMjdqMIRi1zc5h5V8XoVVLyCCB05CX52OLRnGpr1mCXaSI15RtVJROQMm1B57jRWM5KN5ykrlRmzFSo7YGnJMWnyQ08iwNyAhlfhpMLM2LuyA5P0LnvuL4dPGB5yrGkmiqmjKnxYyRkj34azSq2syYOUXoSNQ0QP/90V2sMofeeRq6Gp28x6DX4VJUNSpD8RwW00HlunUt586K5e0bkbI9SOSNdO3v5E4QGseBgqb0qBhWRNIqB+Q2H++vxkz3GDgfr0RVozJ4eZ4Q00Fp3bpO5M6K6fbNSIVFfppQY5MW+JHcUULTGl6abYiA1YP4e1nxf1l5GCzZzZBmf2SNOvn3vJgAxU4a5Y/WIHNNMVmxEYLURQdZMia68odyhwid2Fwse9RCx6H8cazQjWVFzgp3tH9jxRQekmmqQmdOixlDUFaNRlWbGTP9hCY2C0ZsBobonnog3NRvrqQu2zkGfKyY8o5U7wwDp8VIwU6kR3xTbWbMdBI6srOYOLdCQ2izE8ZbwleXk/OZOzyeRftjxWRQRLSrCU1P5vkqZx7pAd9kkynTPYSmnraOzcRmq/wmQOeX7Wie+NMnmQuMti6PCL384IAe1qtPPYTNkK4SPt6ftBOa6AyLF3zIdkyUKNHMZNBcg62XlnpAo2sMg6BPU2S/g7aBYsZDxceK8QMoRNj8asVotAfgx2UPEZqIkP6WNANOFEw5Hu+IERrJeu+B5+LaSHBRKg2IY8UQ5t2v7YxGj3faAy3thH7AOTfpCPQi4ITuRczlp0bACT1197hzvQg4oXsRc/mpEXBCT9097lwvAk7oXsRcfmoEnNBTd48714uAE7oXMZefGgEn9NTd4871IuCE7kXM5adGwAk9dfe4c70IOKF7EXP5qRFwQk/dPe5cLwJO6F7EXH5qBJzQU3ePO9eLgBO6FzGXnxoBJ/TU3ePO9SLwH8IhALFXHsduAAAAAElFTkSuQmCC;" vertex="1" parent="1">
                    <mxGeometry x="320.99668701171873" y="34" width="240" height="133" as="geometry"/>
                </mxCell>
                <mxCell id="8" value="" style="shape=image;verticalLabelPosition=bottom;labelBackgroundColor=default;verticalAlign=top;aspect=fixed;imageAspect=0;image=data:image/png,iVBORw0KGgoAAAANSUhEUgAAAQAAAACHCAIAAAB20hDlAAARsElEQVR4Ae1dbZqzKgzttrohl9Pd3O7lupl5HxISEkCNQrXSzI8pQgjJIQfwCx9/TX/za3q+5qDiPT0enHw+pzfk/s2v5+MxvRcaCZWMf4s6StWgNci/Q+OP5/SKxpSiR3JYfV55sSAX9OPvQeCBIWqMQhbjcAydDnHPCaBCWV51GSpNr/f632taI1GpWAbi/IbaD2bk3ztoS4ehOlRg34pE5DU2BIyuidQLgiSDUZp61xxy9v6uBQJMz/ofdnO1LDkeoAgRQgSgX+xaGYuVztbCFQHIArRTi0tinF80Or+nCeeppE+SYJ7XGYiTWagLpjxf8wyTS0jQX3Rlnmdo/vl6U0mqzRb2TWA0KppSA2BLQdeYUa1BNdd+sUHQcliH1r/iAggGVJ9hOse/jpP6Qxsij6izZV6Whj5+Q1djALwhlrDrKV5WQjdGTaY1PwRDpBbRAQSJ5beiQmblzRbHFNoQ0QodNIiVQdjxUaGnawZjUQ1FIoAexSiMxKCwxyZUOr3pd0/dmuy6C38h9rl7JQsOmq9NaCEAocvWqUTokLpE6qp6uVJDBzKewrpm7Q/wehYSOWDzzlMDaJZPZ+bX8xnnFRielIGhbKd23S+GI1rdRYQSqqJuNUZjwFUriLoLSawNlUVyQXgj2+ICTrsKThyJ+qwtWwiQvGMO68U1wP/kJT4uvl/vFBlBIExnhr/ZvpIAa6zdu7X8IdNE+3baSlIktPA0JEAl8vYmkxFPHBWrDqOUbih2VlV+2wqtUR9t11YSNhdUFTpoph4p+hMEmEUfh3JrHEVA8XoLzFZhAcznlgw0yOm+CBBwOdtUT4Tqahyoi4VcQDa1FMbqaFJZJ/UCzTX136QuV1/qrNgghbhJoVOW29I4AwWgsQOqOIaVc5iMhMrYXVVxIVZPFk0VGfV69VyTC9WqTc0qjUyAMhahkQ2c4vpsesOsBMKYNb3RRnERpGwhhlK+NFEG0gGqS13JUSTjNVoLZSwq/WCjoBaLxEag3obHxC/Z7GI6b4DbwcuzMi7JzwO/6NS23aA6ImCUzqxB0LVXmHdMH6vf5wJe3jYPndxKLdFCADw5ia4HHCQK4NL0SrcBMCPrc0RvMYDyAgE9tCdXT6GlaAA0RcZAE3TwR9d7KpdWsROoiTcs42uQNc8AVaUNmWg4u7iqCWUJqFXRMwstLuBsRiGhp7Xjtm4RgNqTvwlqPo0MZzPqdhOE3fSG6RnkwUWKLmkvLMLXT2qnaXrJU4dQHQgg5w6ZQa3TcF22W5oDOcm1lTAH7RKQxXTZrvS8V9oSPbEtFP2+OxMWFzTsxtXwJsabBCgvpshIj9e6YU6a0pXvcDYRyRFcC9fL01RQ2gSXV2Qwk8gciFEr2CAAtBaCmROkkX4LewRnosxi3VKUtIpfk5CQb0iCoaZBPcbQObzc45Hdhb+/Ody5gjGnhx9bBBBDYukQml0b/0Q1EJqCyYv2oki2OgrNrURRKFIXkMQSiCq+XuFRi2qzWZPQkDAafQWhIhetqnld5FWbLnFszAEzLQRAwTogjTY0Vje7ENvp50kTAdCaLEohMuWoHY1dwR0kasGSqZYoQ1EecRys1CafFsiqIa2ahIMwp4a/eN3zBasyGGlKy3Dii3eD5cTHt4gxM2/1M8foLPu+2EgEpXRnscZpBVYX2KDdFbhmlmgmAFiSwIfDDGI0VmdiXh7AhmOtJvMmHUb9ybBUBClh54op8RL7AnehYt5CNTNrvPMhOpAbUjQS/dyUKyqekGF0IVmC418HX1oJEB6KiTdeX3gtNJ+LI+75WEwj7fuNj6up5QzdfQrLmke6kxays5sVCZIwdr+m6QUrqbKzwzVnLIMqIBDJBGcacJqNT3XoJuIshM8/xHMe6wwQxZORmIqXz4xczmsXx8bo6RYzhQHtGWsuhDJ9ykt3gjvEf7oRFuDRCsEonbXkqbilnVVAz+JzI1lZ1AYds1K0FCewXHlN8iEpXPFjmzibcGXt3wxnB/Qow5JbmM83CKVew1zFIrlvGIlLZyfrxlCpeoQxthTuecFf9bpBbJUBIU2X/RpdUKjTlBw8zmE95kjrDICtxvthdFM+PgZDuXhCgB2QWx3JvNAtUKcs4wjing8jP0wOsc2ADqqODQKMqIlF8FLC4j3idUCxX3J3bPfPO8wAKiyYaoSHPAWLbsQKpcHrbn6wdIcLMMBid4GLPZ8GpaUIXESRN5ZWViZpKZKGfoqjsJ54h4ugeKlKAk59QI+J1WQ04AsEgGcbOOa5CuvjBmAJ9Zhe9PTy/8GuACHRIloZcp6VC75hesE/qhHOn0U73DYnwEnpNZd44hsReGCM5GPI9vH0Hz2DApdPtG8xyigQUyHEDoQHEaSUSdJrl0GFFCaRXvmqRkwW0CxI6TklXLmBQK85TQTAkI4UxncJ6k/nOQGKnvnqDF4CdbaSF87LemfxWOiCFFyU1OekC5KQXW8Ur2yylrrQmlpZNvPNb5kr0zCl1skhxTz9HQh8igDf4Z1b4QhsIOAE2ADIi8dGwAkwdv+6dxsIOAE2APLisRFwAozdv+7dBgJOgA2AvHhsBJwAY/eve7eBgBNgAyAvHhsBJ8DY/evebSDgBNgAyIvHRsAJMHb/uncbCDgBNgDy4rERcAKM3b/u3QYCToANgLx4bAScAGP3r3u3gcAhAsR3Tyov3q3vmfMVL0qFd3LS23WL25j3FcNeWMEtCnyxbRuBdNfi/QRIb0WtEYDfpIJEfNfqegKw8fAOJL0CVuwz2VdMRn96HbOImL6NGrUZbSuMHSZjDwHSC8AQOdVwxlcQ9TuH8d1J8VrtRfDFoJCGU5xIi/uKhfejaS+/ZdxqGH2NbRd11ynN2gmQ3q6lzR+WZwAZTrR/fWP8d9hJIb6pLM2mGJMbKPYVE4vCbdwkNYkSavuUS2w7JRCvasROgNAhcTsKDBvVW2R/7y8yJL1xvaK5RcWW39JqyAmbQQTdpLivGO7CuIlb30aN2oy2WbC9r8wOAiQnS4BTWZFC4cbxP2x3C7vEUZgWzWxn4OgpFEDG9I5jNPG5r5gyaxm3vo0atRltU2LDHXycAJ3ivx34PPoo/GmJFgnQV0ybnevm0rzgm2xjI8dMfJoA2LW8vrgQRB1kEGK1mO8rpv3VukWZLvgu24SZIyY/TADoy7S+vhJBGWSQpjVPPNussKFdTDssTVAlsqC9UaM2ZYEGQRcNffRZAmBXfMP4T1/bCLboEItf0+CTFORsLzEVPDIyVUE8DenVqNEFZcKybUpsuIOPEuCr4p/HONgMUpwLp+iD3qVI6COmAoZUl/vGUUmfRo3ajLYpseEOPkkA7AceWi/HLq7HxCVPMInHy2hgXzHpNQVmSQBxt0BSM+MmTVbyqm2LC0bbpNhw6U8SACOJl9pt2LVfBqXLPeoT7fStBRl2RFyR1yAm3F4hQJyfvtM24cJwSTMBjJ8zEADFkVSEkSjcm+RhuU1djO0whIpvLXzyWSA7bt9s297uuo/8DgKkRyjjTdn0UxvlaRyVTx404NJjBoDm+z7mualNhHXCi1I5bpvaEMBeYrtsa+i7b65qJsA3O+G2OQJHEXACHEXO6w2BgBNgiG50J44i4AQ4ipzXGwIBJ8AQ3ehOHEXACXAUOa83BAJOgCG60Z04ioAT4ChyXm8IBJwAQ3SjO3EUASfAUeS83hAIOAGG6EZ34igCToCjyHm9IRBwAgzRje7EUQScAEeR83pDIOAEGKIb3YmjCDgBjiLn9YZAwAkwRDe6E0cRcAIcRc7rDYHAIQLgq3T5+3wJjzl7Z296vSsbIST5U1OZbc+pbtslYgjEFrwRrk0xowu7Gj21q85obD8B+EXSOgEC6vTK60N+iqXTu8FtoLDxp70Uj1swEyJrb+LLQFz5joZRzOipUVsb6t9cew8BTB96gP091LBa21LkGkhiUEjmUpzIzSYuETN+R8MoZnTBqO2a3jqnVTsBeGMS2lBExtG6sdgddvmatg67QlT2KaL4l9uXXiImdsZa+46GUczoglFbrTuGybMTIAztmx96qOPSgQBMPzlU11tbyi2tgJzPfiDD2Kj9WxWWXuje6BKkA+TvIEDytgQ4lRWp+Q0bXrbukNg+AyCHBIEg48MfyDA2qlAzwrss9sFGlaEjHHyMAPitJD75E3F3EWx5vFD4046JcYV2iZiGJDdBl/LRolhesOApK4JEXkmXjnv0QQJQ8IdfdVZ8DZq6hyEoajF/iZhGRJugy8TRopguWPRUqOJLVW3naVrjPY4+RgByfw6bYwIXLp4EZFhAmjtblvAm6uHGxWliBBb+Knt0kTxaFJMFKy5IXdk0qIuGPvo4AQJ62CNXfycDhsKzP5BhbFTFmAxgVaAPlsU+2Kg2YYCjUwightXLQKOAOfUjFMZGFShUZ+Pu+bIYlWx4eqRRVWeEg3MIgEMSrzkuAg6tCMsxtRrj8TKadYmYhITi9zABxPX9VU8PNCqrDJHuToDQe/qUl+4Et8V/+2VQXorJzwGQcTJQMAC//lsVazwxuiBCeE2bEBsuaSaA8UMPEXm8AiSefGm/DYAq9eC9uzuEecI4yQhQeb6YGd7pyX8RET6e5ONWFheMje5G+U4VdhAgPeMWkU8/enCHZ4aEdLx/3AZLjxkAgzvcoWDTn3q2SjYaH6XsJSbilW3jRILXKIZubNq2S1uCZqiUmQBDee3OOAIRASeAh8JPI+AE+Onud+edAB4DP42AE+Cnu9+ddwJ4DPw0Ak6An+5+d94J4DHw0wg4AX66+915J4DHwE8j4AT46e53550AHgM/jYAT4Ke73513AngM/DQCToCf7n533gngMfDTCDgBfrr73XkngMfATyOwkwD6bcel9wm11GNJ7BrgN18URLP6ikWdsE9JesFxAQB8U7Fd7BMuLJh832w7AQKc6S1VkZSvYgcg0rYitJF6qFa8eH4JZuIt2PNeikdPuen1yO4lxnq6fArkks46pdEdBAjDl3q/nbYUUT0aw1/kddoeugMcMSiEbbRpndpsoq+Y+SMUtu+P/JnEervQAfwvVWEnQNjisNiqCcNdRFREXm6zw5NClrkPkQ67QhTG8k5Baq+svmJiQuzw5Qujts4u7Oupe0nvIkDpGsa7IEDsoSzWsUOyzFLbSg5qUIG6Il0tKm2FnM9+IAN3RrV8WMTy5Qujtr6eVsEcJrORAJXIjqHKH1/stAJqnwEKWyHjwx/IUIFSBqYqpoNmsb6ekllj/jYRAHuq2PRNnS7DefNTbVp2DZJ5WFH40zooTmN9xbSruW5dyketYnn9Nk/ZrDETDQTAcaYI/z/+IIC8/rC0Adt5qOqwAONrMd9XTLundesycdQqpuu3eioMGzF5lAB0TbRY10da8AoofR5AnilcAKUMC0izPbJE7eTeLqb9VA3pInnUKibr93ZB2jlE+hABUvTnl4UQe3VREWBCWhRsORVCtkEHBd24ID70FVMeyshUBfqgWeyDLmhLBzjaTwCKfgoYBQJDr3KzZXZWdtYhxdXGZyP6iinnSHU+bCghM1jL2qikj6eZdYMd7iQABvijXPhHWLC85MZS/qlokvGnfiBDekiB+WkCiLsFatJFAFKWERDpwnDpPQQgvMr4TrBEmefrnXq5esc4VbGl2i+D0tCqnsog21JU9BYT7p1GALrBLZ8/afBUuDBc0k4ACv/wXE/xJ+KHlkjwAJDciT9/ZmgXlty6aGmXAhTGEMRLs8k2GScg11HM+BGKvmLpykPWC0c9PQD1TaocIgAEkPqnw7L2NGiaEI4h02MGwOA+9wMZgksKMThIc2lfMYTYnwY1hJqdAAZlLuII3A0BJ8Ddeszt7YqAE6ArnK7sbgg4Ae7WY25vVwScAF3hdGV3Q8AJcLcec3u7IuAE6AqnK7sbAk6Au/WY29sVASdAVzhd2d0QcALcrcfc3q4IOAG6wunK7oaAE+BuPeb2dkXACdAVTld2NwScAHfrMbe3KwJOgK5wurK7IeAEuFuPub1dEXACdIXTld0NASfA3XrM7e2KgBOgK5yu7G4I/ANmLvsJk/xrMgAAAABJRU5ErkJggg==;" vertex="1" parent="1">
                    <mxGeometry x="39.99668701171876" y="176" width="256" height="135" as="geometry"/>
                </mxCell>
                <mxCell id="9" value="" style="shape=image;verticalLabelPosition=bottom;labelBackgroundColor=default;verticalAlign=top;aspect=fixed;imageAspect=0;image=data:image/png,iVBORw0KGgoAAAANSUhEUgAAAaAAAACMCAIAAAC1Ter3AAAgAElEQVR4Ae1d27nrLIxNW2ko3UzK8cN0Mmlmz6e7BMIhsX3iP9F+2MEgdFnAMsY2vvzVXyFQCBQCX4rApY/r8ViW5fGQAjha9Ehy9/oFY6ny6MRe5kpPIVAI/BICCcEtt8vlclsYhcf9erlc7ykJbQcq2nL6hgVOppKFQCFQCKwisI3glhuw383PwZCZLsO/QJVInp3o9f7IC0BSiXc1qiosBAqBQuDv728bwf39MRUZyeEFLlzVDv5sKihzw8fCk8SH/AFJAs09HkiX1/siJVb7s61HYQe2FodWGT6tITXrtxAoBHZG4PKXD0idKQ0mU36ksohWmXFRqAsZS6gOK5I2VYbu6dGM6sNlFBIPgloVPK/hj+epaQ2tWolCoBDYF4HLXzflgvmUXQoS+dzu7YSsmUs9/GXqhIuP5X4z2nrcr9cbrfM9ltv1aiU4R7T54YTmI0XAa0Bnja6I4HwEfzbRPWot88igS3ch8N9FYOslaoi848qWFfnYbtEO5o/CIP63oQwxjMuAsA4oGcf9ytzscrlekebS+VhGcDznS+WP87c0FwI/j8CuBGcM4JmpTzs2wiruOG2QFSE1+UxHqvjFTJpowlyVGCslLJiBxjmoLlTW/O1FwEu8ENiIwAaC06UoZLCWYJB5UgYIHitB9TTY5LQGWM0/nME5x1cIzklxsuZvPSaVUwj8EwQuf/lVotJJpDEhHSzGR4CXhdaltAK6TbUkb4EltvwacmVyZvFPCZn4G6nHHedd19vdryXiQiGvDUalrxBc8VvEro4KgX+HwAUut27hD9eXlI94KAeJWxz0KKIVwHfMcdO3MUNtnsHtABUzUCBvVEsFITI2RyUuwrEbrD3TMq5UJYVAIbAHAhsuUdU8DmE/gHs+Q5GMD3pRVWuJKSETfzFFHItPK9PDK/LiBlGTD0w1U1EWkIpwgrTbXem2vI4LgULgOAQOIDgc0t3YH1Acj3+ZPa38pkSzAzCNY0Rdl8uFHwfJzU4THKvLtezgfakoBAqBFQR2Jzjiixu9e8CPhdzxIhgZox/p9JICv81gryzgewz0igNlrgSxqQjveoZrbliQQ6YdP383S3DFb5vapioXAhsRuOBjvf3ESYmIh2gn4aZoKEIVRtIwI6JnxwYXa1jR6cSw0syNAe9TneJs/e10MxxP5bqKlVEIFAJ7IHCRW6H2TG7yJsPl2txkuPnbjTiMmRHpjsUdX3yguZn3Ei9I+d18fb0UE89ncCzv1UH61I+J0AV48VvbaHVcCPwjBHa4RH3cYX8ledVq3e+HvMTAc5tuYvgsoyULXcPTKee6AxtK5VGSK/yxn5iGf+EaV4ywc8e7JgbrtxAoBAICGwkO3hyFsc4jHvb9COrnDkYXfJjfUlqj8t/N4FY5OfOSK2RFTRB1WAgUAocgsIXgmocqmOtoue2W/Ml0Rx7DgAfmlCGzac4MwR2CSiktBAqBr0BgE8HBal0kpgfut2GXcOGKUwiOpjQ6IYJ7lfm8rwjuK/pYBVEIfAyBhOBwTxCjnLVvMuiS2lv+P57usbRm+y2TVakQKAR+CYGE4H4p/Iq1ECgEvhmBIrhvbt2KrRD4cQSK4H68A1T4hcA3I1AE982tW7EVAj+OQBHcj3eACr8Q+GYEiuC+uXUrtkLgxxEogvvxDlDhFwLfjEAR3De3bsVWCPw4AkVwP94BKvxC4JsRKIL75tat2AqBH0egCO7HO0CFXwh8MwJFcN/cuhVbIfDjCBTB/XgHqPALgW9G4HMEp3vxhi2VVg94n6W42TkefXMTVWyFQCHwLgIfJrhr/7GHZKdMybov//eX8+JtGRQAYcYt695FquoVAoXAfw6BtwiO9qpMt+LO+YfnZaEGSibcs6Ic0MXd6pYFtw++3vDjNssCO2bS526EC/kXtlIPVj/XQLB3sXzKAfZ452/vtA7tK0ban0D697ev0Ultk761ANVxIfACAq8THI0W2Jj8nuzDKwR3DX8vEBypT4gvBoViT6VwWpf6GbUdfqSg2ecT8UM9S7S8rxjpVp0jHFTghL5FeOqoEHgVgVcIDrcjt0WydMAQwTXMw0MoVrAZnBthpr1Jxbp/WKWxAp8QbGg3F3sVo83ySfwSs49hXzGYl8kXrBHMBkKOal+jk9omfdsMfCn4eQTmCU7mZnqeTwdMRnBJr8cPmsryGJbDB7nyP/5kapgudlQGDYl6PGP0jPd6e+/w1S7CJMDFkAgC6Na+Ym5Nkj+RERwQIPY1Oqlt0jfxsX4LgbcRmCc44A9Y9Howk4wuUeHaNLBMzm/UyVGQCS4wmAsoKYaB1I9XFAymczmn+2mShmwgoqd1GgGK37tLEd1u8D1ZvQWyrxjx/dP22tfopLZJ3xoY67AQeAOBFwjOtPcd2cq6FAn3fITUYQTXXJK2h54faGKmNxjwFgOY7egMTQfG67x7mrF9Bkcc6dyQyKlAIttXLMQ1bq99jU5qm/QtiNVBIfAWAocT3Ijf+hnc7CUqa3QUyOQB48vxSHbN+hZG2yq17IIsgG6GknDQX8HLCWJSLLrcVtLStuBMvqmTlSgE3kfgaIKjIRR5h7yFwUSzF5SRiUwfSlOMg1Cq0rSNWI3lFvuD77bKoyT2HcTewqE5hICEh97zQSgJB8T+G8RiRFG3K4sF5/LNuVnJQuBdBA4mOGajMK9iV6GIhjANMzcjS5JCECorGaCG1LOtpDJkZS68C9pL9TyJYFo8p5si2dRsu1j00LsQSnzBdqOT2oIHEYRYVEeFwGYEjiU46vIpuWARsw5+3zmfeGmu3IJYbtc73FcVmjCCG2KBzPcxgqPZGGAQKYQmn0LycrSXWADDM08oOLVv0dM6KgTeQeBQglvhN7cER24/Frg/i39ASMJff4/k2hL0isAkwYk4m/iXP0IvcMEcuB6JV3P2FQsBimoB2Aql5Iy+mZeVKgTeReBIgqPRo1QUXQwsxhcqPMuyItLQTb4gWxjrOcGhkk5H9ObQIyKy7jqZss2xfcV8RASjIOZLeAp3Tt+Co3VQCLyDwJEERyM2HVdxAtfwGNSTWk0RhQiZIgDCK6/ac5FIvw7R9sdE5LnBi3888MF0Zvy2t5gLdYXg+NRyTt9cCJUsBN5CYJrgHvebvV7KC/macVt5LdUPYXURhxyX0FB3Yp7g5IGJwFA0YNkJuu6Td/B1zY4Tj4c3pfanE8xD8dpyurYKOo/5vQLw3jMeiu4oNt9eOxqV10moaYaRzvumAFaiEHgLgRcIzrbCMGrhVKAf9oPHTVbklttZytFb8sBuS4FQSR7/ACJLlukUDDSQOqEiq4k9ZnBoYHKPjb3EGNiuqTCjxWMvo4TkU20v+bbaOlVYCKwjME1w62peK0XCwkEG53K52oR3w/Ev2ePIaoAlJLhs0qhu6ITuDq9DteNZxSpRCBQCX43ARwgOTvFhzkYQ6+UgTM/aO37uLitQ3NqkDbSZrqK3r+7AFVwhsIbARwhuzaEqKwQKgUJgLwSK4PZCsvQUAoXA6RAogjtdk5RDhUAhsBcCRXB7IVl6CoFC4HQIFMGdrknKoUKgENgLgSK4vZAsPYVAIXA6BIrgTtck5VAhUAjshUAR3F5Ilp5CoBA4HQJFcKdrknKoECgE9kKgCG4vJEtPIVAInA6BIrjTNUk5VAgUAnshUAS3F5KlpxAoBE6HQBHc6ZqkHCoECoG9ECiC2wvJ0nNSBJ7uPPOv/YZvLD3bDed9n2CnsHYrHth+Z4NN/ChUr/N9H/9hzY8QnNvLqNuQcdvebY8H7gR3v99g/2Ha3PGWtPc/RLhMfRQBv5PgWr/bsGczqG27rTfbxI/bfSa7hZHYuo9huLQ2UQFq70syH6NfuLNr6tZAJZmDEdf8Rb0fPvoIwT1gZ0ugn+uVtrh0h/c5OpLdMXnX9NDwdHAF5fcN560Pt0yZ344Ab8csmwvSKF+a8QjnRNgWVQY3juekQ2kWfNoRNmeNasMMBxX2NIMRTRDc9e633sdPnjVZMHxS/TmThQBHuI6cHhMc1lBcJLHyiRRDeeTE3vlvERx1gSG+Emj362s0zWyHOWigq6vuGPJOXQL77t4Y7alvBTpvZi+xp7uHH2GUdD4N4SXfvJ9zaVDfdBroWr4TqSLsc0Jwf/qZXtoOGs6S4e/xoD33pUKnlkKX4j9TiGpgE+tL5Ct3Uo+uoIdJFlrIQul8GWnQ2H0C1ZrfXDQ0hhe+EBNGpDghPjpzsUSyU7c3fkz6dYKj1mu6jjqHjYFzM55b4Q9TnW+RBks7fDzgu87hmwvLgp3CIz8GXV05X2IdOvV3LzHVAycC/aJGtpey/1iMbyR1SROqc6OY6pnxTa3PJpjcWjaTztmdeTHDdy805IkFLjoWM4/uS0ZLKljo8HGx5pa9n+s+hvrOhHwcLZQrm490kgLl82VZ7neeKfh1vDYeg4FTAY2uVDNanLTgyMQrBAfzch0nil70jrCUpucybmHfIPLdGTk1BgbrAeuweQp6dOvTRzPQActMIDwrloDOWXoxRqjsaXQyhGnf3mw30H+VtVfgJlr46HqRqMdem3Va7bLosR6tzuCCMrifIFb4F1U1xkwEa8f53cwlKvsnwwm4Si5iqUjnVywSixtixEN1sYndfF0NqAN7Pe5O604Z8wSHyGPkPB2w5na+kJRigyUYWUuInBmQ1WotOD02mJN64JzZI8kXOuraOzrnoHPfkVhDeFKMbAaEDHIXzZl9ewfrto7vKNStnq3BoQZfjVSGHDwQFEkt8xjiKbDTgcixa6Fu6278YDCVopaoJDgDUr1S8aoTNaXiZuNEW6M9bsTR5U7V2KG2+rHH8wQHGMK3+h7yheIuJvB0wa+nhtbAUFt+a1sk4hGPSDaaY6WBHwcHciZ/C0jsXKA4hPSqqinoENfnCM+JET4eM8yBmzpNNGf27VWcO3lqPmk7bcy0p4gU9WJYZuHlI1ps4ToEaeigQiXyraPrnW9j4NTLqSX3Qt3c41gH3Y5Z1Jhyl2OF4HAil3TesROdahp+sMqRjyQXvoumN5DLuSqHJF8gOLOPzvuFAyvqUyTcSTcAJIc2OhNoUB6/jYpz7XYCTvNwXs5trxF6H1dy9pjBOfWEhoXminxysxgOCt+xMUPvb6UObDbqI5Bh4QahFL/jm9R95Zfi8SBM1uaKspSMPIdrU9qhUEI4R7un1VMGFRlnOdR1+ZQkcLT+WsI3Yq8UvbqBx4kP7fxC3aAQqIY8q+fD6kmO7ejFMddSUER176GUHPp7OMExOr4xMKAm3uYwTHs7rOSMRUqzYjPRGT4UzqfKCY6nTm0Va+sDRtTR2xLn8UqRk1phLi81FmvNTPkWVM8c0KMfwA8yWnUIjhMypP80QbdA7XCh1TyMQYjDOuByh1kf3HVFKlRqoZCHZOW7Az5CxVNHnUEi1cZMtGOn7uAQ4mNe4art7e7ukWSXtFAJm4K95maRCzaYltLJPsxV+sgYFaguAKE/vYczzbhZ5miCYwBCqBZv8xycl7L2YaRjqKiXO0YqwK3l+07U8JkjwuOpV1vFYn0EiG3GkgDCSpGX2yoW60/65h14niYTcI15lWGGdoYUwwW+A7IVVNXlh1xQHVuU7FstuI+z8vfk2U903ZSl4aPFcG9C7yKAvEcZ64cASCM5DVx6f0gAyKCs29Iko3otejBDjnIddy7xV1p2wiDTB/4/mOAQWAk6hKFwuk4XGhGqQreR31A7TrF9C4gY6Q8apeiTv+RWHA6JP1vFfH1Mq0Vf0hheKfKSW8V8fUzP+OYdeJrGXgePw6D69T6Qdy8zkasIua0KNB+nL6bvjRTqW4+C58tuLGFSkZV1c9XS+owBheq24IZlpkoncv/zv7jIaHSHY5VMEAZBoTtQN95A48UqxxIcw5bFE7pIOmXGNsD7iQauRtc0Oh46MTLsMrTihxOTjm0Wow4mY9wBQQUuwwDZbNRUySJCM7MhgXd8C6qfHsjrmBhR1vtMAzjTokEOugHpkygcFAcVAiLcq4Xnym63a7w4NNNNatWq9yCmKbzgECoOXkEOecZo+FJhrNsdCOu2xBc7uGLEaKH3OBYIDh7J4ZVW0LoON80ln8g0wGw6PJTgCNI85KZFmkNtImjMBA4UF1hNmHOoq4TiTSDtWJkgeeraZjFRgOdYDyBh43M0OqljKzta5BObxUTBnG88/AbPJ3vH+jRagljJZGSG7IhwwfeZ+eqK7yu4ay2ARxWDTSOL1Ax6TrBnJrV/e6tijpbypBreVJMi+aXLveAQAmFeKS7kHsaopewy3jwwJU4yJThVSaXSn0Fr2rVMXg1b1qGpIwlOsEtupDVdBJ5wxUeIr3Y2kJWDFDGAqS3APF536QoPBfEF5YSJdIhhxe1ihAYMjdDjKDtkqRPbjaoq4QA9t/sSOovjqA2OpL5xJ3LXQUHV+gFWRhvyuL49qc8EAf3OiKNfHDIV3lTIBb+pRclZfAm6eQsaZfp7/R3HByMMCD5dL69rp4OpHU6gxbxyOpOpLT4HTee0Jqord1PMHnZZKJVCsBma1JmmZDDRlR6QcSTBUftI8NF5fh/r6t4hwjdL77bgiljAMOg1DCBfqRGtv3D0H31MhLs8DF67eyZ3Fl2WR4Lg69H2MuvM5SXXtHFDTfn20FnMwG1vtEmjHauGh97oiAecmkYFl4RcTyU9Q1INL+O04xAxB61ELhuhNVQIrQId93Ps4BCqGVgkE7045Oe5lD3sFlBJCsGmPook80775SKRtmgPTE0THPQz/WOf9TiDXM7TSfNhi6EOPtnx+6delGRuNLNrIMGGaPL+pEuQb1cjyk3oqavetxc1TkK3r5j0V4Zj9C7qvkYntU365mCGZmgb3BWPkv2IpfOVa8xnmqMKeIKX3r1yu8ytq4Aqg/kU39103mAg0pPlmTPsgyzUlknk0U3IXfUqL+yVkD84y01Y1UqZEOAH1n1lviyX0fz7oLuzbbwSwyG/LxCcew3VxYPJrO8hWoNu2e++F7GluqwV2xfWPgUAKnUwSavzyY0tw2ZMVkkqv/q7wwxO/GlRa6DbV4ziBGSs3RJA9jU6qW3SN2uqfDxa+SiF/riOgnKoTDNXVCOb8fzRoyhDXTpkUMEbEsIVpQAP/TjImLuQ7S7qrLn8CboRslM5v/YC6nLks3EJ0q1GdiiFi3WPVKFlu8Zf354MDQw1GSw7pqYJbkebmSrDltnKX0lw63GjG0ow8ZPX/11jg37lPLrwPXAH1SyaytsPAWrJ90aF9argD+znI5MM6D9R+XJXatJTkm0uKKzGLCESSJjcTyGPKthCHBLc2hqcddjutJzSkcnjWZwHRTNlcuf3x6L7hNCYUYo3aEZwPZ3BRQBNIaUUa9p+Ss4Prdgxx2cjOFom8uzGICnIOKUiRLHlcYnYul2ASQlwvQVCnTo4EwJEDG6gvuTcYMSCDuo7yEXNAgtUavkptSocaWdPuH7NV+HMnFCi/QrVLPebqXIWsa4IuXzeiBxzcHEglZEKiIUY7QcYiA3gwuyVETQIWQx7rJtziYkcljoLweGmgNQ3nuL1ZxJ5bzoMrVL8H0MAOOgUfQRnMf1pmLL7/ADzlFCo8e7BAC5k8idOvmvy6HqnIbijAy39hUAh8HsIFMH9XptXxIXAzyBQBPczTV2BFgK/h0AR3O+1eUVcCPwMAkVwP9PUFWgh8HsIFMH9XptXxIXAzyBQBPczTV2BFgK/h0AR3O+1eUVcCPwMAkVwP9PUFWgh8HsIFMH9XptXxIXAzyBQBPczTV2BFgK/h0AR3O+1eUVcCPwMAkVwP9PUFWhE4Mkr5PCKe/qC+eCN9Ki8Pdrrhfm3jLfODI/zmDE3hWKo6DwFnyO4tQ1kZFeX5pe2bIF9CNu/8wBanpwGAdgybbzLz5NNgIZ7FA0LVuN+pRbK5o4PNjRi01ixGTODw1T9ABJQm8qT2ResijOkrR3EcLwK4juFHyY49+Xn2/O/+/J/bh8vQQt+VzaC9zumvoNQ1fnPIoADNnyVwoUyGM0kQTV9D4O0fhG5LeAuKNqTuSGyQLNfG4l1YxpFB4SCfjVqxCrvuxa+/iw7/vuNMHG/y1R/zmSZ62ZTrF6fD1+T+IcD+S2C444z3JoT95mUDZtxS91ksj/C7YlynOsvC217qVukwh6t2cfDYW/WtC19C50qjdMOHUDJJuPk7aQYC+PHm1ZwmNQ2Kbav0W2tw70p4QQsyTGRIv4y0t2mGkwBsC85bDYOe0zLn/kp1S2HWSB6Qa7FPNl73HKRBZWfmJz0GBLGkMmQSrIy99BVDs67LTuDmj9N6YoAxZcjDLtrcmS4pfJxA/l1giO/049dUfCIKQ1R982sbg/RBHqonzd7ByuKrcFuvgwh7pR+PEOxxT2vheY66CbFKBwVHuGgAic0ukeLcEczHnC4JJgIdaE8YiNCBJR2ukEHzr9hkAg36nKvXONId2h+xTuhmqZ4cOhqrX/PAR1PlJiCJDSIJQ2vb08UU0z7cs4BI2ZyKNYXvEJwugE4xZvbY0BcoX7zNM74DJfnjdgFl8PSoZCL9SicI4dxcNBp3/M9YFIMvkuhX6yAFvN6LeBJbZNi+xo1L7el0rUdjCjBBFAzuB/3q3ymD+evVoJDuPt+AjiaabberqEQpF5hM9ELszOqhnViFdUnF4t3P7/juXvIaj9Dwf46Gf0+ABXp/IpFtBhtW2gUUcKGLqtBPA9ox4E8T3AYB3rK87LGVdcC3bIX1Y0N0+DiZ/sy66dfXEdojHUIgPUerFTM9YiJ5A5f1ZqwAiIEUgjUeoxhNynmFivX2mtS26TYvkYncXtTDLENaEdFFLIbmsOktQ1pyDSjtihIjevzUEhcogNfnHZx73RiJMnq3MOMYAhqgR+dKFmTYjuiL4OxuF22n2AgzxMcRMufrsJABjMCRNR9CQ1ByDIxD2EdwChNlxRHhINg2lAi8foveR6+7fa6kqkaPagU+O0Gqz2K6KQYDYan7TWpbVJsX6NTqOVCcT02/0QuoRuvKrw2658+t0mnQpnmRJBAtf6KInAfA/9w6mWFbBfrdLniVGIkyerc65VCreud7lD01hp5M9FpFsfoNykmQ+nqQbCby0X1+dELBGcK0NMBwclJXD9JOrhCJTmMgtQNT5BYIOc1dALDdfNmvrvcoYCKA1AWw2zqn83gwHvjMZnR6e1hAWBSLIQ3bq9JbZNi+xoN2l47IH+lRxF0M73M9+moQ3Rlv20PQ0v+U6HLMryb2Zy4gvpW79wMLqgYHkh3Alz7YQKxX2+wwJH40MojUCg3A7E3jBzggTpgIO9PcOGbpAywLGP4btrgMn+J2sPIrQAaQ4P0LecdOFeaorLmb+CRoTcpFmNrK2lpW3Amo+rkpgRExAQHa2v+D2/zN083uMmeYbHiQCpEqA65JRZoh13u4AssoNHKqRQ80WY9BpjKx4dp/MRr8jCWC7QlLD63quLHcrsvHgP0SNzz64ZYcLKBfEFYrvlf88FIDZIwVwQ0nxLwiUYhNv2Ebr8a67peXLRs1BH+Zgz7lPRagpfAFnhtsRT18kzvgGcIW0eHx/jRyhRiQzhiikFyzKEkHNAsOBOLrsRKriwWnMuoc3ND0npZqwRjt27VFsuVSKSj9MjGeqdEMxDbGUHq7u5EjTc9kKzSf56p1JolZuwyEjZu4qq37xaoGOUtFoP4CaRNMeo9fCAjwQkftc03an70VOYUBiam2G29QpUpsEXCFRpcWtvNsbhCpt09QVBDYLPlpqIcWoM0Dv+DQ3VanNFfCYuvE2SyERg/oO0PMK0afEkT07DIF6xomxSLVn2lUOILVoyGOm8fWC9rVUTTbamfmPRlmoN9LnQt4qNuaa8XBB0oHCiKOnHQqMbeSeR2oyZqEO2TnNCOJX1TnQKdrtQOc0VRsVRUWckANWQCfY613JG6EYMYHe18icpud06Qzz4bJTkjPsxI5w+3xIanFlmIXG60+tnjMgrRrfYNRU5QoBAhMhKerMVpj5oUCwFRqziVWjqpbVJM1UJis9Gg7d0D8DwLnP3Li9AYxexG1jDpu3U3AWPHUVsQhIKmqQUyuA25LPf7Dfr6VOTzzoYoyCE0G3zrUCPPWCaW+tonHMg7ExwBHcDCBpKmE5rqT5Du1eYAYPYME2iTrgnCvb3QK4K+UHKmA4Gou30WMZ0UC5FJHUNfiqXkjEbZR3j8DGbsTxpZImp+x22PoUsvamrRId3O5Ou1+OxDyAyVCdHOWWzELtf7QBUD/3DU1AGaEj5klfJagLvMjA9Bwj0DX0hpWrdBy8G3BDUXVyxtIzvZQD6E4PpuQ23k8yNKDj7iPhIN2daPIFt0gZ7QOCbGKVSyLtLV+UQGYQQdNzhL2ZY1KeYjIBgFMV/iVprMgs4aLesjRtFR8h1QSf0PwSQH4HheERXnRUFPKpdmOn8NOdaFAHa5Xg2mL3A/4H5fFr9kjDH0/NSdlLzb9D7G5YYnhxv9jIJFy8G3FDVhrkY8ylIUrMyKQrb5CdniFQgHJ0yMU43hrjzN2JngZMDArRS1x2BrKFAA4Wg8TfiGi1zoNIEnuKC+5CTHj1kIiurTdGLT/GHaCgoSDGGuItB5ACbFnG2qkWMwqW1SbF+jjIrcs/IgOEOrSe1LcKMnKMCIUkz4STT+CZM1KcoyyQ8CKliCgtDf1ePogyc1FeG6iaO5SlzZI8SgjgqRX9njDHShHDxW1LwbkkZNKq4GoLgJ3qtpikgZZEpkIKwPRfUj+d2BPE1w4U4g29cbg3YzEJrS7lm4d1E1EAzNg4QQKdn1DYrlAoPVdhjcFn11t52GPx7eFMH6yn9yzpHxK5VflqVegJE56OLA1H60LjbdXtwr17V9yqggCM0QuoAUPPvFijSBgTOHnXXb9S9V5NrAdbHnSXaPquv4F7XYj7pcFF6JC/jUX9GINvxNVfIFvcbqhdoy0YZeBN8Qte5GCcuHQkJzj+kAAAKtSURBVF8XbZ1tIL9AcMZbXWs3bQQ3h/QBEd5NxHUtv7hK/cGjkjRoixxU8msKo1MftAgaaPyTlp35/YczOHQH33hUgN/fTYSBVU0h0eJxZqOAShhTM60mMopCuKQgoMOtaqnQ/FL9Fq61XsU1mufraDj0z6Ph6qIyCd5bwMf1dPSA6UH0OCqMl6wNfayN0J+QHI4fHpMK0mofEWSCRqyK8LAS8ydrNqzrBjtUOnggTxOcxLfHL8bJsNx0kqoP/EDrNn3KaoB9xEW7ReaRLrreaVebQK9Zhco7KwI0JJv+MOcsX0z4AW8VbWxankvBhkh4Su/mzyA0rowlgSmeHVBort61WYiDzu9pgK9SbA1OXMWbErGr48AJrAPe61UWzmk5mO7iR9F4LLAsiH/xIWQblnDBIIP2VAP5IwQHALegM+FTb0iWCmSJk1DP7q1qe0ACoWdlq1QYatXB2RCgwe0vLV/xEB7tH9Wd4Ci4po18IcbHlUVi6tereTzgRm1WzfXljixlGC333FesK0JBOcwByByuZqQyUgH9FNtu6P4HBvJHCE5wq99C4HMI4ENbKaPAim5eoN6uVFaZicSUGrwc6f2h7D4/mJ0SCjW+7KAI7ssatMIpBAoBQ6AIzrCoVCFQCHwZAkVwX9agFU4hUAgYAkVwhkWlCoFC4MsQKIL7sgatcAqBQsAQKIIzLCpVCBQCX4ZAEdyXNWiFUwgUAoZAEZxhUalCoBD4MgSK4L6sQSucQqAQMASK4AyLShUChcCXIVAE92UNWuEUAoWAIVAEZ1hUqhAoBL4MgSK4L2vQCqcQKAQMgSI4w6JShUAh8GUIFMF9WYNWOIVAIWAIFMEZFpUqBAqBL0OgCO7LGrTCKQQKAUOgCM6wqFQhUAh8GQJFcF/WoBVOIVAIGAL/D8+4LCzKMTNEAAAAAElFTkSuQmCC;" vertex="1" parent="1">
                    <mxGeometry x="320.9966870117188" y="176" width="416" height="140" as="geometry"/>
                </mxCell>
                <mxCell id="10" value="" style="shape=image;verticalLabelPosition=bottom;labelBackgroundColor=default;verticalAlign=top;aspect=fixed;imageAspect=0;image=data:image/png,iVBORw0KGgoAAAANSUhEUgAAAWEAAADJCAIAAAB9pRS3AAAgAElEQVR4Ae1d6ZmzvA6dttIQ3byUkx9fJ5dm5j5aLXkBQwwkGc2PiRdZlo7lg9nMz2/8BQKBQCDQRuCnVbUsy9KqWy1fnkdaLsvz+TzY4VJrCQoPerDq3uuVaFlNDUJwDIOauigLBIYg0OKI5/Tz8zM9d/exzI8dDZd5esw4K6A/TT4eE/MFqls3A0W4qTHXKDSlRfI5PX4e6x0UbV4raCLbrHitv2gdCLyGQIMjDsYrMQTM8PyvYaXOZE38QkonbSpuKPhF+TpFJDXNxg2CacpDd48fYBVzvAcjV/6ccYRQLv2Yl3oFCCoYK1ZFVSBwGgLAEbjOf9o/XAw8JltUpouVfDvM24EObWASCRnILzmMs299jvgGglNHQxRFucdcOpeVWF/ZzcQTJX6+daITbAqE8ASEISF/7MayLGKS1KTW4tw9v+S2IzxvyPKcpwesIvEvrQW9VG9ueVplE602exs35FZcQNTF9vx3xelGT19VDByxik+OV8pnc5e0FHByyFcjHacBXDagmfGYnzjdaHYAecFMyroR9Gm8kzWU4u5bHuXW1ZXkSivHcm7YsE1s9L8y+xEKVCDmkDZVhtZrziu5KadAicneDpjQilriCTl79MIdOe3u50e11XvuUMYiqrOqSCLm4f7Yp2qL/p4/XbJyrrE2q1vu0gCUWK7pkmHR4HIJ0FWXoF6wR7cC4EMzU8tjylYHWm18gA5Ko43AWnKx5xtrglwHx9k085f58eCjIx4yUw06kFYpHZrPFMHVQRqZOlo0GNOcECFCPIguT2ftixnIQrTH5R4XKNSyHnI79nT6RbIFRxAuGVirDstBxE1YXG3jwcVPVrtoV608Fj/ZiT6OW9JKFwJmvomBbZyZMuGxRuNLO5FqLeAFlNNhKvuSW+cZctZh/KZwTNOunWqYRlPmkiutydYHHdBLXBkn4yCXUNtmgxV8i5ZIr5aCVhrnVX0ukJQHnMPyiAe5ER+dzziCYPHTWsJcf204CI6TWWy2g7525sAakCBmYhU6HmWRgnJpELMsnzI9ZjzTr5yglPJ0KvNiBKQIXPPa+Y1NkiP18FkR0i63dNQ17yul5Q6sD2icdsC1u0GyjFwc5F+XC3D1Ay6hJBvY4ePrTKPqs5OOI2hU14O9ODl/TnCRvzIFc2AqYc9LkOmJS1OMPyqanmqLjBs0NxFadogCE9CMNLEWlPJ0KlOTte1cWo1CjPKm6KAx0TVNGRTbBBkE8g5Yx4XriGT1fo4gPxs+GMW1JAO9DWatcbOMtHYqPceEpm1vXGE4QifACog47rVhx8auAp4ISuencmnUiHCoF89HIFqkb04XLfMO8nx2E3R5TrM9KFRIrH+upumKTj2fcAU/n8JokE7rJ1xucAZoEDQxVIkKWLbunjT5txIb3iwSt6zu67dyfEHD9bfM04RHpK3Gjfo9Lrxqf8OETywWjhD4Zn+0zl1qxje2t5MCC9wIl231qh+cb5oLXulKAWhBJS39egL0lNuJZDJ2ZrsvFPzKfDcqqkm8DpLde6toy66Jlt4KlljzyjpCFL3yC0+v1f9atxnR5d45zz7aAdhhrVzhIpA0qkipZncoZNEdLpCoUv7+vr6oBXCEDAmg3xPAtVEqJg0qcpJlyS8/A4DT2z14BUbpPUJ5wshp40HM5poJShLQNtC7qe0fQtSTt+xwt9oOuq3gUFrTJVQ26y4hdDL0MJu7KiqpRatWpOCXb0McnWDoOqzSFglH6pTKdUBtj53pPS4gFq901mnTB4j96K1CmpMwECuXLOFgWR17hN9AinkfUEXY05BtxCkpbiztTYcUT65H0s8y6Fi2Gugan8JsaEVW6bkEyri+Vago7aJhAsW512XsiUKEZulO1mUiiOojMZl0mUUoDZtTtz/Ts45xqWClpNMFuT5bDfQV9d9aReca6U4FjMRKHOBA1UI3mzS1g2WjbVZcGMBBkg9Y3mGFI2Ss0d6kl26kwZnt+h8TSmpoYsD1jhl5AJ1PV2Y8dcYHi0q4aPnEJ0f+uXVXaDq8P0njsBIbZgWxLrXmC/XiBxsjZHWNs6bR1PW4AOI1I4yav5aU6xHidxqP2vG9fXhDWNNsQDUpi9prZTQcKaQyNdiORixTlh/JeQ2fNLFD8k6oUUz62u5JDfVoGgpGEkVGQNr4X36mwEe8akHNucHVQm1yZ4Jgy+01FknorIgY6VaStGSjTX2vHbxa6lz5pgskPag31/UnZ2oc8fK5BoGM42zeE69xBLy4gAdb6NM9rCyg8oAVqxssd6EE+pvxWYpLBxu/da1WHV1tn/GxTn2MXLWy13Rxha+/9K4jWFx1ceId732im/CMy5HTOeugjLd5a06ul72snnRvmki+bIpZq786XeWI9jhzxK9BYm5a8Xhvvt5jHpbNRoY01E5GsaafI8DwTPeaE1pXd3iB2z9w3abjnFtZktHwS42OXG42hXDjupAaPiTh7n6wqQ/5M96rSfB+Rf7nBqnDLIuTvq0BaNMrITvV9bqQDGNndvaT2n9daixHCOObsE7zv/0KAjeTx335ECKlNBFp5JJiG0lpoqV6P1LY+sCoYzuvVH2kkIUX0XxfXTky32uGhlheFjud160j6iALWSSG5GmVxsGmDsCOQUP4giZcZBI4G9A4nDDT64K25Aa7O1IFX5fo4ojn9JjwD2m9QA9e20yvBVepQJlChpuA1OIfmWqwcH+m27G2Lxk8ohDMpZc55MmGNF+XJy3/5YmnxlUBP6J03jDR+2D0ZLhrZxZJELNyER8PnwSR///gP7OGgXdc+fRK74skI9it5EaqilQgcAsCXRxhb9flC2w9hMBrjBuHVJ0deASiOY8nItmUIJ0VskEFxBu4hlw9RDGn0CGt9dBjDrq6I83SwRJEUafvlQnSrIrNQVQ4QmzmYyPeBMm7xnxwRBWWKLwRgZwjaAOHPQbhhbUdDfT8fK1Nl9CagtPqXrNs0UdLWwYWj7C3BKM8ELgGgZwjruk1egkEAoFPQSA44lNGKuwMBO5BIDjiHtyj10DgUxAIjviUkQo7A4F7EAiOuAf36DUQ+BQEgiM+ZaTCzkDgHgSCI+7BPXoNBD4FgeCITxmpsDMQuAeB4Ih7cI9eA4FPQSA44lNGKuwMBO5BIDjiHtyj10DgUxAIjviUkQo7A4F7EAiOuAf36DUQ+BQEbuWI7EVs8051M8kvWbtN3yjzKYiHnYHAZyFwP0c8eP8avzlLKzc//2d3szBcMj0bFSDjt3z4rCEKawOBWxE4yhG8QYzfgcV6Yremgm2azB6mKobriMr03VAu3+rGD2jRllHw2UD46GiFWmDzF7udlfb+tgnYScds1FaFjnfBGidGaGwgL5Btio11QbqN31sQOMQRFCLNbYpluyk8yNtozxmlwRGkvsIdHiEU25TCxcUHcYRii/vfyTqp2EZrrBgBqzrX4doUU4EhLvhBj9z1COzkiLQBJRFAPuvRAYwRt3MdbwOZH88TR5iwkmlR/GaRi00KigCVTrAudj3QfT0yDtYDgca6OlYMNubkvTsJdNu9tbtLbLRt1oBI34HALo7AOU3kQMuDVjD9pg9/iVPU1jfIOAL2va3/+e/9ksqCDaAYA9TOphHLiOv2oa6AJBRhr6mMFTOXcWRn8ir1U68w/Gtig22T8Inf+xDYxREwBXl9QKHrp/yqF7UGGE84o7G2ra1SDW3LBig4mCN0bji9q84erCwxIsenCT7noRdex4oRs/YMa8/oD7ftIJTRbBwC+zgi9VvGQqqrpmim+WmWcQQtdJv/HSMgRej1SrxiCd1isT0Kop2+16p5a4WXrSMKjAQgqhAAxoo5zzuHtS12om3O0Mhch8BFHEFBlR/4ZQrop2d6zzVYnaETpgHQ6BgBJV3Jddju7SmfeRk8gt5YMW9krtvXaq4plle85oL2F4k7ESCOcB88029CQMJ8sM2ZmQeDq8wzGCmVUwMop4MjqpPjZN5cKUQ+w5HpgyzRAKuRD/LA53fgzievN8qLJGVPZ5X0IOwxRScZElfjMnQx4QUx77DX7etMrinmK151wfQYyfsQEI5IN9rNwbl5d5NnrRzZVs2Xb1lVDuYQQ4YjfM9FTiiE4tDYljgCg7JoKAUVC1YtH1mpRosx+itueUxRXqvc1LOZ18W8k1a3r3G5ppitGG2bsyAy1yFw8rlGIghZAxjXMIh44uKnZ9Lx3x7+tVRUPKfHDAsEmUKJI4xyn0TyuJMjvDmNHFHc9Cy++kkV1l9cOflZSFdjhHUlt6nN2WLnuKvwmbbYWBd8r5G7B4EzOUIIQmI79zCfuMtTvwUIVdqs9mksiFIRAOGN+e/05Xa8TV6mHjCk8wiR0pKxYs57US107CpTpi0mNWNcSD1G6j4ETuMICmsz00sf/cSl6OK5nqpccdIBxf0cgUo2aCTpvi8loHmG4AcYkv1jxay7hLYAa2tcekXsPNucBZG5DoFzOEICZTXYUEgCn6JOcu4eZlZF2EChaAdFK290cZVI78f2snufcknixz56Lc+oKjbyqBhcjE1fHn9BzCCyMvmNFJ0LKf62ZrQLXnfk7kBgD0e4a/N8zU1vgpgbIMIQ9ESeSlBCwxrDkXPUQquK5xyw3k1yCma98AccIa966fULTiyL7Wo/yOqOsW+/lt4WxjF+nBGctGyAmgaKdQ5rp1hiMLQ7va5z1IVe4ELuLAT2cUTr7oe5ycAPMqXZm6VkomGQ47TncJcK9BTmpeOEnEWgkdzTBC5Yu6+ZujqG4oXrCDRw7EuTm9oY/2ycOJsGoVOMIN7sdJfYsWGLVoMQ2MMRg7pENWllAMcn4QN4aQj/4PCTwjNrAVnkCPtAZWGcLitmeJA5U1ZIR0EgEAjUEbiLI+BA41YOZJ6u62GRkF9cN/c9gCXWlg6gLekKhqgPfpQGAh0I3MURHaaFSCAQCLwBAsERbzAIYUIg8MYIBEe88eCEaYHAGyAQHPEGgxAmBAJvjEBwxBsPTpgWCLwBAsERbzAIYUIg8MYIBEe88eCEaYHAGyAQHPEGgxAmBAJvjEBwxBsPTpgWCLwBAsERbzAIYUIg8MYIBEe88eCEaYHAGyAQHPEGgxAmBAJvjEBwxBsPTpgWCLwBAsERbzAIYUIg8MYIvCdHwFc/4eMY8zTJZkyPSTfExffCiw+DvjHIYVog8MEI3MwRsqkMb2hX2QsJvgME39Axu0WYjSFMg5UdLbMtZD94uML0QOByBI5yBO1ctrK7E36HXve2e7hlQPKSN0ADHsC/ecZNKHGRkKSylOwwNZlvcCGJLLyLFSujn8qWVpm+i7Ob0JE9F4udsbvcWBcuHqboThA4xBE8s1s7wEG46QE+bXpa2w0KNa0wjZhZ+8W2lb2sMllYdRzsIdM0IrsBnXRxsZh29/Mj53YvbLRLTqjOdfA7xQSY+L0egZ0cgasDnf+NuYfDzh+r53jh04MiXEi02JWuBwdsWlBEwQh1sZ4OBst0Qff7e4MYQuSJlIv0sz+ARafYaBcGD0Oo243ALo5IFwL4aFPMeenfXD3gImqbN8C4ywtFyfpvwQYgjvoccVTF1jXntSP2xe6E7g4x6tMNglCEvZDTKWa2EV0Nkk5P87GI/PUI7OIImIK8PqAocoG1bny9QQrGtDhppOx9Dd7Rtuwe9Q3mCI1mp3fd27K2E7rrxcqBwRK4QgQjIU53ihFP9wRJp6clklFyMQL7OCIZV4ZMqqumaKZJxIkIh+P8hG/8ug9mmC/pwOb6+WkNqKt8XwOL7akLdpD3Kr13/o5YR5iuOqG7SqwYGCzQu0TCw51ixk85OxENrspmOj21TSJ9IQIXcQSFQT7ROYooiIrpLShgWx9orM6sOJgGQIljBJR0JaL2tl8y3jtUMeYisbwbYYhshneKeT/yRr5Wc51iKh+JaxEgjnDfaXvYv/IrF2TfrnGlY1DJEI4j6ES2nM7Y2M+oTB9kqR1a9aD7p7QQscuT8iLJtVhzb53QXSTmu7FguxqXoaHiMfE1DtGVKivXKWabRPpCBIQj0s1Kc3Be+b5V/7jKjdBy9ufXGFGnZwO+mO7aUtfGtsQRTB7eBc05LRdinHXVCd1FYrYbTOsA2BoeB6pbEfOuOg2+yuY6xWyTSF+IwMnnGokg8o9ukY84qdPctYcxEKhHz3N6zHD9QqI5cUQTuKyfptwVFXWnip6vEkNoYB2GHQqm+p0zKegUc26MdcGpjsx1CJzJEUIQEmalV3lY8gf4uAGFZb01tJQakEs8U/bSvAtSFT29cOzMeVmbKICzMgejsgIi0inm0JM29eODinaKqXwkrkXgNI6gCCvuR3jvUCib3tTwMdGzmlmlNoe46ucIjMKWKtV5UaJzSlwmJiPlGYKfc0igdYpZEMe6YDVH+kIEzuEIiSeZxQ2HMIZKGQotc8Gh0hxkpCX0pvfq9OqDJrhKpCvKNoq++96nnNH92G80LzyCiSK6xQyYwREGjM9N7uEId/eDp6DeAzE3QIQhYJYXfybqqhThXvb4eczmjXCLsvII2wHn0/A6eeVvWVDYdGwVbafVncMaYH7BS+7814buFjG97oN2vfq+xlgXtkcnJE5HYB9HtO5++GO+TiqeDO4nTTSa5in/q/TwQMIRGqi+MwqVlWeoqnihouPLiN8B6wjxxUEhmWTaLWKE2aj3Pse6UB3PKLwWgT0cMdayNHMX8x4TP8UrXSltwJJkmtMuEtA6zS0Rt7+6rJjhmeJ1Wdsu0oFAIGARuI0j8OBMM5fWHRk7WCOVQ+xMX7YeiTLLGdvOKo50IBAIbCFwG0fAWbDOck1smRv1gUAgcDECd3LExa5Gd4FAIHAAgeCIA6BFk0DgDyEQHPGHBjtcDQQOIBAccQC0aBII/CEEgiP+0GCHq4HAAQSCIw6AFk0CgT+EQHDEHxrscDUQOIBAcMQB0KJJIPCHEAiO+EODHa4GAgcQCI44AFo0CQT+EALBEX9osMPVQOAAAsERB0CLJoHAH0LgjTkCt4zZ2ArxD41UuBoI3IPA3RyBr4ibfWYSCml/iVQmqaXyJ3XxGwgEAiMRuJsj/E7Y1rM2R5iNIWQrJ9rSuV4BMlUWsr1FOhAIBOoIHOUInMFruzvhvjC6t111vzmxCHUVs7jNEbLDFH4GdJKvci0L7BpZ/j3Kj4VKx/f8bkJHZl0s1rlXXadtndo6xe4Zp+iVETjEERS+zR3gzAZzsMWcHuvdblB2g9p5nnWm68i0OYJFUKCgFm0vCVhcuJ6l4pbfDejEpovFtDvcpVgGzG6ULYbZDXJbqHZq6xQzPUfyFgR2coTuGkdxVI8SHHy39ZxsxZ7kTYBISNKvTnrSYr8B7gHCepWWuoIR6mIifuFvF3S/vzeI8VikwdF98rNztC7bOrV1il04QNFVA4FdHJHO93mHdRtWroNy8zlq22zAYWnqMYhM3ulvfXoLGzniKEgj17OdH7AvNn/RBmhwFbpOhIeKVUaGJ7C/kNPXaae2TrHtwQmJ0xHYxRHwSUheH1AUrUzh3PKNBljt1HGD1pUMCDInjx1io8EcoXPD6c3928p3Qne9WDkwNBbTBPuJ25VEj22d2jrFtkCN+isQ2McRyaJykFNdNUUzrTHNSBtVyhKEyugE5DHln+JBitDrlU/ZVL9gDtTS6LVqZ6VwxDrCqO2E7iqxYmCwQL97VvKwXpKoVXVq6xQzqEXyNgQu4gie8LWo4ruffMDiAF3SuYdcAbVtWR0RCP5nGoDmjhFQ0pXcBrV0fNXkl/7wt9lpXsEDsEoEje+5V9o0tB3q1PkTmesQII5wH2CTT87hr/lEnzMqH2VXmWcwUmqnBhpVdI+ElPKaATNMDFShGjJ9kCUa4Dbmg37wNWw4PYI/WaHk5l2cJ2cs5VUNuEjMd4PIOtCrdvpGxnxf0dTWKWYUR/I+BIQj0h1Kc3Bu3t2UC9/VAMqcoZW6zGJfSbFie0wnFViXOtDlxL//YN7Dn1QmjsCgtOpc+k2WE36CeEBM7iIx242H3NYYuyDZrLIVK9o6xbJeI3sPAiefaySCKF68kEk/zTDnpyfdH03z2IcYovOccFnznB7z03zLL3FEE0Mkj6S7KXdFhZ0gK/1dJUa8Ct9UxjVXutlMFULEztK2bZ3aOsVcp5G5CYEzOUIIohJmFGTwOXt4OhI5Qg9PPJXzkPUAQa3ohYDbmP8gIuJe0fU58n3TmqvEpB9cnVkYdR6XEEmbgvh1hbGhTRRsiJU9R8n1CJzGERRhzZkJj03zIQvjRYLzOT149mBxcyZBrVRuc4Tr4nqQfY9ojBrv60zuMjEZqYxoVyhCmaDkCPMgiAwp+pRrO9CpwSaSVyJwDkdIBMgsXvWoMYGxuKkAaqUSetN7de4KBGa4SqRXbalWfve9T7m6AIs6dV8ejDVFWqcLvjqixG2b2jrFbK+RvgeBPRzh7n7wXNSbILIq4Ccg8+oklwKRPcZoKYMRi+thqFGaCAHOp+0rIObWxrI0euhEXAhv63xmTV0ndLeIeTT5MVBA1pIGMMmkgyhXuLXAjL5yDqpIr+t4bZ2drmEadRchsI8jJDbS3NSUmc06qbTSJBpk0Cg2Wj0gMO3lnubWfc11tvF6a7kB6wg0waDgksnJW8TIZbiEnIa38nRrp22d2naJ1QYlyi5DYA9HnGQUBt8hjkjX4Cum6bJihmeK0zysiEZRIBAINBH4VI74/V22Hokyy5lgiGYAREUgsIHAG3DEL1xHqEz42M9yY+yiOhC4AoF34Igr/Iw+AoFA4BgCwRHHcItWgcBfQSA44q+MdPgZCBxDIDjiGG7RKhD4KwgER/yVkQ4/A4FjCARHHMMtWgUCfwWB4Ii/MtLhZyBwDIHgiGO4RatA4K8gEBzxV0Y6/AwEjiEQHHEMt2gVCPwVBIIj/spIh5+BwDEEgiOO4RatAoG/gsAbc0S80/VXgjD8fGsE7uYI3L+l3DxCtilqvNS9VP7eGuYwLhD4WATu5gj+SleFC3DrmUq5fNfLbeVEH6Y0O0ZktVUW+thBC8MDgQsROMoRtHPZjinMk7bWor4RVZsjZIepyXyDC3eggM22iz/Yga3W64UgS1eb+8GR4Fgx1om71K/gMLbTTm2dtgl+8XsLAoc4ggiitQOcHM11Q1RM5BxhN6id55m+tvc0n/5tcwQDVaeWAkUwZ2VuFPJnFShoPz/NfWXlFIvAGiBGzmjXLRxU4A1tO2s8Qm8vAjs5YnnOcPSWv2rMEUdkq3uOQm1golKU0a+2QwmVL/3BepWW+oIR6mIiftkv+2v94SK33fZYsd/fnvHir2U4In0b2y4boOioicAujpAVgh5tbMhrFzWOqMS+ynMCRYzCPJ/LF2wAAtjIEUdVLNe1nh+wLzZhYryzO8wne8eKme/h8JLEGSBOj+20U1unbWJj/N6IwC6OgCkIG9YvEuGNmIOTixT4MnVXl/wlI2AJLMvTZ4ItThCLZfdncARFPV0VtRbsSLMvZh9v8neaYM9uXUmMFSPcN8drbKed2jpt2wFxiJ6GwD6OSGaUsZDqihQJV6a0SJIA0YrsfsuN8Ayk5AmkiEmuYuieuQVzoBbHV9Jn/+/r6wiiGWMGFui3xYTrxoo5BwlN6chWje20U5s1YO3LgE4uMvcgcAVH8GyvBSg6beMK07hywFaPeYFL5EAUtjlrpCsY+J/nHzQ3U7F28nEDzvkEZSd1gcWujRXzfua6tTaveCfb1MhI3InABRxBUeinbnKZa5EDKM3nFphxs0d5AuNYc3hqS8TAbcyH/OCWn3zPS1YoqfOLUuSXkBxa7xyrZeiEvVbTqc375huZOl/xXrYZMyN5HwLncwRPaHd0F38pQM1y4CddfMA6mVdwhZ6XE//+w1v9ZmUBPZB67ssqNOmqCWLKmb92Hnq3bI1bc78u5h1yHdkqW/F6p53arAGr17a8YORuQeB0jqCoqawiZNJPM8z56Umfqk7z2AcsgvOc8Nuzz+kxP8vvhq/hh+SRdK+JnlFH3AXfLcZ1Tbp2SRXChGPFnCN28roKvsHwnrZ5SyN3DwJnc0SDIrgYr0ViGucvlfJUxozMngIcqJVKmFob8x9ERLzQdX4BOfZANnSmKiugDWPFnFuienGlkJEaXJ1ZGN/AtsLYKLgBgZM5ggKwMj3hsWk+nKKMBCd8vZrKsbg5r6FWKrc5wnVxA8rmaQBxFK3w09C+iTJCzDqKCChituatbXOGRuYeBE7mCJoEMpnrLjYmMBY3W0KtVDJHUF/m+gMn+RajSNeNWCt9/d6nHK1/7GMjdHLll0A0lUeJGadIcR2DsZ12auu0zYhF8iYE9nDEMk/pHQyegFogqwLnB09bd1B0ApDBoCpFsLge1NLI8AGcT9tXQMytjWVp9FBYUi9Q7iltrDeol/LcAZsHvIjRo61/vHq0edBfdaHftjqaUXodAvs4wryqYeYnJmuzmUOvVmU8RKly/mFxsynUyj1N4IO1+5rrmowljeSIdQSq7nwbcpQY+p2Pk+RzZEd1ShhuattlW2NcovgaBPZwxEkWYbgc4oh0f6Bimi4rZnjeOZ8SlQZRFAgEAhUEPpUjfn+XtaUDeKrnCMEQlYGPokCgE4E34IhfuI5QmfCxn2XnGIZYIHAmAu/AEWf6F7oDgUDgNQSCI17DL1oHAt+OQHDEt49w+BcIvIZAcMRr+EXrQODbEQiO+PYRDv8CgdcQCI54Db9oHQh8OwLBEd8+wuFfIPAaAsERr+EXrQOBb0cgOOLbRzj8CwReQyA44jX8onUg8O0IBEd8+wiHf4HAawgER7yGX7QOBL4dgTfmiHin69uD7zL/Nt8RvswS7qjxGuPVZvT1dzdH4P4t5eYRsulRY9uHpfLX529I/T0EcJMAjiSzYYDstmN+q4HYAxiozWPVdpvpaGyZwlLrNhpzyz6zfsZkL+CIymvf1vYWlIhjjjs2rGOoX8ZzIHLm8Pqj7UkAAAkQSURBVOBbSyP9gQjwJmKyHRHEzmN+lscYDCoJk9VdsiCkYGvEZ9q2GfcqyWK1FdeAYQdHPNJ3Kp9P+FIE2m22YJzhezNZn+eMz1GOIBS3TeR1Qrllu3GnjhiWVjuQHaYQJP3m57L8wmbbxd/jKiiNR43k5g5u1G6sGOvkKGsOxNhOx2prwLlZDFZke5ARR1RQcByBW5rgfKRNzDTIZI5isOFnYciIQi3ND+Ec+ISU/eP5bYvgQ9v8503BwkpRe36InlG/hziCAMjQr1gkcnY3aBGzoM3zLKyZkNrEAAXSKIji/LcYvlzgoryAAbABb9FfAc1YMfJNdVYpV45rbNBltqlV64AcHB7mh/xIi5NNwC9+i2iycxOOQM9kDZovBXmQYaVB2/hadMq4y0rHbaDWENZi00WybHRqJ0fAAkvje2OpI8MhODrTm6CpdA6zay5xrdJSmw/WxrJOmp3+y/7aMRUIrA9jxeDw1TFeYzsdq+3wwIAZ+rl5/JoLHqmL+JAOMFrtUEiI6ZChY5rzgZWpdcpglzXphX9RVdZZEsHWn3qugcYjh/GRMCGWPOQUy65IZE2yIaAxWGkOHRTVJfhVsazrjSyvWJtjutEcqgkNZy6aimAmxWPFzI6ea+M1ttOx2jqg3RaxkQXmbV+PQJ22GXXiSjAjQ0dqmQoQAhlryogcG+vaFg5gE9+iUuSMKXSMLNi3jljmB2xYv8g3ZQSIwiJ0oDKHC0EpKD0mFY+HHgxElH4BtbJ7bOTgrct5Xes5HB+YzE7vepusln1Jy0lmwGmCPbtV8VgxOhBujtfYTsdqy2A8lKXhk7HTwUR2zv+JFLI6Xsrgy1sP/GNxCjv0VBqYKMMeHjNfFS2+kIg+uLaFV6hBNFNtpQh1lDOg0PZ6wT6OSP2VsZDq5LCpsW+rqmnSRrDIbRAqo2EpeQIHxVxK4lZYbKaiXxFW+94ufH0dgUNs4ZAxpwoZ6bFizrH2eI3tdKw258KRDAeRn3A9ilL0ITsgVeBFM72dgBKiGNzGUUztlH9ExnTr2ppyShKG2n4tIZFT6BhZcApHkJOPaU4nww9Y4DUMt3GF6UlXKsDHNEXdoqEcCR4IaO7GZH00GgaNLiZz03iyk3LGK66NFfNO5Lq1Nq+4xLbOTtXIYwn5WKKEhNwPc7cT8owcon41QTclUvZJkYw+SKwBajS+z/kxTXjwouAXCXK5Od9TcMAaHSnJ/sMLyQ/Q7P/ak+oYZNVWZ3AEhpmika6Ty1xwhih2QAe8MkMywQxDJ0Kc5Q4EV8jSUHAbM+6gUb7nlYbZWXB+hsy35goUrsZl6GKC87+WaYt5t7xuU+crENlaP7eIGTN3J8ngn8cE19gpOnxcaoD6hMxp0yGqKspdKaiW8aWW1H9qhY9T+AlucxuTHU1PyoxxFyRP4AgeHQeaULrHkc4E3BjhEgL9RjVJXpcT//5DJjF3XgFAwm89Cu7CmN0kX7xbhBV7aTOvi/ngsbpdja14vdOx2pyh+zIYCXBjGS1aH3mQTYFW9lNX4UpzFRSI692WHbVLUN84de2OajXncUTuEcGWxkIm/TTDnJ+eRCOpFY5BEgfjnxN+efg5PWZ48kwqQXNqV/OSjrYbMtWGYwo1ZHKnPChjxZzp2LEiZqvGdjpWm7VzZ3rhO45uKtd1gM0SSyJBfrjDV8qgsFPsVAjW8DTn8znPE8SrKF79Xe019Z+nTg7s0zgiB90dTGUBgdciE9gELnuMmUKLQAy1UgnIbsDkxlB0XPdLjj2QDZ2pFBRi/Fgx556oLq8JSQ2f56VWZ9rW2Skbw4eT4nmzZGs7hT0BwNRlPr3KPA2GvXbBlynNGSygqIqh7xRf1W7QcsKz7BBKOAJsr9JduqYHgnLeLLX4e/JJ9AkcQQdtcVtHjyCSeY1PtVDAZmA/WASLRVy1SAJqpRI0yzSTev/ruvBV1+RSfDhDqTgVjRWzriECipit4eEykUq159rW6SmaQrbjDLG3rJwTzUwaenmyNz3UyxPNXrOqfVUyqbC9uFJwh8KRjIXLi3AbxM5elDG34kzvzfDlc3S8qPIz0Y+EvTXm1PQZHCFRZ5xpXI9A1xzYyVksNipSDaSgVioB/JU3urhKpL2entzr9z71KGYPhYJJoojRYsY5Dt3qHKM6eCpRG5xvW2enaNGix1Jjotq6nsB+UjPMWk/dIqCuKlPBQq40cQR8rLquxsoYCSiucoScjEPgqhD2CquJRidG8bDkHo6AodI/oHV69YCKvNV8v5IkSNJcZPTWO7BTFRY3JzZhpZoB5NpCDbh6ofslKU5SH10pHB/o6bAG7MZYfNH7Gv3jdb1tslinEVwDRMaoMcWkuvWLrrmRo9g0RVuavQp4OIpu45tdKdZVQBN7PuJsxfAy1mCl8gNfw7dCeZ3TdkZmH0eYVzXS9ORhzpkNXFF5eTyz5oIfApXA4lWOsOdmLfIGdeuatMNmYsQ6ApU7SH5aT5D+jhJDv/NxknyO7KhOCcWx2kDn+ixsjp2/bCBiqEzn5YpqJARexaRo1hXsrxzNnQq8VAlvjqcJIGuBHHV2zBx+EnL2iSLQb4QwRHAk+TFaceyU3z0ccYoBPIV1wLST9ZkNtRXAtTUs+eSED/BdlzXNIvl+CMC8OTqEGEaV6FpSgJTKn7MhBGZVeCsAriaY1YOcVJMEdmJ4mRqkixJETPKCMwcnbw1BbXX1XTxXnHMEjhHBAp2nJwbOGLxP5QjgACHxBi6IKw1fMEQDo08oprnVfEp3w4UGR0CrFCD5+T0egWrXHfPO5DiULk7CiUg9MlN3zDrmR0jsOU9JlekM24qQKadD4cZEcPIHMm/AEbj/RgVWxP9k9w8gFk0+CwEIo0p0Xe8ELmzLeKbistwZ2CXkWgzMvANHDHQnVAUCgcBgBIIjBgMa6gKBL0MgOOLLBjTcCQQGIxAcMRjQUBcIfBkCwRFfNqDhTiAwGIHgiMGAhrpA4MsQCI74sgENdwKBwQgERwwGNNQFAl+GQHDElw1ouBMIDEYgOGIwoKEuEPgyBIIjvmxAw51AYDACwRGDAQ11gcCXIRAc8WUDGu4EAoMRCI4YDGioCwS+DIH/A3cVhCQD2/VrAAAAAElFTkSuQmCC;" vertex="1" parent="1">
                    <mxGeometry x="23.003312988281248" y="385" width="353" height="201" as="geometry"/>
                </mxCell>
                <mxCell id="11" value="" style="shape=image;verticalLabelPosition=bottom;labelBackgroundColor=default;verticalAlign=top;aspect=fixed;imageAspect=0;image=data:image/png,iVBORw0KGgoAAAANSUhEUgAAAaYAAADxCAIAAAAP74SvAAAgAElEQVR4Ae1d2ZnDKAyettKQu1mXk4ftZN3M7KcTCYSNY8c5RvMw4RA6fuAPxg7++c2/RCARSAT+DAI/fybSDDQRSAQSgd8u5S3LsjyEz3J/pOWy3O/3Bw0uUUtQ+FgE5Ar68kgkm6ChZ5EUQvAYBpG6LEsEEoEWgR7l3aefn5/p3jbYKFnm246GyzzdZpzkYE+Tt9vE9Ifq1t1AEW5qnDMKTelIUkO/Yyy3aX6Qi2Njqr6u7lbUgplPBBKBhxHoUN6D048IDwir/us4CHaQrjTxCykluVLcUfCL8jHjFTXdxlEF2JSmy32egMOVg3/vkC9ZUIANfrp/zjlCqJa9zUtcAYIKRuTsd5fxeKJvxe8ONaO7CgGgPLySu9s/Xt7YojbdXDb2Z21/3kIb4AThNvmk+C37dBDxDURooKGINp9N2+U+TWbWcZiF9lr8PFjlWhWbAr/hAhIS8sdhLMuC5m9z+dZoHHxNAYXt+Ns7gl8P8P2Af2Wl7qV25TZt7tL2u6IOURff68+VoPc5kNJvgABQ3mp3191f8tXqg7Q0o4NncJn2Jmic77DlRhMd5zls6eEfcDFQb2VGmtPwLd5Qis33IqLquGmtqslbR1iFLRLHup9CZggFKhCwSJsqQ+8119V3ZYVCJi574wuufRmxm9KebFV44R05Mhvb3KEGRddDkBFzc38SkfnC22s25d8NgeDCdo2keu73xuaaLhllDbdgAYzzWIJmAFq8zWY9BfyIdVQ12br7XdZVwKT3eVr7wyl7ayTqcb/s3OJDs7o7usy3G68dgTBuluKwbqf2Xs8cLZdL+9XZr4jrNxvxu+7PPuhFb1jtUzcSAg012wnylXs0hn2+pvTTEWgoj0ZZ1ferbshXvOMfpCLeBrPc01wNg2qyCZOqXC3K6rNopU20mW/PYhvnJoxaoDysIV60fku1LQvTnfahbLApYEjYJE3cMZFHxO/CK/ZpSeVIslSemyq+3mjx1uLKBk2AXEJtuw1GHKWBcUiF+d5cC4Gc9YCT9cNL1ZFAU+Y6BCrK4zFWr5DM3MULz+KfDIsJ6S2at77MDyrQwxqQ7/heAd0iraYMypXmVZYZ8jbTbdYiJ6628lLTfKLhogHWXHDN3chBATnpY4xyRR01Mfm+3lhITcbVobqHC2kxCsFTP+2gn90NWidPUIGO8133FXWw0PZLbRmYOyJuA8iS90PAUR4NiWjGujI/1e4TPFGCTX1FHWzFJFDNC8TpjtdBOLioaLqrL6IUmpvh1xpEgQlYU5pYDyp55Q0bGav3jmJDrlGnsFVtBtsZF615kw5NWzc0XRtgJReu8ozbFPt2eNqE4uzEoFKrid02V7XtY23u6x0BrxvP2jdBwFCezueVXvZsYGLAxm54w4O1bmlUt+WZS1tkUGntkr653L+oDdT56mmV5T7Num8GflbyaM8uZnUnkEXFGfRaMr8YFGwMwqLWhcvzScrusFXnHFCwahy0wiaGhGyDp6cRQNdHqyZJfFw+VLbTZqjDFO5Rd4r/xnYm3wUBoTwZDXNFPZWf3ZmI7e0cxwKlClDTttUbALDB7C4dRRa0oJKefnPJbUiLjVnzlQIwYKvROykQ66HTiEilTShVFPQbSo2u5NYSFs+qI45m4SHw+M8+j2OtYMgeM1vt04hghbCXGMrtsrmtcYc6Eq2+1bYtpMT7IwCUJ/cfYIbxWF2biOE4wCFip6ihDUahLfmlx1HoKTX3/DI4pQ9zyIO6Vj0vqmo/DefQoNU2YN3UVlm/RsSmIKyJuiMHwu22DXCo1UffD63MkRL0rkYP8wYkZ4Ba9GqtqDyxotjbyl3pcZtDasfVYR/V6/ghGyn07gj8yHUc/8QLqcBe8JllFD/pMUR5OLr8/GimOo3AaN6ZhiiEN0f8DKJye+mIrtsnSUg/N6tqmzjbNeI0w5I3jDa6TLaESr2O9k0oPBYQhyjqpsxH/OKhRGi24VRuFb6L7/dU4uvZQZvrSkrtsDoSjLu+qMvURyJAF7blCYOKGeqYcLpGMxEHiakIBIMiUF8VQ9bNKx5+9firDfp1GvtNbdGtSi9arTlG7YrNypWChrOOGXi8Bv74K2LGR//wCT+DirhFksSy5WcW2NwWFntvkCJMFKLQI+G7damwaVg4YjNsGBeOqiO5esTFOrP00xCQvTzxO6SCihraORzeHaiHDKqu2+LoKjMEs5UMDcCqsF5nMXcWTRyQnLISKZaYg0+y6bnXihl1LFphhFl+EKwGQlxzC8u1Qmv5ZWmKswG4+CNDZ0WkCI+lNm2OqRGpQXXcoyfGIQ7k5xsgEFEePMXU+YNZGs5gHCZCSzRmMGeOX4ooD7bx+McOMz2pUtMMj79mveUMIpCgvztMW/EKfFifzRPf5mWjRhs8n2ZuAVt1Cy7oZsQMl2/uio6jpo1Jqub//HuQlVUeC1ae0skG8NR2XfHUPGFiIHHWnsB3ck+o36nOg4HMegiqgGLpRapimfhMBELKsxtiPiyewL7Q5/inRjBihDncbyq8NObML4KqgUYapjvadXVY42Y9yDgRa6mtxIvQeZrMT0KJztlrXKepAd9+wV0++cGYtdOmlfSt3mhN2CurY0IsQFida42eVOLu67J/ep/X3NpVl35+tFoTB9wkyGoAdgU3GkJRysEccLvoytT7IXAu5cm9XzNIC531iY+byQ+C+E6KlJYH9yylxQRiDDuscRjLIDYTFKfx7QarOzxQ1ATQngJA7VUEV6c/3d9lOPtNpjeZsbwXBWvhBxolnEb3eQUxyMJ95ZuxRpQl6OOAnz2UdkQ4GoKq5AYbfaDimfg0BIYo7z7xj+xxRdQMBlgvwWNeNMJDZlPi8wduarEyB1wl3stzM9aWjEViRMyVH+DKhXi5qFzudK0pDw6XRRH+gkxZTntMuYwpVxap0yxnPf0Hz/NAlOyWtIAS4M32T5Y60gIu1qRVeGXKYZUw1L2/mKAut4PgL6KQMZ+KwBDl2af16qs5/YKHg0Hcry1aP3Wy4/qAxzPe6vSyzCtCPaUSFdAMwAuW1QUE6ecFR8gvRTHff/npRsc0hzq9VeZ7YXy2J2aF80zEfHpCzGpoIOc49wwPkbKctD2W6UTgEQRqysOnLOLZ2FGPe+yduqhY97aiSikbEhLhsz5jo/TciT7GEwuNurDoD056LZrf6fUE/0J5Ut5f6OWLY6wp72LzaS4RWEOAHnPc9RW8pi7rEoH+G84Sm0QgEUgEvg+BXOV9X59mRIlAItBFICmvC01WJAKJwPchkJT3fX2aESUCiUAXgaS8LjRZkQgkAt+HQFLe9/VpRpQIJAJdBJLyutBkRSKQCHwfAkl539enGVEikAh0EUjK60KTFYlAIvB9CCTlfV+fZkSJQCLQRSAprwtNViQCicD3IZCU9319mhElAolAF4GXUp4ePOVPXFrL8clR7kR1ynRDzIpEIBFIBASB11NefLZme9omlcz3/+zpfYYdp3unAmT8EXcSfH4mAonAX0PgUcrbPMnMHpQMhwa3530273NU7DeUy5sTp9sPnOnJByIv8K6NgCnh7M7POnMTDkLlI6bxvOUIOn7j+nliBP4G8tJDm2LnhiBm8zMROI7AQ5RHI74ciF65IYcf4xLMTt76dFu8sG0XYKS+La/NwOvWNqVw6fdBlKfY4uHysoptDnU+V4yQVZ3rcG2KqcApIVS9ntlE4BgCOymvvKyC+KwmMXQGh7w7Fp5fGVGvtgrlmVkis7z5rCYiNmkYD1Q6wVjsGGjPa8042AgEGhvquWLwqpEZlszyZ83bWIfEzvbNOpDpROAwArsor9xukJeRhZSH77SpPaO2fjJVlAcvC4v/+JWv7nTchtzAIs43Sw5nLPKue6NYAJIwnl3QnitmtkBXu5WsAi2uiZ3sWz2MMp8IHERgF+UBo/DqjWaiZ7BVV6IGOD2QoLC2ry2ohrZtAxQ8mfJ0qju9q8E+WNliRIFPE75XTeyfK0ZfFCPdOtL7p/v2IJTZLBHoILCP8oqSdmiXujBFxCGzlkQqypPrqs6nIzhkPL11QS+h/aUbIk4O/fRWQ/fWCi9b5TUYCUBUIYGdK+YiH+zWvtgTfXOOZiYReBCBiyiP5ki9LJMZzRek4xe2rM5wI7MaaHQEh5Ku5EGgLmhWE0kFj6B3rpiPq9btazXXFasrjoWg9jKRCJyGAFEevhRWXrnqPqfObl09tlcdwoEfXIdCOS1dUJ2sYlpdVXWlD7LEaiwn7/GGt3abB1n0xYytgaeXjCDsMcUgGRJX4zK0EXdAzEfudfs6k+uK+YqjIRiLmUwETkJAKM/crzNrJ2Gk1pgf2219KaHLQiGlUu4uQ0mds9xkhBFVVgoK5eEcaxpKwSsXe+q0OKOfEoW+PRy/ZFBeq6g1Z23muJjrELr9I8tJX2Vz1gVb7tqf7ZszlJlE4EEEnnxhW/jO3W0lZ3FOMA/RC0t1eWYXZ1ooKu7TbYblmzBCobwuCMiFr6S8rme2ghh7uhNzSHj83VC+fs4Vsw44ynIVPtOlPL77e1YI3mrmEoETEHgm5QnfmbnrPK55aLnfC6uVGf67BFekMOlEL+jZoDMQEXHnw1tlhEmA8F1ESnLo7rliDgFRLf3gKkumLyY154RQLGYqETgJgadRHs3SVaLxPESThamrVLniEjQUC4eB8DrloZJ1kaL6hSkBrYqHiov/54rZeAltAdbWuPSK2PN8cx5kJhF4EIHnUJ6M+9W5g0Iyj2kSSc49QFxVUaBQKNpB0cqhAlwl0vuBuuwhFdnO+7G/L5Nfrig28sQ1/MD4rtEcEFMdYn8TqhXK42vjJ/hm3MxkIvAwAnsoz9115O13vb1rbu0K4dFz+ipBCZ2lOG04Ry20qnm+DuvdRKRJp/cAgPLktAHd++PEslhT+5HScIx/+7WMtjCB8Y8cIEhLbqjpRLHBbh0UK4SMfpefWD8awihwKZcIDCGwj/J693X9CQPKEYWRSkp4A+csshjPXqlAt0GFozjSWWSgUTlFRR9FDmMupsLqzcILV3noy7nHkGxqY/xLF9lU6YRBMUJz0+gusc0eSoFEYBiBPZQ3rHRAECmMGW/Sa1T43Tr+BSc+lRagHimv88wgmddF3wy/1ipTd8C5FEkEEoFvReBVlAfLgLJmU3RpMQfLjJu5UuZqc0cXSC+4j6t6IFF0JeE5YDKTCPxhBF5FeX8Y8gw9EUgEXodAUt7rsE/LiUAicDkCSXmXQ54GE4FE4HUIJOW9Dvu0nAgkApcjkJR3OeRpMBFIBF6HQFLe67BPy4lAInA5Akl5l0OeBhOBROB1CCTlvQ77tJwIJAKXI5CUdznkaTARSAReh0BS3uuwT8uJQCJwOQJJeZdDngYTgUTgdQgk5b0O+7ScCCQClyOQlHc55GkwEUgEXodAUt7rsE/LiUAicDkC70l5y4Kn3c3zNMnRwLdJ3wWEB0eBiPu7HLo0mAgkAp+HwIspT84E5dPi7Xm8nL7dbtM0u2OPzUF4psHK2y+qt+d8Xi+lx4lAInASAo9SHh0LvnLWMJCZefGBW6QV3/l0caA1/JtnfGEFLt+KVJWS846nG54kqq+4+F34TGVWRh/BAcuVvouzm9CRPxeLPePo9nNDuLib0tyXIvAQ5TFR9Y5Xh9mjy69Ce9HZxKhphTjXUMe2wcnKVRtYEz5oodJ0RnYDOjFxsZia+/mRjYQD7xiiIFTnOviDYgJMfiYCBxHYSXm4dlM661AJjmJ4F4++AFreONiMfhJdfYdFL0Bs2jBeQ3CxWE/pE8uHoPv9fYEYQuS/F7jIvR54UOzsEJ7YJan6LyKwi/LKJhqvBRoKEwjb91JQ27oBTqO6UJSsfzbkBuKoz/FgKLauua494w1ng9C9Qoxsuk4QxrOboINi5pUjq4NkMNK6LzKfCBxEYBflAaPw6o0mhZsn657EDcrcKkvHTsreseWX+bTmUd/JlKeT0+ldj7atHYTuerG2Y7AEdlehJyToQTH62hkZJIORtkhmSSJwBIF9lFcstTOg1IUpIg6ZQCLCs2u+32d3L8K9fnvG+xT+6hfUBe+xxWIriQZqq2J98POMVZ4xNQjdVWJNx2CB3v+Wr5VBMRMnr7k7ux9GcDBS0yKTicDDCFxEeTSq29GP5TSrGraSmIyMK3KrQWY1UOIIDhu7EtHxsk/CQqik68ZFYrUZIbyKsAbFfDR1I1+ruUExlc9EInAAAaK8BR4oCf/at8mSsV3DlFYILeHxtOLZXyabiweLPUFU+iBLrIZe3ehBF1oo2sVju8HoDF2VGYTuIjFvxoLtalyG9uu4T3yNA3GlysoNitkmmU4EHkVAKK88VeIWTxFNoanxYSpPrIRLLVQjNZjx5Eb3I4KFG3gpooXymAt9CJoTO49idVK7QeguErNmfAfYGu4HQnxFzEPkNPgqmxsUs00ynQg8isCTL2wL3+kDK85T5KhCRXaRAXLxZLhPtxn2/lrKc7ptprJjqy5Px0E1blwlRl8T053AFkz5BpH/XsHFNPrVFXNhnBuCU52ZROBBBJ5JecJ3Zn5UXtbT59ddMtFkjFtDS6kBuUKblQnKgoiIhwIXFp5LBIe1iQLYAnAwKhciNoNiDkdpE3/dqeigmMpnIhE4gMDTKI8mzAbRoFDFVtTwNtEvOKpKjRSmiXAYtOjJUQOcVOsiqvnpicEZfpmY9FQFIhUX0AbFLHznhmA1ZzoReBSB51CeTA8hpY53OCVaGZopZrMuaA4y0hKs6UMVunOnCa4S6UDZRtF3P6Qi2wc/t0Jvv/JzGVPEuwybYgbMpDwDRibfBIE9lOfu6zKj6G1ec2tXCA9Iq/kzkyhkPPcD3Z+b+dWaQ0xpkf2AvajFPc2nmWVBYWPYadrMaDgPawBWMbfE+9C9REz3TNGvo7+xPTeEzc5JgURgJwL7KK93X9evyJQjeG67j8IbxFolD0sLMnBD/hRWu0WnsEBl8ChyGD0qenyR93vCKk9icVBIprj2EjHC7KyTVM4NIezPLEwEDiCwh/IOmAmaFiJazE/p+adKIq8sCAtGOKhAdsKhdaEKEbefuuib4YdT67K2XaYTgUTgixF4GeXh0omIiFaFFdlZzJUSLXEtSn9W1KTNYtO2MxKZTAQSgb+GwMsoD3aQlLQ08dfgz3gTgUTgWgReSXnXRprWEoFEIBH4TcrLQZAIJAJ/CIGkvD/U2RlqIpAIJOXlGEgEEoE/hEBS3h/q7Aw1EUgEkvJyDCQCicAfQiAp7w91doaaCCQCSXk5BhKBROAPIZCU94c6O0NNBBKBpLwcA4lAIvCHEEjK+0OdnaEmAolAUl6OgUQgEfhDCLwx5eGJn3JY1B/qkgw1EUgEnofAqykPz5Ayx4SWSMt5eqVMUkvwJ3X5mQgkAolAF4FXU55/p5l1s0955iA8OViYXs4VV4BMSKrWWqYTgUTgTyDwKOUhIa2dNYzHeurB8eFh7gIw6mpIqU95ct4xHBtfDoNfFnjDRPt3A6n5jS6QN6EjXC4WGzwIftC3QW2DYjJQ8jMROI7AQ5RHs7F7vLo5vR3Ob9eVmCMe+26eeZ5nfjtPoaY+5XHUKNAwZQMJLP2c5UbiyoIN6MSVi8XUHL6gSTrMvvJMHLPvBuqhOqhtUMxYzmQicByBnZSnR7LTtIgHPY5ld667vCOwyJvxLjOMPpXDSEt/eYb1Ki1INAQXi4n4hZ9D0P3+vkCM+6J0jr7nsdoQGPJtUNug2IUdlKb+BgK7KK/slfGr/+wscXi1J7tT224DnmWmHueEyTv9v7QH2FRjI8eDDQfWerbzJ7zh7HcQuleIBT3DfOQ3Qcd8G9Q2KLbdOSmRCOxDYBflwdubefVGk6KhnL7xjQZY7dRxg94uIMwZJ4+msdHJlKdT3entRxrXDEJ3vVjbMdQX0wRvhrPrvBHfBrUNisVQZmkicACBfZRXDLVjttSFKSKODmuQNqqUBSKV8QX0dC+bfKgeGW+SHcC7vO2xIULU0rEa+hkUnrHKM2oHobtKrOkYLJjuvDBtv1Z0Oy+qGtQ2KGZQy2QicA4CF1Ee81c0SfgxFV5O8HxbyoWu3AyxbVmd2QVkVoPmjuBQ0pWcg9sBLVdxmXOxa7Su4A5Y5TVY7cc3r+qKjrZBMRdBZhKBUxAgylvm6Rb/TZ37B/WgXXUGB350HaoTiyYQKeUVHWaY56hCNVT6IEusxm347i98wNyUB1lk/bjq6/MrKRjL4KHNi8S8GUTWgR766RsZ931FV9ugmFGcyUTgJASE8sqjJGbpFH+To2U/aNecoctCISUvSVqsxXIFi3Vlwuli759/cYlhfCuUh3PMqnPpN1nsDUJ3kZg14yG3Nb7bxlZ5K9qs6hWxympmE4ETEHjyhW3hu2ovDp7GgEeJf36mGShsutODLIWW/FTAUO8TLjrv022G5ZvwYaG8LiDIhUV3V+6KCjvfV+xdJUZfE9OdeEww5VviurD2jvZ9G9Q2KOatZi4ROAGBZ1Ke8J2ZRuIxzZmfGyzqMI10RKXMTJgJmpIKqJVKmD8bdAYiIi4+vOqTotz05ioxsYNrZwuj0lILlLRpvsd0/behTRRsiLWWsyQROIjA0yiPJkyXaOC3YbxNiMNf5tp9ujEZYHGXGKBWKrcpz5k4iNjh5uiMOt9Vd5mY9FT1vbHCeEpsLeWZBxClSzHCWtsDRrtIZUUisAOB51CeDGghpVWHOnyExV0FUCuVYE0fqnC7d5jhKpFe9SWspNVq5+dXYYvVwsu4zHqxZpTqYMmtLeTnMqZI6/SeU4zooLZBMWs104nACQjsoTx3X5epRe/zyppNN4FQQKs10U4iHPyd4nhW6aQr/AZ7UfZnu+am7bJ0LAzCJ/y9dfG8pm4QupeIeTT5dzWArOVAeGjI3NVf6f3yazVQUX5i7bUNGl3DNOsSgUcQ2Ed5vfu65vapp7zCSZLqcFuneJXy5OEToLe1B1CQ8bqatlE7YZXHaxoBwX8W114iRgDA3aTSvcFvXgZ9G9S2S2y7i1IiERhFYA/ljercKYdz6SHK6zwzSPZ10TfDD6cKrez0LsUTgUTgmxD4VMr7/V3WFnbQRXpBmoT3TSM2Y0kEDiHwBpT3C3twAX/luy8O9Ww2TgQSgQCBd6C8wK0sSgQSgUTgGQgk5T0D1dSZCCQCb4pAUt6bdky6lQgkAs9AICnvGaimzkQgEXhTBJLy3rRj0q1EIBF4BgJJec9ANXUmAonAmyKQlPemHZNuJQKJwDMQSMp7BqqpMxFIBN4UgaS8N+2YdCsRSASegUBS3jNQTZ2JQCLwpggk5b1px6RbiUAi8AwEkvKegWrqTAQSgTdF4I0pL48VeNMxk24lAh+MwKspD4/fbA/Lk0NzO8fcLcHfB3dCup4IJAJXIfBqyuNj7QJqw5NDg3J3EJ45Xnjl7RfVi2yuwjbtJAKJwNsh8Cjl0bHgOxiJySlqER+L3Kc8Oe8Y3oNbDoNf4PWQU/sHx5tHVl/QFZuHrZNP54qxTnx94goO5xod1Dbo2wu6Kk1+LQIPUR7xXe94dTmNWN/wg4ma8uy7eeZ5nvn9POU1gX3K486ImbLpKXBnZao38s8qUNBOeQnOoDYKRoV7OKjAG/r2rP5IvX8UgZ2Ut9xnWFvJXziFiPKq/TmeVNrATDJRRp/aDiVUvu0erFdpqW8ILhYT8cs+OV4bDxe5F6edK/b7O9Jf/FZa973wNr5d1kFp6K8gsIvyZP2mawE7gxWxiPKCqazynEARo7DO1/INuYEANnI8GIrVutbzJ7zhjDAx0dlXHxZ/zxUzb//glys6ByToc40Oahv0TXzMz0TgLAR2UR4wCmyeLTJhO1MIrmTLPBYmWr2+bAkOS+BFqBPYa/5garXmn0F5NIl/jtwD4VjMG9ko3mmCt6/pOu9cMcJ9s7/ONTqobdC3ptezIBE4isA+yivW2qFd6poUCQcMJZIkQCwpL/7hRni529IeMt4kO4D6uqCGCFGLo1+xOf55fJVHrGncwAK9xyzUfa6YC5DQFEO26lyjg9qsA3xhHfnmxDKTCJyBwBWUx+TVHdN2mmAa13XY6jYvcPMPeM82Z420+4f/mU6guWGW6Er3DNR26qj5hoPU5S+Hdq6Y97HWrbV1xTv5pk5mIhE4DYELKI8mlWei4j/XIqVRmi9kMePIQGkPp6XmcFuIeI7b8N1f+IBnM+RBFlk/FuMXpSgu4Wz03gUWZWizK6oZ1OZj841Mna94L9+Mm5lMBE5C4PmUx/zk1l7iPM03s1j7KRt3WCc0AfceebH3z7/4iJlZ94EFUs+2rEKTDl0QV575aWnFh2Vr3AXecTEfkDNkq2zFcaOD2qwDq/vCXjBzicBxBJ5OeTQJgjWecNg0A4VN9wX5qtCSn38Y6X2a4A7AfbrNsHwTPiyU18Wj0t2Ve1IFUfF0J1YTv3/lhyRScK6Yi8VykavgW6fv6Zv3NHOJwAkIPJvyOozHxXhbAtNIdVTKrIcZIYMmUqiVykHKE/FG1/MLKLAbkrtjfyU59OFcMReWqG5vfksNrp3LN47QsZScKzbomxPLTCJwBgJPpjyaKEpOxWP4bRg/s4EyMrPu042pCYu7NAW1UrlNec5EceK6FFEbXGRLoGjbM56wzFliNjxEQBGzNeYJuffzzTmamUTgBASeTHk0p4WbYn87fITF3ZZQK5VMeYVWzP4dkQxUiXTsxFrp8YdUZL/qxz6uSFfyngSJmc4SM0GR4hiDc40Oahv0zYhlMhE4A4E9lLfMU/ndLNOKFsiazTnFLORWD04AMjhHWhEsjueoNDLUBntR9me75qbtsnQsNJ7EBUqlrY9xg7iUqQB85t9CYLJWeqLYeH+daNT3TTfScd9iNLM0EXgQgX2UZ35ea+gGkxE58UyKqoy7KFXPfGbCblNoJA+fAL2tPYCCBrqajCed5BmrPFQ9eL7IWWIMf91TlK/xOMXgBGIAABd9SURBVMsoYbipbZdvnX7J4kTgAQT2UN4D6kea4Oh/iPLMD7haQ7rom+FHXfUMb+WzJBFIBP4AAp9Keb+/y9rCDnpOL0iT8P7AQM4QE4ExBN6A8n5hDy7gr3z3xVgXplQikAiMI/AOlDfubUomAolAInAIgaS8Q/Bl40QgEfgsBJLyPqu/0ttEIBE4hEBS3iH4snEikAh8FgJJeZ/VX+ltIpAIHEIgKe8QfNk4EUgEPguBpLzP6q/0NhFIBA4hkJR3CL5snAgkAp+FQFLeZ/VXepsIJAKHEEjKOwRfNk4EEoHPQiAp77P6K71NBBKBQwgk5R2CLxsnAonAZyHwxpSXxwp81lB6Y283T9252vfOSRonuQHnpgUvOYHStnjM5hdNxldTHh6/2R6WJ2frdo65W4K/sa5Lqb+HAJ4ixiPJnCgWHJ0aDsQRwEBtPVat2UpH54hIllr30bld20QNqL2tiXz0fv2NyfhqyuNj7doOat5/WHonHhLT3Z6Q5waGf79EUZSp70eAj7SW02Rp3t/br0wcVEJ5q2c2w9CC9w7cyxurcORVYxgVVmUC9wDl3WbzLgN8A/1PVQTvdQ71U4z1es4FKI7Unz2nOyzqT6U0c+6dJ+OjlEeDIkTcwjgkFg+APspy3jH2+SRDY1l+4bVpzd+tNzKsn1emhzCRFwSdg/CAts2j2y1EmyGcq82a3pMGL6oTsWM6kKkrlIdHOCLl0JHaOsiEhnCw4euXyZ9GLSGk+opC1oqDUrThZ6GogJyCou78aHxBFwMNIZSotvjNMl1j+saZz5mMD1Ee9Wc1mFoAV8Vwc4D7fJ5nJS5V00fZdkPTOdpeEvEIkNqrP1cxKc5cLKbm1l9FRP6pcI+OVeAUbQWUXSmmu3odhDPfLEd8shlNlijgC/VefMAopaAeZFhp8DGQeIuaM8LrPmoLSJhWdFnkao1ETycp+FOTcSflwWrevPPHIl4Gwy8u+tfFumNABtHKhS1ZckNOjddjr/f+NG1wWeI06NDjM7VxX9jOlO7R3hg3eq62h7sH3MA3w4MGfGsy7ug340MMICf4cKshiIEVkDArDSq1Thmc+S1W+NO1rep0q8euAfG96hsXtuyfaQat0GGqqteqvrohS/vSZdZdx6GuxwFVqPC1hmCmjS9O7KI87EmEhl/WVwaAdXtQzDYJbldsodzgCfpa6EOxyvRGli+PDnXVICavECObrisRRuxoE/SYb+dq2+iZsWo7ksC927y1l4d6bTMy5EowI/CQWmYEhEDwpIzIscOubRMENvEtgiLnDOholUIr8KMRJZNS3TjAuiQE0W3ydZNQVd+huvml+V2UB9jBmxQXxsStq43bg2KmRdArCBi88nVqviShYQjySrdbY/vSYKme/vs0gPQgJteLMc6yv6/je5owbjP1Rnw7V9t+mNsW1H0ShnYm96n/ECkcX7gNyFvDN/xjYZr6bkKb0YgWbjPfIMHlmVFL/rm2jcuowbcJilCHZaFWKXlF9z68PrDZyosnjWqSfYfJKC4e+NxHecUQotKjvAfFqFfk0SGyQKOspT3sTbNS51bUyWb93e/X4uRW6oxVnrHxDOjs0DemSrJvFGcT3IKUPyzQW26h5qu0iUsPf5KjNrpBVdwQtsvgb4I/3HDGjR0ABSUENh13pZ2SqcgYy66tKack9Yi2X0vY3mmVolcTeBz44AMwTlAI1OL9JqNx9MHkO1AedTFhjGlc1yHy8G1JjOPolXrFjgXuU2juurcdBw8CdV4zct4O1lD3RWK1Ge4AWQU42NXPulG34pg2VftYYkHrMEpk/pp9rl5SJvmvJmBr2j7Ee8fLHM8YYIl69D4DP8LdONr1ltFIkNkh69J2OAQPHsBjBz/MvEi//I9cIXjQgpjDouIVdOd9msv3mvSvk4dGhBkVY/rrJiNR3jJPt/hvMhc8duB1B70V2rj+RVEdCsBufBmAqzTM8EgQIc5St+hshCz1Ebcxwxm3aHk1aAax9/LaHAVjx3ho/yIxbwaRdaCHfvpGxn1fcVSbUbw7SZ783Ca43WZmsCOaINNwQO8KEA2INETqkSL7Uk939CxZVWnLXUGsiGRRFkiwm+4Wh96fAHnbGdjeBUAaGTSMRQL4uskolGfur7px4PuxQE2A9GpVbkNMIVabZeMO64oBXez98y8So7lDD51JwwG7VXXViY0ho04/ObGBiVi/SMya8ZDbGnGKP7tVtuK4tsrqnixNcHhiGEbLes+DbBlorZVYhSutVdBAXDfbGuqXoL4NdehQPeZtYCSgWmqf2/bfORlfd2ErHDbNNCjpMkQ7hMaqH4n3CRed9+k2w56sVELflXbhuBkZMmHDJxTS0BLnuwauEkNoAD80aNyiClNQXO37dq62YnF3Sn5miq6ujw7wuQ6T4mgIhApQ2Cl2KgQduC98v8/zBON1KIBVqx1nynV7Q+7OK3CAPGM0bO1fmowvojzCnh6cKmPH9Qhm6pGoAwdqpRL6bn1Qd+7vqrZLExSlON81fZWY2MG1s4WR5p8tUV+ljblPxHVSc442UXrgBhI6BEGQZ33ekBoKWH7hA3skfMfCbJdA3KoYnCz0EZq5gVLCU8z4T0bZWhVztCUo4vDARPNHOzbOIUSueMVACgpoTmvZZbxHWJRQqTgG/dkdsiAqlaCVG6nRKqGGq/KLsi+iPHo4lGZMQZmeDWDwsFiAbNDYh7Iz0ei6uACd0SHSNX6ZGIxA+nNDlYpdkfq64tu52tAiWQMXu8NBPWsS2BijkJ8YlJ/6MHfgdFYqaXd8iwqr3ZWWWUzOwp0GuMFrlaGMmlHear4cnBHuBXz+f8J9yS4IziFUUrwyOoPlLz6p/Wcm46soz/YBdHo7tbAHu2McaqUSelYfqpDpWz65SqSN5cHkgTVGZIEnRee+kLa4TowswZK7GKepFnQLiqz5dq42Nic/+TEuqq/rCXSnNMOsjdQt0WJVlQoWcqWWXCzNWYVWxpQj0sXBUiMXmzBwVQit/tyiu4rOIVTTsUgmWnEoj0upuDuDoJFUgs1nTsaCz6OpPZTn7usypeh93tIJg2Lq8cMoF1ZDlKOrAvguXehOcDSq1Ie1BA43sPWwBhhJ5pb4YejO1SYDndzi39VAxjPDoNHTtUnXrM5fEWo/29FF32CmM7c0exXwjDE9HG9O4VtXAU3sxa/zEoeX8QYrle74DoIVqutEm3cTSle9iitbJeTP5oUtD2r8gI1hWVPrapYSRyejBHvgcx/l9e7rumsORM0iYNPyZWBcfhhlu6/R+2oFO2ggMGx8WE2esMobxOQlYhQ7TKTSvcFvXgZ9e4Y20BnP0NV+w0p0u2YUVKaFK6qR33g3zcIjS3TZzHQq8K4FHC1VEIXR52SK41Bsvk1LP8Dv4kSsEoKH7Kiz+MdQIBd3UG/c1xrZUgjX1hSCRldNRkHk8c89lPe4ldWWj6MsAy9Ur98zdP7PqmyoIAvfBQGa4L3Ju+5lb3QtZSEC7OGV32fDb/yNjb/BwO05JSK63pRvdKRQNEcl1KBs6CHlre3lKY+V8xAktpCgirx9XLhaVhXahMM+5N6Hf0xarAhv6peBVmBYHiOtI0LsVqLcO03GT6W8319zWWHQN0kcJjz6kvAMMB+WJKowU3eX/x3KAx1lgNR7Y9CoZqzQql6+6VUGXPVqxrUp5oQky6eQzH2e3C0PUYBtRUgK8RPIRO48TLA4d7U+Y/i43rYQwQ5cWLzCap2QRavFuvp2KSJXpd6A8qrf82jkOJzKN6qWZyIR2IEADKOYg3YoOUMUVzrteKbittyZHBJyLR7NdOD6osn4DpT3aO9ku0QgEUgEdiKQlLcTsBRPBBKBT0YgKe+Tey99TwQSgZ0IJOXtBCzFE4FE4JMRSMr75N5L3xOBRGAnAkl5OwFL8UQgEfhkBJLyPrn30vdEIBHYiUBS3k7AUjwRSAQ+GYGkvE/uvfQ9EUgEdiKQlLcTsBRPBBKBT0YgKe+Tey99TwQSgZ0IJOXtBCzFE4FE4JMRSMr75N5L348hsPFj+XJKSWWm89v7SqrKnnU0wEPGK1/62ThmLN04+qCv871qXkp5a8fplIN1XIoOsIGTG+u/98I1vXkLBOBIuf6ZRxtHInVPbOpWrMa8pxXKxo53jndi09jQzZhuJlTfgQTUhvJkdodVcYe01ZMY8qsgnlD5esoL3sFevdbYZuf7f+acM8EPPlcO3Lenzp6AWar4HARwCldH2qv3nflN9dTSjjBI6wvm6woegqI7WD8iL1Tn2ZFYM8tRtEMx6FelRqzyuXTu/d3w+lPw2x4dyu9sa+z2Dp+OXC82xerNTtSt9Osm8qOUx0Np6+jNdbEekuut9DhbPM1Wj5ldFnxtWgM1nG/bGT22194ojUsTnVLBmezk67lirJPnRzAZdhkd1LZLjIT3/+fRFLAE1sRjQ6oWZAwgOvmDQUt5JiY4EpT+im/SvJQwL3gvyDVfJie6l1LkRWUspivNQ6J0VzClgqLIPXSVg7Nuy1mqxZ+qdkWA4osRhiOYObJrJ/JDlEeRuBdetDBI162IBZ0BeuKB0FhAsbWOoBZxLzba3qVAsf2Bc3mF+JrTbs8Vo+BVZ2+MqsC6b4Padokd6x4eaIUZjO0gWHqLPFdg0CJECOig6wxgHsLSiH0PhCt1sVcGdRkO1acxhEaq6k7WtFp/b0ZPZ1EQhAaxhOExGuYDxRRTU+GTYKSY9HV7cjspb6H3GAuIPQ8GxQpS293ahBsD1eASi+2B6EpZxsHiKtDYMXGu2C+8FYFfH4M9a82X6AeNDmobFisOHEmFe0QYURAswFHgXuabHBSPC+tSg5Ma33hduxZpLqNdpQlSq7BaDLoVHDXDNr6J6pNLTH8VO3Bhy/6apaO+0oyq9GKKRbQabZfQKCLhh/izQjwO6HkTeRflYWQ0KWgBUjnP0A+K2d4VyOUSofqUqwvTt/ELo1r4GuisjrH0CW84GzPEu5QO1TKGyjAngM8SM3ujvK50msX1QaOD2kbFxPpTPnnU1Ys/tVUGcjx3S2npG2ocaUZtXpA615ahkOBPGVstS6eqTD0mWH1tz65YgcboiGsGrUAiiqR54VwxweLlYt/P5NdOZIJpF+VB/PwWOeosi1qBfVTM9E8HWNEZVEuXiAh9omDYdV5uTw77E0a307tHw6hsCyoFPk3w4j+1f64YDfjNbh00OqhtXGwUu1pugZcq6p95P6IRJHT7+9FlJptGdTIUijQHggRqGVcoohuHuK9aKtkwtmlKxavASFDUuNcqhVa3me59tNYq+WKi0SyO0WdQTYbqr53KQEOyXu2u3D7KK6rRpe1L63WxCqnypRmmHL8iUGa1zfe2G/xa6EoMo6nLVnmIhzKb2RamCgHgXDGHQr+/Bo0OantEzLXZzJC/MpAIOopOyjqfgrLA3xHzxTUpoCX7atf7ndgjuHOqHR64V+sNF2QWCx+2d7LKmUB7q7wJ9jsCH2p5tIpyQQyV2WqHCppaoJ45kQmod6I8eFdx/Fevh1tguV8AQNdFKOlK7AB5rzRFVUZiPZC45lwxD0GtW2vrio5vKo+JupGv1dygmMrvTOCkwqUc7tHpyg9erQ3TsXq2wiwIS5ArJkMhCqmZ7HGBDs/7DL7ARhxtrUrFhrYyYuAK1caHadyDCh4FM4HWFFYvqpb7NLu3RaJH4t6BHao2MlYKqBb9m0y/0j9NFVHeMk+3+G/qLPvJVwt2oxoK1sXMYPTbobUuVFOM4Sgr3xYFHpard2F5Nfj8pxxrv0t+BGEPFgYZsdy5YsVFSHndps5XdH0zLda0PSTmG43nwNkydmw7DCquQjEMM6apqtTNTmvCpFHbiCD3QhFtqNrTmuUuY0+SI3YZiXriyORHFRYolC8OQj1Vb0BaVaNeaUrMSUo7/pwykYXy9HGIqi9tnIIhfKJPnZFk5NbFKqQq03VWXCGd5tkXUENIMYR1S86XLjIeXpRUpxvfJCyPKcprlYPRZo6L+fitbldjK1aMujbnDBKv8oFcGWV1Yx9IXWsXL22dluCYc0OLGEroYkUQqlDYkRYNYqdRdTySaB1stVD31mNTx5+MTXWqwrRkY0VesahVWSkANWQCffatTE7daAMZKHnlhS2GzO77xy3pQtZs1eHXj2xx3ifaV22R6gaMEB5Dqqv7vArq6OlOXCHh6aaSFJwr5tynUSiGbNWgUdvkOyjPTLV+0g0tAtEVASzxGEThArh0AGzx3O/zPMFYd6D2MtRBfRc7NeQmmnUeg7rili5yWMbX2tbvP5FfSXn1GFjKY+QO0uiZKkBZegSEXXe1o8Lpa6vfpETGe3OrDpHSGM8Vc7GLavl2KZVSs+FbaaCzRLrJVdmMqG6NshQ8DoebbmOT3+qud6VcHRpedY+2lnkr2e80u8JWrfaWVmEnNuPU+kBAVNyET6HTAKhqOMsq5acM5uLUP23p7hKoFO32oGXnWzBjyD2U8rV1ZO89kV9NeWXAGUDpG5GqXLEOH1xASFtA3HVXEeNU26ONyFsU4NjBkezioeJSdK6YjZzQFmBtjXmQrjgia5cO/CvarOotMaoHWELHrKooDWjFDVFxXOUUhXJhITYjfx1KUI691pRaNdQQ7jTM8/1ut54xhvqqh28CNyrZd/oNyQ/dpOF7Nb1g0bJTFKImXFaJe1mKgpWVKldc4IVi8QqEnRNFTGKCb9x1kaZNXfBCyoMA1f0KkIJUs41AEQRIob7gi5DPGxBcawS284fWGNvqrQTB4H4GzyNXkQLxc8WMA6Q4hmrQ6KC2PWJw74c69pHRrmMJ1DgFGFEYrH9wwC3opCoqpKAIKGcJKtx41/C9D5bmVKS/Uo1V4g4h342el2KX/JJfklj1NKCcx4qak+MMalJx50UVvFVTVZEuKJQuAOGV00EOT2SyuIfy3F1H5ha9z1tu7Q6LFcJG0OyktkjJaBFg0HGCrxAcbIBV2wiydl8WFNYe4m4b/iDnDD0Pt3xE0AR20W9sB/urMC2g3vVtUNugmEGwGhKmZiOJDfWBFPMTfJrobliRKtMHZYQNpFgVNW/GG46jphSFAx8kKGBYe9Uj5fgZquRtAPjexK0CK1TXiTb0wvmGqDW3YFjeVdq2aOtdJzI7v4/yevd13TUH9XhnhGjnlq5m+XXAayyhUfAEo3Sh+yymXPFw5sJVHvqEv+RU/J5+kgrjrwZdQvuL0dr0bVDboFjpIzfLSvF2Si3BY59eHKvqCL2IrKhbqX5jstg8Cdd5Pg53KZVb8K4F/MR30jMlwHQnepwVZeKUzrGxVkK/Qns4fxgRBWm18wUap7HgwEqKP9HyFNsaUoRGV01k8n8P5UnEZ3xi5DiO4Ptelrb6ABL0dzXKSguwj0jpQIk80kXfDBfQlbKoQZa9KwI0SR/qQvq6gp9OVXQHsZbZGka+CDn4y2GW7TfGGscdWxkKzbS7VRt6MPgtMfAVTLmXJK6CWBUqThzHQ+bKF64kF0VCLozks2C23GF7Ef/8Y9JlWn7KRH4V5UEX1d0gV7A4QIItB9k8pTEX3cd1Ixc7gwbbQ7PFKcvMyxCg6V7N42Fv4OcIvbYDrAUEUia+tdpvbKU201bNssBN4aiJGcsNfco0us+xr9hWhJxyWBWQOdxnCGWkgeFjpFUt/7iJ/CrKE8TyMxF4HQK4+xtyDOwMxxXq7UpjlRlIDKnBS5bWHypuy53ZISHX4rszSXnf3b8ZXSKQCDgEkvIcHJlJBBKB70YgKe+7+zejSwQSAYdAUp6DIzOJQCLw3Qgk5X13/2Z0iUAi4BBIynNwZCYRSAS+G4GkvO/u34wuEUgEHAJJeQ6OzCQCicB3I5CU9939m9ElAomAQyApz8GRmUQgEfhuBJLyvrt/M7pEIBFwCCTlOTgykwgkAt+NQFLed/dvRpcIJAIOgaQ8B0dmEoFE4LsRSMr77v7N6BKBRMAhkJTn4MhMIpAIfDcCSXnf3b8ZXSKQCDgEkvIcHJlJBBKB70YgKe+7+zejSwQSAYdAUp6DIzOJQCLw3Qj8D6UTz+QIB3CPAAAAAElFTkSuQmCC;" vertex="1" parent="1">
                    <mxGeometry x="387.00331298828127" y="385" width="422" height="241" as="geometry"/>
                </mxCell>
                <mxCell id="12" value="" style="shape=image;verticalLabelPosition=bottom;labelBackgroundColor=default;verticalAlign=top;aspect=fixed;imageAspect=0;image=data:image/png,iVBORw0KGgoAAAANSUhEUgAAAdQAAAFMCAIAAAD9cNoVAAAgAElEQVR4Ae2dXbrCKAyG3VY31N1Ml+PF7GS6mTNPEgIJPy1VqlW/c3FsIYTwQj8Ra7n94Q8EQAAEQODlBG71Gtf1fl/rWcdTydcwZ776Zpzr/bxKfQg4AwEQAIEHCDTE9z7fbrf53u9wXe/LMk+3shi7OuSrv9ZmmM2Mft+wBAEQAIETCdTFd12m221aOqara1BcUt3bbZrnxc1y2RG5uqe/NAu+k1pPs51ji1SLt8p/F1NwnplNy1rPILsj7ycnUodrEACBnydQF98DE8f7siz3+3onufbStrK2ZtKYKaCKcxRgWkfY+kvvB1yUlJarpgP9o+jlnNsx0ftB+Du7v6U97i1Cq9x8W6mW0JKXfN1o6SXjRVAgcDUCJL6F4C206DDNWyJIS6q2LXwtJvENwjvNbvYctNAV/PuTyzhTbuu7crxaV+xA5Uu8xUjYLp5VPA1MCg1pfGZQ8Z3cX3hv0ugHRnOmq+2WnlkzfIPA1xAg8VVZqExSN5K8XvDlGEROlJfEe5mnuKqQqaInuHop95mVs/W+zElS12VSmae6p5TD0h5DqDgak0Th8Hq38PJoQhVC2YZG73v0gaGh1mNCG+ylp6WDq4Q7EPhOApVlBxaEqn6UCOKkmcVHl3bj1DZOgFma9kQwOtubckf/B943MtXTpsjSiJNrzep+TW9e09TW0pr4nqK9/P7jPnG4llB2A4azq530tbRWEmkgAAIZgYr40hXWqb118bOFg/zedGaaVe9O06W9MeH235pxkT0p2TCKVe75cIHmJzLzpsm7qKkFEG1pSu4n5ePnvUq70X8x++HWdrU0NhkHIAACbQKl+G5IVduNiJi5pvnjqXwSpwnvfWHhSVNW1SmVWVOUa2GHVRFzQUTxVD/N17yC4GbEzNdEtCG+xiocDp33RmGV5XpLmqoz2RPdkVJGczDlUEsP+oY5CPwCgUJ8n9DeuHgZLsx4lfN5oaR6XwOvWHhtFAeaRsqtx1mfdEXbZZQ5fvD0iCSJbWOSeqT+bWG1q7T0Pvi87nJsR1p6pDGwBYFfIZCLb/dU0qqhFqIlz1Jj5TslPyW1YsqXsXUnH8eNo7Z6as3ee+3MVXBa7x6QpKC9z8XldLeYzxrdjW+Eo5p+oKWjqoQfEPgqAl58+YqalmWZ7R+tHkyTTZlnew/ZfaZfV/B9vrlM6iWavkKT2wKs5LCNTcidhCUKo8axC0rTmJUOuoyS+TNH2t796SUHld8afbDq4KMlrDG7UOWD9dTM+1taK400EAABJ758QRUaV4ijp0bZ0xJ/ZHGfgwP58UP2A7bwHZOVWklKKSwZ9SCK1PoXfrWJ77HbiH0LD5x1S5IYPhmVqGtLewOcZvaBZlVMu1taKYskEACBvz8rvnwtJxVUPHyZlckhmwrpL3rViL9fIwmUH6Cl256qV6zzzye8NLnGO89kIs7f3mkNGhv9QoT+wq/c0k/ZisRU4syjagMrFYrdk9pLX6PF+4tr9/HRokT40rOWXYmrP6m3pf0eYQkCv0UgiW99xqk/BChVjzlFveZrMRnxvaT02TuoDM9Z2bixKCxFg3Vt6hpuoW3oFRfMJ8bVxHO7VxqQB1LUGdq5a1cUrCU4BS5vZNjJrnnsSetsaY8r2IDATxJQ8RVhTOppYPBlVs3hH8eJgmwYmS+FaBHCeJZDW3Tl1WZ6WgQ9EZL+rHmQek6TXP2/P/MNltYdHb/nVrPG21Ae3JFzQ7kyyx2vwBDfI70DWxAoCYj4bkhvmLxWRJOdqTxaBc1rCau/VeUl9/IkibQ4kZdP51qbTqhrU+TNtHyuKQ33P9xI1fUd0YPd4l+oPZ7bLyaju1Bri2m0O3wQFThvJ3taY/aDNR9v6eEWoAAI/AyBW1wZaF6QW7oaOTWM4oyrMhszt/7rymT5oTlWsHHQmoRxelWGkrMBM1+pvqH5tepDgVpWCuzxI5LYDd+U3ezr7VoPt3TbHXJB4KcJ3OS5OuFidVObOHsTXYmn8cBewnxdmgRWXf2FW11T5clkugYcZ2V0W1t+X9tMf1qvliDx1lJVOeGYNmTopzsejQcBEHgvAV3zlSg2pzbF3M5orb1fLDnZvssp12sRU/kMX9TFtxoH+eUFilgLzandynAEyiYQ38gDByAAAhci4MX3icDspmm9m7bFJdyH6l13n0PJP2CuC/NDNaIQCIAACIwiMEx8RwUEPyAAAiDwCwQgvr/Qy2gjCIDA5QhAfC/XJQgIBEDgFwhAfH+hl9FGEACByxGA+F6uSxAQCIDALxCA+P5CL6ONIAAClyMA8b1clyAgEACBXyAA8f2FXkYbQQAELkcA4nu5LkFAIAACv0AA4vsLvYw2ggAIXI4AxPdyXYKAQAAEfoEAxPcXehltBAEQuBwBiO/lugQBgQAI/AIBiO8v9DLaCAIgcDkCEN/LdQkCAgEQ+AUCj4qvPMu8+qTyuC9a9YnoPVu1nQ2eN9qJ0U31LY5oY3bdeZ1snzWTRm1wCwZDK+1sQmdsZ/cL/IPALxF4SHzTLhI1KVXx1W1/5DVoXVWuXwo8Bs/7FakEF/sQjTWTFkafLQrR4IKxvbSTUBkIfD+Bg+IbN8QU0aqKiIiv3WOINghaeEO3aoFXUq7EoYpnIx5rRpPoZZYd7RhcHcPYSju9dcb2yj5CXSDwEwQOia/OaeO8rCoiNfGtKMFxvAN2GpbYXNghNLd9/FizvyPcrhnb8c5CCRAAgW0Ch8SX5q9hU0yRLKcUWhEtWtICqZ6PmvdGCXOuTS37h2XUnEKbJdOMVB2PNZP273IbW2mnt87Y9snCAgRA4CCBY+KbnJcXd8orjsTYbPleWHQlPD/zFf1Wjf37kznpfA9zU30vGWvm2tbmNrbSTm+dsTkznIAACIwg8ArxHaS9zzc3Vz5WKJZil+NOjELrynXQ6E4zH3ZeKObmGVeKLQaJAxAAgWEEXiC+IivxM/2w0I878gLH8lYT0rFmPkzv2+T5jGvFZsLEIQiAwCAC54sv60haTx0U90NurMDxsa4zhJsxKkr8vJmP1IbgcmzG85V2enMReAg+C2cgAAKjCZwuviIDV5j36gICxeLlLaz9xkVpeb8YZea6zKqiywjLzqMq7WyCC6EdmzPDCQiAwAgCZ4vvpbQ3zu34pmPzvVtSPmaqKjTGzHWTul5dKp1ozphKO725KLRMGZszwwkIgMAIAieLr1zPcUo5IuKnfIQ1EHNbGbuL88TgfKyZjXhD4MZW2umtMzZrhmMQAIERBE4WX5GAuLT6XMTP32qm88ubvQ15DTplZ8L6pmHSnjAzzd4Q3zD3vWZspgk4BAEQGEHgiPiuC/98wj+rQZ/gMG885sFI2BMxx7ncc+6CrtKPKqYp/uTXqjHHONCsn9vASuNChvyeudXS/tie6DkUBQEQKAkcE9+oVXxFu3+12W3QklpWGcl+yoiZL9fS+ayvUWZGUh0ykcXsTWtUpYJz19uh2Pa7CBYgAAK9BI6Ib69P2IEACIAACOwQgPjuAEI2CIAACJxBAOJ7BlX4BAEQAIEdAhDfHUDIBgEQAIEzCEB8z6AKnyAAAiCwQwDiuwMI2SAAAiBwBgGI7xlU4RMEQAAEdghAfHcAIRsEQAAEziAA8T2DKnyCAAiAwA4BiO8OIGSDAAiAwBkEIL5nUIVPEAABENghAPHdAYRsEAABEDiDAMT3DKrwCQIgAAI7BCC+O4CQDQIgAAJnEID4nkEVPkEABEBghwDEdwcQskEABEDgDAIQ3zOowicIgAAI7BCA+O4AQjYIgAAInEHgsPiu2c4083JvbjU+eBuhYe3PmjDN9SZ0mklY0taNHZM6vY01GxvbsA6AIxAAgb9D4kvCEHchS1sytnaGD9r73H6Xw/vI7Fo2YANNCS/6bIlvNHjZrp2RW6z6ydiiQxyAAAiMIHBIfHlzczdPrO2nrmEN3TZenT77GqTICpGqk32T6DT7+1vvi3lDarwNdXobazY2tme5ozwIgEBG4Jj4ZoXpVBTDipkYBSWxilYpfShpwO7FlTeEEOjtdkuxdpr9xd3sdRf6ksPfX7ByWU9U+pbYDvUTjEEABDoInCW+TnsretERWm4SlS6JZG6ydy5RWRnklGmeZ1pOUcedZvLWM8mqd1lGgylznqm009vY2LQpeAUBEBhG4DnxXe8LLwJbOePQRCJUzcaI79/zM18JRDVWJ6XzPZucdpq5TihFUbM7vY0108pNbxSdpO3XbiJbjqIA4rzhBARAYASBh8T3Pk9b31UVH7RFV2oX/4gm9PvIBVKVJls86TTz9eaFYm6e8Vylnd5i7XyQF4q5eUYjtmiPAxAAgWEEHhTfeM/D7XZz38BxYLnY5ufDoj/oyGsNRxXeEVyOO5G5YM3MV+4LmTyf8Wylnd5M/Rvr8tmCfTM27w1nIAACIwg8JL5a8brqV/3mk3wx760kqIMXv1rl4uM4Gbc5TpI2zHzwzoPNshkb3saa2QCyeb3N6qzUFsExCIDAGAJPiS+FINdvsWyYvr3ShcTGbVhjmtHpRabg812ijtKbvz10mrlKrY65jLCePKrSt8TmG4QzEACBAQSeFl83T6SAghrbhQl77ObIAxpwyIUqJH9NaCOJksbuOs1c1Vqm/Lmf5oyptNPb2NicN5yAAAiMIPC8+IpupVkkLUVkfyq+lGwlb0QDjvmQYCkeF4fXXp0I75rZulUUS/ENU99db1eOzbYUxyAAAiMIHBJfEhj/9Zr+wi1pby2oXJ9rNh1pz99qFufl9j1A22DlWKSUGhvjqpnFTHVc59DpbazZ2NiMNxyCAAiMIHBEfIM4yDzW3Gu2u5o7RnzjzNAo4gMITCtMG6zMstMeMzfJFyz0Uzf5mxczCe7x5pdsLhfbA6hRBARAoE3giPiSF36WQXq6zi38vqtdAeWMEd8BP7IIYY56cpiR1CC95iWfBI+qVNqw6+2M2LZ7GbkgAAJHCBwV3yO+YQsCIAACINAgAPFtgEEyCIAACJxJAOJ7Jl34BgEQAIEGAYhvAwySQQAEQOBMAhDfM+nCNwiAAAg0CEB8G2CQDAIgAAJnEoD4nkkXvkEABECgQQDi2wCDZBAAARA4kwDE90y68A0CIAACDQIQ3wYYJIMACIDAmQQgvmfShW8QAAEQaBCA+DbAIBkEQAAEziQA8T2TLnyDAAiAQIMAxLcBBskgAAIgcCYBiO+ZdOEbBEAABBoEIL4NMEgGARAAgTMJQHzPpAvfIAACINAgAPFtgEEyCIAACJxJAOJ7Jl34BgEQAIEGAYhvAwySQQAEQOBMAhDfM+nCNwiAAAg0CEB8G2CQDAIgAAJnEoD4nkkXvkEABECgQQDi2wCDZBAAARA4kwDE90y68A0CIAACDQIQ3wYYJIMACIDAmQQgvmfShW8QAAEQaBCA+DbAIBkEQAAEziQA8T2TLnyDAAiAQIMAxLcBBskgAAIgcCYBiO+ZdOEbBEAABBoEIL4NMEgGARAAgTMJQHzPpAvfIAACINAgAPFtgEEyCIAACJxJAOJ7Jl34BgEQAIEGAYhvAwySQQAEQOBMAhDfM+nCNwiAAAg0CEB8G2CQDAIgAAJnEoD4nkkXvkEABECgQQDi2wCDZBAAARA4kwDE90y68A0CIAACDQIQ3wYYJIMACIDAmQQgvmfShW8QAAEQaBCA+DbAIBkEQAAEziQA8T2TLnyDAAiAQIMAxLcBBskgAAIgcCYBiO+ZdOEbBEAABBoEIL4NMEgGARAAgTMJNMR3Xe/3dVS95GuYMx9UM871fl6lPgScgQAIgMADBBrie59vt9t873e4rvdlmadbWYxdHfLVX2szzGZGv29YggAIgMCJBOriuy7T7TYtHdPVNSguqe7tNs3z4ma57Ihc3dNfmgXfSa2n2c6xRarFW+W/iyk4z8ymZa1nkN2R95MTqcM1CIDAzxOoi++BieN9WZb7fb2TXHtpW1lbM2nMFFDFOQowrSNs/aX3Ay5KSstV04H+UfRyzu2Y6P0g/F2kv6XZ7p3ER7bel3nizxEEbPJvUN70qmdf0ISrokVc30GAxLcQvIUWHaZ5SwRpSdUSYDlJ4huEd5rd7DlooSv49xcEOBW2fhvHq3WlMsy24i06Y7t41vD22uTQ3tZHC/eelQS474PIa1vSqu0LmtBqGtJBYBgBEl8WqMoMdTvJz9tYUYLIybVH4k3TN53UZqroW7B6KfeZlTOaViVJXZdJZZ7qnlIOS3sMoeLopUk8GUxUPUGNhDlNtHwTU0IH1e3V6kKvX9CEC9FEKN9KoLLsIJeOm7I2Wx8nzbz0q0u7Vjbos/M081dxeyIYne1NuaP/A+8bVpBNc2RpxMm1yR16mN7jJpnQNsU0rYprAFK2WUDNjrzy21S7lym7waynlpc0oScQ2IDAVQlUxJcu9N7LPAlKmtC5wjILJv1tX+fKpurM+NVDowlcxJyrK/e6YRSr3PPhHD54IhN0mtHKp4BeyLQyREvqDuyDMXAx7ZSGw5g9FMrYJjzTfJQFgUsQKMV3Q6raEYuImYvVfN1CE977MqUFCHEjF2NFUDmbHe6rUxRP9dN8NbHZZrxw5muqPSxEBV/j7NBhFFZZ1U+fIcSLyXYrH4fqqBsPa0LdPVJB4NMIFOLL10hDqZqNixoochm0JV6+fF4oqd7XwCsWvkZxoGmk3HqchdAVbZdR5vjc04PiK+aNeWp3pNvCatej6e0yl+XuauqGY5pQ941UEPhIArn4RhltTiFDhlVDLURrmaXG8ifmzJ0VU74urTv5kG0ctdVTa87cV05dBWO7iu51rv+11loOiW9oo+FxOHynu+mbvODH6G58vzxcxWaBAU3Y9I9MEPhAAl58WRSmZVlm+8fLjZNNmWcrK/c5fKU233OZVJVJX6HJjzKsFBbimzsJS5419SlNK33QZVQp15skjawIfvlOFFwqlv3ppd4rbYH1xqV23H5edi90l0xidjVXnTz+OqIJj9eOkiBwVQJOfFkTCo0rxNG3hbKnJf7I4j4HB/Ljh+wHbOGbIyclmX/WgnoQRaoKR034sjRXpW/B68+4yU1pjvEk2dpX6VioPBB1bU5qd7JLf0dSBjXhSJWwBYHPIGDFl6/CUqQycczaRYX0F71alr9fI/GTH6Cl+xyqouP88wmvOa7xzjOZiPPvvbSGFIT8dC38yi39lI2SXWIqcYGjKocsLpWt8h0nM9w/desK5fyWFiWY7uif0g1swn4jYQECH0YgiS9Lb+1Kd+KYNS/qdWbEN4nSdE1kRiZ5bFzO90zRYJ1NWvk03Bub/YRZw+GCefDVRC3x1ldpZx6vCUlQjbu5jHqCfvIiZGuT4J1sE1vn4QlN6KwZZiDwEQRUfOVSKSeWqp/VHF4vFAlhOakbmW97aBGiwGKLrrzaTE+LoCdC0p815yDDL+YkV/+7Se5WonVHxzI5q4WVW4483xbfM2XLdEblNy/DFPjMJozsCPgCgfcREPHdkN4wea2IJget8mgVNG9NWP2tKi+5lydJpMWJvHw619p0Ql2bIm+m5ZNNFYnGhDrV/PyRuyciBBnvkTDfX8aQ6IE6+V+rG46FFxU4x8Fu1pj9aG0vaMKxBsMaBC5I4BZXBppX2pauxhY1jOJUqjLN4o/C8klYlxzNAw2i5/2D1jyS06v6kny+buYrUTbeGkyURrlK42YnpRb1HpHEmmrzYpT9aG2vakIeM85B4JMI3ORWo3AVutlZnHWJBsTTeGCvzVx8WXXDtzj2ITGGjTyZTNeA43SLJ3xz5U/r1RIk3lqqqhM94mviwSEIgAAIvI6ArvlKjZuzs2Ie1hDf5KT2xU5qWq7XIqbyg4WiLrp1Qv94gSLW0v45FptsTO5SKDgCARAAgRcT8OL7ROV207TeTdviEu5D9a67z6HkHzC7r+weqgiFQAAEQGA4gWHiOzwyOAQBEACBLyYA8f3izkXTQAAErksA4nvdvkFkIAACX0wA4vvFnYumgQAIXJcAxPe6fYPIQAAEvpgAxPeLOxdNAwEQuC4BiO91+waRgQAIfDEBiO8Xdy6aBgIgcF0CEN/r9g0iAwEQ+GICEN8v7lw0DQRA4LoEIL7X7RtEBgIg8MUEIL5f3LloGgiAwHUJQHyv2zeIDARA4IsJvFV8Nx+6XXuqpG5qphsF2dcv7iQ0DQRA4PsIvF98p6ny4PRm0nL/r7Ff/HxvZJCK20cPf18nokUgAAKfR+BR8ZVnmW88qdxsZcEPQg/7XjpCPPOt6OKOc91TnrYgoue1y9+60nZw5R9tUbQRpwsIJyMI8AZF8YPLVN9BirZT1h3ryfZZMwl8Z+Ro63bNzohNK8crCAiBh8RXxi5dMdVdL3VvH77+wvZsfH3l1g3xFfcVUfadxma7Vjwdrsfp3eFsCIE4NnjrEZXgYpunsWYSefS53d27ZtFgSBOGUIWTbyRwUHzjhphyVdVHOQ9et4VQ2K4tF+skvma86/VavGaVcZFCe8mlM6ybfWNXXqFNoR9tD2jX2q4aa0aT6EV2Yt0alp1mo2O7QrcghksSOCS+LJY8vieZ0NqLzDVvLTbvkbK+QCa+03K336CZ4/tSrh0UMksB8JVjL3NMfGmHVNrJtJh8ug4bc1LpZNVeu+4+1sws9W8OS6mVhu+W2eDYxnCFl68kcEh8SdvCjFauKa+lm4BqBXigs1RybttbJZvKlgXYEOLreiKKjuPiTAadlH0sHTfPM2me1j/WTN5ye4Zlz+gdHtsgtHDzhQSOiW8CUA7SlFc9EgnQ609MMvGVz4zN/05qWXvjl233e5hqc7JdWuY4fa3V8L458WUz36KPtYMlQztwrJnruc5h2TY7MTYXKE5A4O9F4iujPZ+q6rUZlgv6lx2CO6PTQV/Jo5NatnQp6PSzCOSSlnWv9v5YM9+Y3LfPjWdNszzjuSbE+nAAAhUCIr7rMk/1v9lOI035fJSarPKQh3BllYDSZTrE7nRmVDrIsjN/dCr6GuzCzWf0wovFYYZcLkSXNSGlTqBnhPgxwZ0UutTluBNZsH3CzIfrffs8c9Y08xnPNsHUiEMQKAio+NJXMrW/liD6UVq4NQnyoVfl0WTQN0FOfGv1mzQNRao2N7ol8eWrxRTxh5gAO/qHTiJ0j9T0Qvj4Un03daPFnvCxdqx8XVqbIG+Y+VZY3z7HnTXNbMZGpZ1mrk6cgEBG4ORlh6S8xe0P/taE1cxWswlrzFEX93laaEqrF20S36xx6ZRVGeKbgJxyJO99811UVLvnT95l9X1Wz0aZuZZYVXQZ/qRtNrYJvlacgYAjcKb4qvKaq9DVnSvier8nfU3X6t9aWS+gy0f9kp8dYSUTNXcx4GQgAdU0WutxPRIljSsba+biV9c6jlxmOmmbac6YJqQacQQCBYHTxFeut03J84oowz6IaMpyySl8SlY1JeNt8WUn2ybJNY4eJqCdnvWHJCf+Y81stDJadGDYHHe8YXZebC4CnIDASXc76AjevArYSK9IuRz0zKwG61JizJJOI3v1To42HqsTstT69zr9ZbeaaV+5H3TorxttB0pvjzIzPbqhqsbKLy7bDP2djv9NyhNNyJzjFAQSgSMzX/eNd/jiJd4jYW6LUOmV3xJFCzmI1yBfJ+FMSsQs+1Uch8r5Tj3D5Ru//qEVxGzdWNeK19VWlZr+K0exOwzf89puOib8kIz6qPh53UCzzmHZaZbkl+NOjyZ5tAnnoYbnDydwTHxb90S4L73Nzz2jNqYDVQC++lhPw3WoGQyUBMOJbS7PVCg90Sz+yKLaG6mqavbXJ75w5sssxz4SbNdbGD9piNmjNIg6zWQ07FZ6yOzrRxga+BCBI+L7UAWNQmkuSzMSFVp6QAr/VZ4DmUqQSxbfxj3IUmWcCC/029Z0ETYCQjIIgAAIvJLAu8SXphZuriuNlgkuTV0ms44RgJi7IUh+K/dAOHLJF6TXgcEJCIDABQi8S3wv0HSEAAIgAALvIwDxfR971AwCIPDDBCC+P9z5aDoIgMD7CEB838ceNYMACPwwAYjvD3c+mg4CIPA+AhDf97FHzSAAAj9MAOL7w52PpoMACLyPAMT3fexRMwiAwA8TgPj+cOej6SAAAu8jAPF9H3vUDAIg8MMEIL4/3PloOgiAwPsIQHzfxx41gwAI/DABiO8Pdz6aDgIg8D4CEN/3sUfNIAACP0zgmuK7rvw03mWZZ90OYZrj7pr8OEkycX8/3IloOgiAwOcReLP46tPTw15Ddg+CcDxN0zwvbqsK86BeU2BjF7dsP8fP6yVEDAIg8HUEHhVf2ZRlY38IklWzAZabuCaKYW8XElj+WxbeeY2ntMkqO9I9KuaJn7ke9mpb17817IMRnMlLZVOMzB9ODxHY7Xrx9mKzMzb+GduEQ5Bh/AMEHhLfIJmtzXnoOohT0iTAtf0k2NOGhG/1AJet7IaRlaF58oM1ZJ5wGrcn3kO6M0KU5Ciz6Od202WqJ3btlOiiz+3B02mmLcYrCEQCB8WX57NRWBuixuORdrdctRrde7sYx2K6uReb+shfuWihvYXU1s1yZzjfJdDV9X9/bzDjLvZvByHpZsdHp9noJuyChcGvEjgkvmmxNcwvCjFVjOX+alI2L8AXRJ6oTrZfC5klc/ZnrzjeSvmxCrar/6DcEbsXd3b9O8wqI0u11y72d5qZvbc3B3lnSz9omCDUVxM4JL6kbWFGK8P7gKrVC6SrJE2nG0f2boe/v4aosj+IrxtFUSYcF2fScdLZ9a83KwcWp9C3CDSStNGdZvIG3jPIO1vagRYmP0rgmPgmSOVYTnnVI5EAvRTUJFwny/2+uG/Pwpdo8kJ7y+crHOSOLhH9C1NtTrarGFxBXqvW/iOvI2a+BlVn17/KrBhYnBDvfdH5QaeZaacucKsHl2VPOltqi+AYBP7+XiS+Mj5zBQ3DW0Z3oZvaPVzWXwHBnZkjB30lJ05q2dKlqFu8PkhA4PsOqbPBLW0AAB5NSURBVLh6kVlejUpvJp2dZr4deSGfG886zaI9DkCACYj4rnRbWPVvttNIw+zQgJNZRym9Tnxlsa3USS7sL/XMH51KOY5qSvNhP6EuF6JNg3DYS6Cz619k5quxg8XluBMZamFM+RwHYSPL2nWa2SI4BgGd+crwMRPJeOhVLxHrH3B631kpq/kXZOwzq1DqcWVjsGqaxDeocozeHzgvqSk4Okags+tfZGar4WMdFfLlq77jd5p5EraQz3FnnWauDE5A4Oxlh6S88bYzB53VMominbiQXX1Y3+dpoTVivcyS+Drf9iSrx2bh+CCBeqcUTl5lxl1Ln3y4Qh0T4SvZ9F1Bp5lrxtgmONc4AYFTxVeV11wQGfH8epGbGFRV5Xqpl6aSmkN2ScCzKuSUTNS8aoDEbgJjJelpb+qAvrF1wyDKLbes08xR0DL1iUM07TSL9jgAASZw2hduMvR3JI+NMt2UgtMsv5LLMmOv0YBXNaUSLTspwJfHtkn0jIMdAp1a8zIzHWnZIJDk1OmdZrbxY5tgPeMYBHTN9ziJ7XGpA13lseGfnZQ24pt+H9r4ti8sSGg21RZvLfLLvHQWstS6EcsXJ3/3rWa6OHWbktD+6U8qTVJYw9o1MwNhe5BHw06zaI8DEGACR2a+7p6IIHLxFglzW4RKL8ln8Wcuh6r2ugdD3CbzG2XXY1GgQxy05rfqTb/+dV3Z2FTsPH39SeyOJwh0dv1bzOJ3AzwUnn22w9gmfP3gQgOfIHBMfNPzcoLmpRczsYxXe8pNR0kBRD/TOU1XpIKJlVz1dao9EY0yKz+yqJJgRya+qtEXJw6Y+WpfpH40RwntW8yk50Y91WxsE754VKFpTxM4Ir5PV+YcJElczcNYwg871TLqMU2i6VE9+t0HlU4XvZrb1zgRXuhnptu2thyOQQAEQOAFBN4mvjwdE0mUmXImu7btUZythK5RiK2pOTYTcFvOWOAQBEAABN5F4G3iSyt1UT7jwbswoF4QAAEQeC2Bd4rva1uK2kAABEDgQgQgvhfqDIQCAiDwOwQgvr/T12gpCIDAhQhAfC/UGQgFBEDgdwhAfH+nr9FSEACBCxGA+F6oMxAKCIDA7xCA+P5OX6OlIAACFyIA8b1QZyAUEACB3yEA8f2dvkZLQQAELkQA4nuhzkAoIAACv0MA4vs7fY2WggAIXIgAxPdCnYFQQAAEfofAhcWXn42uj5D8nR5BS0EABH6CwLvFl58saR6onqCn5/2mND1aK3+ah1cQAAEQ+AAC7xZfv1+xBdYWX/OgXrOfwsYubtnWirYWHIMACIDAWwg8Kr4sjVv7Q/AD0OO2Q9WtgLTB7KuY/bbFV/eooE2H0lZC6/q3LnP5N5FVeydODQKvvQR2u14cvdiscxuhztg6vXWa9ZKF3W8ReEh85bpqbs5j9v6h3X/i7NRJoN3tclmWJWx6mdZ42+IbeogNCs0uuo/mya7mwgIJ/QR2ul4dvdgsVsdbtuqAs9sZa2B2t83WqOj01mlmasYhCFgCB8U3bugjA7w+fHlUul2BdCfvZG9Grl4r8hrVVLy0p6ycH621TYXU1s3UHK/dBLq6/u/vDWZhLKXBFXeTv/nx0RVbp7dOs268MPw9AofENy22hg267Xh37Mp9gaRss0C4Xkw+j25z7vz/yVpxkc2F3BVXqHHu5/vPB+xe/NfZ9e8wq4ysoIw3t9jfF1unt06z7x9caOHjBA6J79+6yB7COrUoxK8diFwPzQKl1IYCrdViGv2lNy4E8XXdEEXHcXEmHSedXf96s3JgyViaZ9q12s59e2Lr9NZp1sEVJr9L4Jj4Jk7l6Et51SORgMb1L94kUyfNkhaWN+Z7Wgxm96y9s64U33VP+UKS2Uuj1mqcX5g4YuZrsHR2/avMioHFCfHel/INOi771rI6vXWaGWo4BIGcwIvENyhpbbiHm83CFCVcOWtahtCv72zZ4M6sFgd9peJOatnSpeQEcH6QwKtU1YXVrDTPCANoU2HpE1z96+I8o+Gt08y1ACcgkBEQ8V2Xear/zY1vvPLhl7n1pzyEa6sE8RKRS0GchlkunwTFlYzoIfNHp6KvoUy4c4Je6CrT29F0Tu2Dw9lBAtIZ9r2w6uBFZr4aHhlu0FTj9IVM+D6j6a3TzDjGIQgUBFR80w1hZjpZnx2wDz/8CrcmQT70qjyaDKu8sdK0vsA1pEsnToD/+ZenLSa2JL58tURf+QEmwJ7+g2edXf8iM1uNHzI2J2tqM8tmbHjrNMtqxSkIOAInLzsk5c3WbOmeJPqRxO02LySm811uR0sC6cc+B32feSJ+n6eFprSqzEl8XdPsCaty8m2zcHyQgFWejaKvMpM33Pkuawk6JsLtMPHDkg+0HVunt04zXyvOQMAROFN8VXnNBaF1y+i/TTTR5WMWRkkNGsknlaLignI1k66EHWElEzXXGPD6GAHppV2arzLTevjzkB0GUSDLZmqZYkYQV4N3vKmDHbOyZqSAQCRwmvjK0G9KHv0SOCwn80DWq+Y+T+Gy5uTmJU65mrkvvq6K2HYcPESAYUb4TRcvM9ORlr0Db2hvlNhSfM0NzTokuYW5twcqbZJCxo8SOEd8dWiqPG7CbSgjJzcdUK5mUm3x1qJ8oTdmqfVmLF+ZKZ9AGj+2Pd7il6mqDW2rUsmjj1GxhP6k0iTFvPhdQ31EdHrrNLO14hgEHIEj4uvuiQgiF++R0HlsXGxjg5gdD8rLgYdxI7l+fcTLJyktrfnZx0WYGx7WtVGDA/G9J/pOuLc0s0Wgs+vfYuZHQ/jtJY0Mq8Z066K5o2dj9OoPiHT86hjz3jor3WKKvF8ncEx8W/dEmFsPvPjqyE2vDZVtJG+Kr95CRkK7dRsZa2/T0/ePgAEz3zDPS91ojxLat5hJB9L3t2l4Vn4X2Rlbp7dDZt8/xNDCRwgcEd9H/HeU4aviIfFt3IMsdcaJ8EI/M00C0RERTEAABEDgbAKfKr5/f+vWZJewxY/bkN6zRxH8gwAIHCZwAfH9o7XaipJiD7fDvYkCIAACH0PgCuL7MbAQKAiAAAiMIgDxHUUSfkAABEDgAAGI7wFYMAUBEACBUQQgvqNIwg8IgAAIHCAA8T0AC6YgAAIgMIoAxHcUSfgBARAAgQMEIL4HYMEUBEAABEYRgPiOIgk/IAACIHCAAMT3ACyYggAIgMAoAhDfUSThBwRAAAQOEID4HoAFUxAAARAYRQDiO4ok/IAACIDAAQIXFl88WOdAP8L0mwnsPsHv1Y1vPAtrUBj0NNhyhydOLZP76rykmLxbfPlB3+XDfHWjgMZjeNfKX18nwAoEPo0APxs1XAnmOan2efbhuHoh9TSX3ObXmq0289F4BHew2o7RhZ3XyR7Ye5lTi9HH9Wli8m7xDY/dLVEXO4EnzvXO3djFLdtaMXnCEQhcnEDYhkT3DRAFupeTD74oVHw3d+0g9aNdt+5pD1t+9nV2DbLDLE1ZdYjvtJidvO68y3OWNE+l4HMF0sZ8jusaqIHkr62gG3run/pt3hZeIyaPiq90b6NvCAn1bdrXpbKtS+JW78o2L92jgntv1k5eaRP6ufyjIDbiTGE8cXSgsU/UcpGiu10vce6a7W78Y9s7yltnpWPNbEOOHFMU2S4sdWFSEVHx5Udks/jJNi7xIlFB5ItlSpOSwq3wjv6Sw+CVLyr1xq9JLCsyWUniGmoXZhELI6t4qKJktynuYNOsLO78+A4xeUh8pWeyYZFQhDEjbyRJgL0E8iJM6L1lWaKERjdtXhZogTmW14N6X2ru069djX26lss42Ol6jXPXLBrcbs0tL9VZ2Om9Od5Gb3nZGVunWWzFsQMdV5k8sQaZKZo/LK4GK1k0NUn7OwtUTcgvEm6bqdq01dcYz4zxdoyxBB2YUqmXaxYtn+LgQ8XkoPjyFC/BsezS2JKem5e0aK47eSf7Zm/qcNhYdpCa2EO01trzUeTHmFoNfO1p7MDq3ueqq+vDJ56uEVK/9HyPdlUaxlIaXEmNrbe3mD3cXxTtNIdLiHRTLqdifGsFrE62ucXXJjJSdf3CXxiZW+eM9pnRWsIru8oqSyZcOltjkBm8nSov+bJDiM/Y0GIF96pk5fN3n53GXDqKIWZtT7FuNiijEoZVdFp4OZpwSHyZKjctzFbseHc1l7sCSdlmgdAwk7/HqyBDAXAhR6dq5mJNJzTbMBGkDDmibOc7GDzQ2Nz1qefhw2st9O56O7u+z0ysHGnuOB5aJsyh3jorHWvWzXfL0F4JFN607K35sjdbTNy7FD5R2OI2aCwj0N6RE7ULYbqyRehcxJeoJLlgyEfplEpRHIWpVKnZRQCXEJNKVHnSIfElCrRf+xpa5z415J6zcwbYLlDyDQVaq8V18lzI9XvdLguOJmy8vOZnY8kqZjvfKT872mlsZn3yKRHIZe14lZ1d32NW0uGUaZ45UoN4oLfOSseaHcdclpDuUyixM0Of+he14jVgnmyG70Am/gvGoqvcUi1grhKuYVrCV3r8TZlaxeBc2ZiqB+zBl6kksQ+VeCpaOpWo5Ns6769urwEUrsU3LXDpZwk1lVepaH9+X7fzvg6cHRPf5Jjb19bSZKhHjJ++Za39iTfJ1HmkpMl4KZkxBvM5JJQq6LCXRq0hkiistAZVdo7JDm88tRb4tM3GetMXnI2Y+ZowO7u+bVbQ4YT4BbO9IGO1T3vrrHSsWQz/0QNpduuy2fAaCtKQpr+Z/viLlfhpny30yqBmM/dULsq62pjaXFmTLofCMJbfOrB9XTrlqGaKuBJDRaylemmClHi5mBQwthJeJL6hTy3rFJUd8HzMCshF6B04zElt2eDOdGvoHSruOootXUqq18x3SXbNGrXY2AVHUuX8ndF6ssebjbWGn3kszbPdUW1H0yzPCF2uc5/6O3peKFaZZzS8vcUsBvnYgX5TokNa7/Ixq6LlYRyl8YCGud0e/C4DnYnolUHUpEfvCyk1ff/NMh2vJgForjh/aIdD5aYj/to9vAfwG0H4Z685FxATS1HR4LjPi5u6lfZUiPs/RB3Ggn5QP1lMjneyiO9Kt4VV/+a4QO99S19Y5D7fnQmQratKvvgUp2HyySehAsnQ8REAR3/kXkZRKGOGJC/KhxmyGY6Z7pbfKIShx5NhO0Jcu6onW42tFvi0ROmM3a5vmvkMxuW6uerZFzLIfEbT21vMTJiHDyXg2zTTcpiM7jCyvOrlZyqnpkJ2VaS7VHLtuUv9qRTNRDb+dq4RDj05M8GlQ67RfU8Xv1EjI9u1XMg1QNxI0K8Xk9SIQ0cqvrRAVPvzPZJcSzNbucmOoInvGvoIK1adPvZzXqogToD/+ZfXoYQwV0TdIt65g6Kv/MBEEAwr093okXW3UGXbssrxVmMr5h+Z1Nn1TTOb4TvZ5mRomlk2Y8PbW8yyNhw5Famh30LQaDcjt+KEbNOFUhrUXbjU3IVcH9vVlhW1U9jfjjvpovyiNQ0Tg+glj7ks/yIxaTd7J+fkZYckRsVndlXTeZHhJR+yIloZdQY9v/nxRPw+Twutwmsm9UIqV21w3vl8XltqkNI72dUq7NtM0dhGiY9MlkGu8JtNaJsJXRUW4yhgr33YetpbZ6VjzZpw9jP08Qbc8O3RTTEbiuxb2pErWThnY+fYuVDWdE/F/b4sM11v+xHr7LRR6UayNM8FFBvhGiaRBRo25reKSReamtGZ4qvK6/hJEEJRvt9K0B1bPqkUTQ40k3phe3iWP58067mVL9n45geZsLe+IM1hbjQ2N/3wc+klhd9sTNtMc/gTjO04UQybEr1rmfJtTXN2vL3FLIQfpKF6n2JsYeOA4yYk0oANCQtZgs+uD4fv2MxiHFGMjqniJGTVajhy6Z16AKHPbK1anSwdazH6rFn8yXqgC4hppKgiHAmPq4u5IWS+jpMTYxka2xyyZKqZ5DW0JlaaHcSKs/TDp6eJL0VIf9qoLDK+bVyupMSLR4HeacvJjdJCUzP3ebkqUiROgctVq53s5EcXoVuNNZZfcMgw95u6YaZjIxvmklwf+c9766x0rBl3t8S+cTFsDQouzEz0Z1zp56BBxehtJ4ma+2Yj1V9gTY4r4kvfjdHNEdYZkUnVRAUt3vRsa8J3hrxwfZvlRS9ba0fHLiDO5Brzz0GVjwSXEJO8OR3n54ivjuAWZxdYCZ2zObnpgHI1k2qLNyqJ5Nv/IUutXd10oh9Z6ou8+wp8qLFF7S9IkEn5Q/OuWnTcMRF+zYLTtswkjz74xOL61b5Jinl6ZTYq7fT2FrOAInzvsTensi0Oxxx1gsKnlptTzkp5ZZdc1BxbmbOCax1aG5POw7/wbq4ruvCikXTCVPseP2vpXsNKcwqqnirJbQUYJyYGzP7hEfF190QEeYu3SBicTFryY3Y8KLvpYV6ZwtY+89D787o2arB0ogJXeyje71ZePQcba+t80XGMsETfHUFn13ea6UUSx4j2pFeVsd46Kx1upoypG6qDSw3qr+XYlfdS05l7nr0L+vWEfI9snhK87YKK2KUJFykPLxMNZ+rlpEt61ijPU28+TErdjKqeWTqRePjTQT6JdjXrGAzPfNPPGXGGLwddYqJ+916PiW/rngi/vMCkTVvcYd5Nz7xZmfWj1ts1tZ87pGfc07DYsKPsIvyDjd3rjzPyB8x8GaHrR3OSkHWaSSOZdnRTWVsf662z0jPMyGddK6S2rf8MIR917CwmbrhmpQ2rrrVHXOkSunPB37PxnWWxCHWxs0khU7KZk6RepV9Bq1lmlD5tmvuN6t2dBpf6ktfcY8it4tqTACpkF1SGiIkPt3p2RHyrDp5PfJxX652MY4oTYXmq3qbt842ABxBoEiBBemjaqzOHqLOxCnompE7OSuf3JcqmeXejdVz+IBi9sIKpBVdiFJB/GGcWfsnYSlSYE6Y1X2kmudMJr68ob0Wyt7+qyqaaScDpKbX6bZ3/AUis5pmZ3KZARNZDxeRTxffvz3xoMvDNoRlZrbdPY41DEDiHgIiWEZFD1TSmJuQjDfB8DZWncrUvzfKqVb/TN2u0JlGf+aXqVK7Tq+rqfan/EpTLqpELgmRNv3if6eOPy/Un5p2BBd7n8lkDFydvqECjyakC0/gNN8m+6+gC4pv9+jGGzQMjfnCJyTgAgV8iQJdBXQ1fTIFnf+X1KMlluouuy8iVePSkgeuSYnIF8X2UM8qBAAiAwMcSgPh+bNchcBAAgU8mAPH95N5D7CAAAh9LAOL7sV2HwEEABD6ZAMT3k3sPsYMACHwsAYjvx3YdAgcBEPhkAhDfT+49xA4CIPCxBCC+H9t1CBwEQOCTCUB8P7n3EDsIgMDHEoD4fmzXIXAQAIFPJgDx/eTeQ+wgAAIfSwDi+7Fdh8BBAAQ+mQDE95N7D7H/NoGdx8WkJ4ZlmBpPn8msstPXPRwnq/hrTyG+X9u1aNjnE+BHkzefNLvzoMTmcxybGZvAOkuZhy+mR05uH8lDGunB7/nfZkAfnwnx/fguRAO+mIA8wrbxmNtN8ZWSuepNi2yqlafzuXmYbmVOXRNfMXPPk2QzepZw/99y/888nNiGtrE1o90+40MHwGPiGzp247HCvO9k2nWosknMhwJD2LsEeLoWL6Gdrg/q0pzdhdp2zTorfYvZLrFNg9B0o4xqzjn1i1Cz1nvYvSzOKUkcSYJpX0Le/oseni5/6re+7U5FfCU0H1nFjP2GZrQ6mhc17nfZ8yPuD0YbdiwVFaeNOuoNT224/tFD4isczcZNeTu5A+Tym9KGJo3377wwzj+ZQBgb1Pn7XR+Nty+kXbNosF3pW8xGdGYQNDfD1C2GKuhUVtmeG61GQiCqZUsoq9seVowzd9zUihml10wraNgsxlcxkCSqRNvUNLp8xiPiy3g32i751kDef7+B1+U79L0ByiVmuz5cdfmHRP5kFGfHroBtQZdZZ6VvMbONeea4us8Nt6iiQUQtCdi6TLrNEM/7Uw5LYrHfGoVZ81xRVUFqHYbNjTgpAE+9XDnKouci3l9t89G62TN831L2uPgGpAWhGH7dQBS5XSoWx8FoAgN2L+4MqfK2HEaD2+HWLPCF2XF2DYbqwrt4mkRXzTorfYtZJ7cHzZhtlYk4TPwqsueS8uuy5pm9eUPpXJ+WzIKTtKyhyxvyqgsitvFUuGgQ+3GVVM2sn884Piy+wjssOTDogpakOlq621+W+BmMPjxK6Q6vfuc0ScaGvXjk+ptnWl20y1QyG6OdE8syJrYes9JBtdK3mJmmHD30S51mF3bjSBraWkW1k1BTKD/k4ZFflzXPFUOB6gsns5oTU3slm8ra4SPWbOgqqdsZ359xeFR8BbdeRwy6xCXJN94QmjBg1eGtg+FlM1/pd3OZcEL8xrq8rPQDbjmEcmAy7moeOit9i1neigPnEq9OT6Xh4eLTxPqrYeR91M0l1fQZx8g1ZfvE8x7xk27ezju813Zw50rZX0+4Jlp5s7CVhn1DyaOzY8d5yAfYXsX0oPhKd0YS2WlqFC0u+c7WZadkg6MvIyAXWxwcsrhgLsOUYxqeFzJZ9rBplmfk136o9C1mtgGPHyft4bVc+90/X2PZXV1mkpxYbNReNRJc/gpunnkZTP7YybT0LjuUdQbH5NHVwZYuZaN9F84S8V2Xear/ze5DDYM170L5uTaU/IW+Sl95V1f2tQRer02gZ4TI1aMSy2OjIX2mrb6QyfCHTTOf0az0LWa+CY+eUZsUqvfBjapnsaFcnk3RNBk9Ssbe9g1TuDvhZdkhWG0OnUplwY6n2vKP754Lt6OF2bEH8yFnKr6qlaZD+FBZmM40SQLMJBiztOoQP1w2xtCHoPrpMPkKyAdHNkLERkaDv7JsToZxI8taNs1sBh/H0Whz3NLyy8xsAx4/TmqW+/ANyXMfXvOVCbabdZFvvtgL8WVjM9tmMzMGqmMmJWpvSWfxfcdyQ10SXxGZVMQfFQGVGC6bcmTZIVAwzZUUBSiNDBiNlaSLbZF8WTII7DCB2MW5KtTGSfAuw8UPoUrFbbPOSt9iVmnI8SSKvM4nx5z7ljZ7saqfuctSWLsk8szeitQ8Bj4PVvz7tzRjtRPWmKr3Lt/naaH7H7SlVFtRmW9gPSBvc+mzA+IrfVLvPPNdtvR4yU2KK9tLQ0FwjxHQLuavZuwIaI2J+Jlod1ioa71WU4Cas1PpW8xClOEbkAd/ZETw6ny4TfUsrZnv6go3dfnFV5eYcMYusf3H2XWty2PIrdY73dMSHcRoazcuky81ID9FCMFRzZ/P+oyzQ+JbLAyrEtN6sZJi+pFhotBKTxY4+nQC0sc0KnQ0cIsk2SXFlqoo6hUaM/zBhllnpW8x40ZI7ERFlcW3beeMAq8XZMf1LOezaldNNPEW3cUAi9TcjY+Wc3UwpCyXnEKlZG0OGReVJVN9j9g2cfbXOzkgvpXguT8ir2AgiTf6mjMWkR88tgZRNMPBGQRedquZ3rV7i+/EdI2E8dC4TOQ61Euu2fwtM8nbrfQtZtyg9P1zA0Kz2ZRB/JgPuXEOuEVVdNWfM2zMfIO9xCGgXE0aR6mHWQzc2Vo0cxQbosqZeyN7bQ4Zx5sUdZKXXkOWWm8CvGzmCeJLwyV9f5fudoD0vmcU8PVQzEbPikUuOL5KTNfnomE+Q4ULKt5sk+6vcXdYtM3ipbxd6bvMFLSVHk3reuWCs1xS/o6hTPiiN9MHAVvfS5AyKa4KGr3yOCpSfQx8Fmxk3JkCGQHOd+qZxz3f//R5O3GNOBys8nA24z3G+TkHp4gvz3fo7rXY5/xoqzQR/hw+3xDpC2e+jGv3yWH5RRaHCR2ky7HTTLpot9I3mlHVmfJIND3/IwX3UZJLclbiVfcm5UurduFQIrt/WC7n8lmRdJGr9+RTfPipbYGA5dfYUKHKjyyq7UpVVbM/IvE58f2IJiJIEHgvAfnCTRXqUCzhQ2QpvORlR4DooZE8//GfO0L97cKc494Q905C09JclhdaQmr8aUjlOZCphLZnm1KcCC/yOMzPns9BfA9dCzAGgaMEeMIXf2p/tDQ948F8eeKKd+gnrVPUFapd2NWxd2LdkNhXFgJkgsufatKakvo1d0PQ20kjWLWW+93kvWBbpmOJCx9AfC/cOQgNBDYJVPabUPt1bUl2tKDl07owq0nP60YMPcV/2Qbi+8u9j7aDAAi8jQDE923oUTEIgMAvE4D4/nLvo+0gAAJvIwDxfRt6VAwCIPDLBCC+v9z7aDsIgMDbCEB834YeFYMACPwyAYjvL/c+2g4CIPA2AhDft6FHxSAAAr9MAOL7y72PtoMACLyNAMT3behRMQiAwC8TgPj+cu+j7SAAAm8jAPF9G3pUDAIg8MsEIL6/3PtoOwiAwNsI/A/ZjOfzcNGsgwAAAABJRU5ErkJggg==;" vertex="1" parent="1">
                    <mxGeometry x="60.00028771033644" y="732.9969230769228" width="468" height="332" as="geometry"/>
                </mxCell>
                <mxCell id="13" value="" style="shape=image;verticalLabelPosition=bottom;labelBackgroundColor=default;verticalAlign=top;aspect=fixed;imageAspect=0;image=data:image/png,iVBORw0KGgoAAAANSUhEUgAAAdoAAAFOCAIAAACucUutAAAgAElEQVR4Ae2dW7qDKgyFOy0n5GyOw/HhzOQ4mZ4vCYGEi2K3Vtuu/bCLEAL8wJJSL48n/kAABEAABG5A4NGswzLPy9JM3ZNwnKei1IV8F7HP53OZD6t+zT3iQAAEQOBoAk05Xqbh8RimqtZVKrEs8zSNw+PxeIyzS5/HSqSzeP2AfWflsbdmwutlIScIgAAInEqgJce9arwEDSbJfTyGcZzcmprdkKzP6S+tuWfS72G061sRb/FW+e/OD8F5ZjZMSz2B7GrSfSpfOAcBEACBTgINORZB6xGveZqmeV5mWkx7+4XVNhPLTBNVrqMk0+7D2l9arXNW0l4umgL6R5IuxyzuA50hwl8nlZfNpD3upKG+Vk801Rya816fC/Urfw3irh3oBHyvGqI2IPChBEiOKxJI4urXtKVGplUu+fByHKR4GN1uR1DHbPYGSfZavoFzsa5UmDmPeIvO2C4ebXj9Y3JoSGOPR+V4cH/hbPUhcuzOsFaTXTf/ESOyg8CvEiA5VqGoLGTXopzIsRSFGJm0wzjP0zjEvYhMJz3wZecKa5mnMZW/TIMKPy/dUgqfJ2IVfJkHHlF10oKxvuUulG3V9CzW0O8D63eYK+pEh1POi/kXo8PKgyMQ+CUCtc0KFs6+9VpcWLMc6RZxXP7GRTKLlZvHFcjRWbkSdzFmWd5/Jsl0UIuXDZWhkapW65+pEoOsGKvsanIsp6i6fK+XKanzuMaUz1I7z3M9pXobaUO1yd4QRyAAAusEKnLMutE5vZISmXW0zatfb3X1ulabqjPjV4NGOzmLOa66XzGKRW75qDrWSFmdk/CtaBPtuNJ3Bc10xNo4VL+hyUHs/XLWFH9McKXJxxQALyDwKwQKOZbZ5VSjg4XogsnFX9/l+zuJxTyxFMVlc9KioLEmKxfHDq2u1ysR5VSluvmZFxD8HbE6NlXbpU1BLrdbaQrwQbtJUtFkPRcSlEqy9/XSkfyO+kG7LS+1EplA4D0EcjlmfWtIV7tGURVFWoIoxR/d+bhQHb2Ggvc5fJHiQONIyzWc1aGrul1GmeMXD0PLu37ZEtvXdyq0inypQzgNReSaSDfEpH3tozRZVvp66mt1TqoDQiAAAh0EvBxHWdWZ1vjMpFWz0dZplqTf3zNHdgazLDm55RjjqK2nWnLmvnLoCugA85rJDjkOanxUvYzqVjT5aRbKB2iyx36Aw9doIxcIfBcBK8dxktF8bv2F3+zstsM80v0ffN1xLpwqT8mbLNWsCLGNjcidBEk3+hz7oDSNSSnQZZTM/xLS9lo8dX9cqcOvSIiqa3nGCiTJriZHu+7AEu8COshhd8kwBIEvJBDlWBdro9xD0Wwq21llpIhhireBzGNIDNuK2dJJinGTl6NSDOuULYCrUhQrFQyiVlkN51GpgGbTDkiQ5hW1Lz2LYXbjTGm2NyYKbr25G8l7S2P7k1ryUl2QCQQ+moDIcZhSJCMkcGtywqbGINhztGoA/3JHeig3zaWdVCnH5CZ2Pis/KmOU++jCmnqaxpFX37XFpNxuF+7MS7ffUbSLfE8vVRtYKVrsDlVjWhiH306zUyCXH9fNj9peRqWK3VG9be52CEMQ+FECD7oLhGdxEMl9csyrU1Jhp6nsU+57DrrDztm41HqTNVjnK1tW9qA1Kvm+vzhjJvNSpzzS5zv6SBqwWWZo56ZdX/XimpeunyhvWd5I7itjxarRrSs5kAQCIFAjQKtjWlbFFexuOZasLDANqTTPrrA/4Wl1bNaFF8L0FAx6Pib9qRV9BvHnOEnV/24hvBZp3YlLOhfVqpVbdh13yvFhCrYhtWlJfMyFbtQ8v/TWu/LSAOriBCMQAIGSQNw71qR9cvxUwbSaqq70M16cWpXrZaIncPbcJkJP1wjyLLJXW0Wvx+WqIbr4t0e90c9Z8S8UH4/9QzsCkVBqFYdC6/oMjkgh3XlLMiskL6BdjutG6pAbGe5AlHA8m9czIhYEQKCDQFWO6UKJ5h+vJovp15DjuHqrS4Ku3nTTs/ym3dGE5q1wXKdcgDOHB9wG4kQqPxvUig8ZaklZ7bYOL7hJmntU9qhFiSvbI1vVRjoIgECNQF2Oc1HJj0slyeXYzNrafiZVJXzPDb5UmWmlPFRPB7riNLvP8Q6I6m5DjxzXmCAOBEAABC4gUJXjUm1TzRoaZ+SYgx0rJ5NF3dPVEPzNP9d/OlY5ltrFUhrf1PWSjbW2aLH4BAEQAIHrCRRyzI9Vq2xExqryvc2lgX05Xe/L8eJWcHS+J7BsPpWzUdU9hcAWBEAABN5EoJDjN5WLYkAABEAABBwByLHDgQMQAAEQuIoA5Pgq8igXBEAABBwByLHDgQMQAAEQuIoA5Pgq8igXBEAABBwByLHDgQMQAAEQuIoA5Pgq8igXBEAABBwByLHDgQMQAAEQuIoA5Pgq8igXBEAABBwByLHDgQMQAAEQuIoA5Pgq8igXBEAABBwByLHDgQMQAAEQuIoA5Pgq8igXBEAABBwByLHDgQMQAAEQuIoA5Pgq8igXBEAABByBV+VYnv5efbZ7fP9c9RnyxWudXHXec0BvHknvFxrqL47i15UcaCZNW+EWDG5ct/f0DkoBgV8l8JIcpzdx1MRV5Ti+vYMDQZurAv5W+LHy/H4RPWUUb3c61kxaGH22KESDG9btrZ2EwkDgFwnslOP4KlKRsaqsiBxnr0kOQlPN8E7ulXqoBtoaH2tGC+1pTOtx87Y/2/ZjC+301lk3W0+EQQAETiGwS4513RvXblV1rclxRRv2N+eAtz5L3Vy1Q9Uej0fS42PNnnu43bNu+zsLOUAABPYS2CXHz2UawnuhRcScdmjRtPlJ+7F6rC8RfTQWhcZuNRhFzblezZInlrXmGHpxNS331fGxZtL+TW7HFtrprbNuOUccgwAInEBgnxynCpTTPaUVITH+oxo/n39fHYuiq+o+yaWosCTo2eVYM4ejze3YQju9ddbNmeEABEDgHALvkOOD1PjvAHItZM1icXYp7sBo9pO+HTziIt8dtM18tfNMMTVPuFPdYiURAAEQOJHAG+RYhCbuBJzYmC3XXvJY8MKC2KW4A1lA/8HMV8r7Nmk+4V51M9VEEARA4DQC58sxK0valz2tJR2OreRxWHcn2svev5v5etkquBSb8PdCO725GngIPglHIAAC5xM4XY5FGO6wNtb9BKqLF7ywhxw3t+UMcpSZ60Srky4hXH5xVKGdTXBVaNfNmeEABEDgHAJny/Gt1Diu/3gL2Pyil7SQKasuHWPmOk5dLy6WDjTlmEI7vblaaJ6ybs4MByAAAucQOFmOZYbHZec5bdjhNeycmIvaOHNcSwZXx5rZ+q1I3rGFdnrrrJs1QxgEQOAcAifLsYhC3KL9Wxv+fqGbrkEf9rLoJSiXXS3racTE/cHMNHtFjsP6+J51M01AEARA4BwCe+R4mfgGD3kWhT6DQp9MMa48vsKI2h9aEdd7f3MXlJbqP6QnBFl95joeaNbP7cBC4/YHd1Szpf11+0PPISsIgEAPgX1ybB67EOQ4ftRWwEFdakk9dcttjlgds883P9HNiGzEFQM5nDvXLe8QHIMACBxJYI8cH1kufIEACIAACDgCkGOHAwcgAAIgcBUByPFV5FEuCIAACDgCkGOHAwcgAAIgcBUByPFV5FEuCIAACDgCkGOHAwcgAAIgcBUByPFV5FEuCIAACDgCkGOHAwcgAAIgcBUByPFV5FEuCIAACDgCkGOHAwcgAAIgcBUByPFV5FEuCIAACDgCkGOHAwcgAAIgcBUByPFV5FEuCIAACDgCkGOHAwcgAAIgcBUByPFV5FEuCIAACDgCkGOHAwcgAAIgcBUByPFV5FEuCIAACDgCkGOHAwcgAAIgcBWB0+R4menNevoOomEY5/u8L/7NL0CSvr2k0FD0RB2RvwbKDLnOupkcCIIACBxO4Aw5psmtOvxIkrymB4e3q+3QvLmu+ULPzvd+3txMGMT2tuQ4Gqy/y7VNFCkgAAKHEDhFjmkxNoxTWg8v4S3QLUU4pCldToL22IqoHNkXVH+B2fPJX1DiebFxNuxsaRdcGIEACPyFwBlyTIvGYmdCBNnK4O5qH/Am6UotVI0fj6THX2D2DGdA2qWQbyhV9p0t3d1XyAACILCbwElyXNZDVK8qCaVxNSbqS5LNqt1KZFkJjhnGcaRVpDr+AjPZRwlfUcr2KKMypQpEzfEJAiBwIoG3ybGIqQreSy36++q4qARHjHNYSurJ4gvMHOBSdDW5s6Vqjk8QAIETCbxJjkUQGtuXJzbPu85lScX4+XQp7uD5FK3mE4lLcQc3M1tvd0ztbEK0RwAEQOBEAm+RY1mDXS3GmeiKyoYFsdMld/CZZn7E+AaZNJ/A3VQDYnIgCAIgcBqB8+VYr3r70z7FMe236sNh3Z1or44/1Mzzsu12KTZhpaUuDw5AAAROInCyHCctLi61OKlBq27jVqnXnrAfEZfvX2DmMFjVdQlhz3yc5XwUz045EJ8JRyAAAqcQOFOOVYvNLD+lDf1OVZf4LjW7XI8CzL6+wMwx0faUp0RN2QDivOEABEDgHAKnybEI3Oqtuee0aNWr1ipd1MbmXo11bWivffs4M4tBRbeU47A83myp9YYwCIDAOQTOkWNVvWPXxX+/0E1/zXsMZmmstwyaqLCX/NFmZrysyHFvS403BEEABM4hcIYcqxjLDWGD/7Oit69J0e3rLqhA0Sa+d/ibn1mx0BOc9I9by7fnScw4mYVyJ5B9nQVrEACB3QROluOgA+bjD1p6xOqYAXU+wOyjzYzIGvqqy1aO6RQ1m6fvPe71+L3dQxoZQOBTCZwhx5/KAvUGARAAgQsJQI4vhI+iQQAEQCARgBwnFgiBAAiAwIUEIMcXwkfRIAACIJAIQI4TC4RAAARA4EICkOML4aNoEAABEEgEIMeJBUIgAAIgcCEByPGF8FE0CIAACCQCkOPEAiEQAAEQuJAA5PhC+CgaBEAABBIByHFigRAIgAAIXEgAcnwhfBQNAiAAAokA5DixQAgEQAAELiQAOb4QPooGARAAgUQAcpxYIAQCIAACFxKAHF8IH0WDAAiAQCIAOU4sEAIBEACBCwlAji+Ej6JBAARAIBGAHCcWCIEACIDAhQQgxxfCR9EgAAIgkAhAjhMLhEAABEDgQgKQ4wvho2gQAAEQSAQgx4kFQiAAAiBwIQHI8YXwUTQIgAAIJAKQ48QCIRAAARC4kADk+EL4KBoEQAAEEgHIcWKBEAiAAAhcSAByfCF8FA0CIAACiQDkOLFACARAAAQuJAA5vhA+igYBEACBRABynFggBAIgAAIXEoAcXwgfRYMACIBAIgA5TiwQAgEQAIELCUCOL4SPokEABEAgEYAcJxYIgQAIgMCFBCDHF8JH0SAAAiCQCECOEwuEQAAEQOBCApDjC+GjaBAAARBIBCDHiQVCIAACIHAhAcjxhfBRNAiAAAgkApDjxAIhEAABELiQAOT4QvgoGgRAAAQSAchxYoEQCIAACFxIAHJ8IXwUDQIgAAKJAOQ4sUAIBEAABC4kADm+ED6KBgEQAIFEAHKcWCAEAiAAAhcSgBxfCB9FgwAIgEAi0JbjZZ6XJRn+IXScp6ISC/kuYp/P5zIfVv2ae8SBAAiAwNEEmnK8TMPjMUxVratUYlnmaRqHx+PxGGeXPo+VSGfx+gH7zspjb82E18tCThAAARA4lUBLjnvVeAkaTJL7eAzjOLk1NbshWZ/TX1pzz6Tfw2jXtyLe4q3y350fgvPMbJiWegLZ1aT7VL5wDgIgAAKdBBpyLILWI17zNE3zvMy0mPb2C6ttJpaZJqpcR0mm3Ye1v7Ra56ykvVw0BfSPJF2OWdwHOkOEv04qZ5tJs925xRe5zNM48HcNAjb4U5Y3venRQt0fW/AY6Dx906qiWiBwEwIkxxUJJHH1a9pSI9Mql3x4OQ5SPIxutyOoYzYtgyR7Ld/As1hXKsycR7xFZ2wXjza8vic5tLe1FeTOYlbQHMr3VPXFUr6gCS+2HNlA4C8ESI5Zsiqr2I0oJ3KsMSFGZuMwzrzE04VvppO+0svOpROtHlP5yzSo8FPZQ0rh88Rt1pa85k1U66tj5uQWk3Luacm3B3mPI2qDo65NsD1zj6qiFiBwHwK1zQoRhK7FWFxY8xaybhHH5W9YJg0j/8jnJmgFQXRWrsRdjFmW959JGkIgGypOwCs1OyQq1XWQRW9djvnrSl6g5G1myM2z43lcQ88ns52nw6yAjkM5G7/ago4CYAICH0+gIsc89TvnTZKYtOhz12Po91Zdva4BqzozfjVolJWzmOOq+xWjWOSWj6rjnZGyiCfh261NuzO4qoVWNjRZfOe/qToHBxz8rQUHVAAuQOD2BAo5lmmzV51kwptc5rcoUoF5GvLfo1QFRGRNVmbGDrfPCVFOVaqbn3kBoWfeuDo2Y2G3NhV8jbPtoN0kqWiynjKJXSV52/+mhfzc+knbLZtNggEIHE8gl2Oe9w3papceVVEENKhN3ADl40Jb9RoK3ufwRYoDjSMt13BWh67qdhlljs893CnHYu6+deyvH1/qEM5WsWeSmw3JToY7QrSPn36MbPXhDocwBYGvJuDlOMpqc5EpCZm0ajaae1mSfjHPHNqpyWLj5JZjjKO2nmrJmfvKoSvg2C6la6/rf/7CklTqLjkObTQ8kqPdIaO6FU1+moXyAetk3zsHONzdXGQAgU8iYOU4zh6aqK2/8Jtd/LVOrsyQH+vGmV0Y5VPdSd7kthFjkl8jF670sBZiUtOjvLwq+i6jas6+SGlk5RRQnpuCQ8ViKdbL0mu3HY666Y7YqLpVt0myq8k7ygmmS7xZ6CCH+6uAHCDwAQSiHAdNGUe5h6JZdbazykgRwxRvA5nHkBj2C7M1kRTjZiVHpRgWT1sAV6UoVirIxjUhLOJSAc2mvS9BKBSNzCuQtHhbt/O8q8dRcOtUNpJXXbcSpcnZnUItY8SDwE8SEDkOc4X0gQRuTSdyXQz2HK2Tm3+5I0GUm+bSJXNSTubeZ+VHZYxyH11YU0/TOMqlcpXZLLfbhTvz0u13FO0ib9W7VQ5ZDVWLM1qZ1e5DWhjLzXL5b6vsKq6bD7+PrqfNu1uDDCDwTQQetDfA0zNM+31yzKtTUmGnqexTbv+QSSgCz8al1puswbpY2vKNwiIiKvm+EzhjLlzVSJ/voiNpZ15fUxlBtX5iNOZdwbjmpesnyluWN5K7ilgzavT+WhakgcBvEaDVMa2X4gqWZk06KmF4jZvHYMzRDanUdZ5cR1W4tFkXXgjTUzDo+Zj0Z815Roe7/CRV/7uF8FqkdUdhqZv9ZTG3OON4XY6P1+INqU1L4mMudKPm+U0qvStvbWSdARo+QeCTCMS9Y630Pjl+qmBaTVVX+hmvOq3K9TLREzh7bhOhp2sEeRY9q62i1+NyOVDlq+yCaO2P+nTXX4RaxusxzCUYsUr06KD8r0pws4bBJSmkO71JRmXpBXTTadtAHXIjzZVuq6f5tjukgMCvEKjKMT0os/knDxfKp3VDjuOyrD7XdVmmu5nlV+iefpDpnytt2EApo53L962OnUjlJw1TSyPHuVX+zDzXkpWDC26S5o6X7SVR5cr2yEqNkQQCv0igLselDvgYox4BWi7HZjrWNiopV/gCG3ypMss2ce1kMIQ/s8iKtzZUdxu4TmVVf7Gb0WYQAIH7E6jK8ZqENTTOyDEHO5ZEJotyoqsh3J1c9iygciy1i6U0voLrQz/X2qLF4hMEQAAEridQyDE/Vi3firD15HubSwP7crrel+PFrWDrvzu8bD6Vs1HV7hJgCAIgAALvI1DI8fuKRkkgAAIgAAKJAOQ4sUAIBEAABC4kADm+ED6KBgEQAIFEAHKcWCAEAiAAAhcSgBxfCB9FgwAIgEAiADlOLBACARAAgQsJQI4vhI+iQQAEQCARgBwnFgiBAAiAwIUEIMcXwkfRIAACIJAIQI4TC4RAAARA4EICkOML4aNoEAABEEgEIMeJBUIgAAIgcCEByPGF8FE0CIAACCQCl8rx6pPW7bM1Uzg8XVPfv2Q+U5sQAgEQAIEPJHC9HA9rrx4pHkM/zf/xy66TQGtonBsJZPDaS40+sD9RZRAAgY8l8Kocy9PfV57tbl4Hwi/4CG8cdaB4dVxRyg3n/Ejmeeb3KtGrRuRvWZ7y4tNMwunFTyv1dBXCwREE6MUu6b1MQ/29XPw2mAPNpOIbI0dbt2l2bBO0WHyCwDqBl+RYRjOpbHwBtS3FvGeJXr+py9fSuiHH4r4i07aQ8Cq8TSteMtfr6d3h6BACcWzwm1e174uXZx1rJjWPPte7e9MsGhzShEOowslvENgpx7zm1TnWlOOJFqT2XZWN97onOTYzIHnPQtkk4yyFGpNLZ1g3+43OfX8rQz/aHtCutV11rBkttKcxnfb9ADAQusyOrpspH0EQWCewS45ZPlkkw+va7bRz5ZQvkJe8PkMmx8M0m5/mbHBmgfdL8UJ4qQI8l+zEx+L4+Xzf27IrnaxqbPfvjzUzPxmsDksplYbvmtnBdXOzAgcgsE5glxyT2oVVr8wyr66rJdUy8NBn8eTUtrdKMuUtM7Ah5Nj1RJQhx8WZHHRQ9rF03DiOpIJa/rFmchLuGZY9o/fwuh2EFm5+gsA+OU5IymGb0qohEQWdkWKSyXG2OZEfOvFlNY4/481zWI5ztF1Fcz19qdXqfXPk21bHRR9rB0uCduCxZq7nOodl2+zEurmK4gAEKgTeJMcy/vPlrM7WsMnQv1kR3BnBDopLHp34sqWLqUBA1CEEcpHLuld7/1gzX/Pct0+NR02zPOFvTYjlIQACXQREjpdpHOp/o11qGo/5uDVJZZAHdWVvgeJlycTudPVUOsiSM390KIob7MKlb/ShvypSuNzQLktCTJ1AzwjxY4I7KXSpS3EHsvH7BzNfXe/bp5mjpplP+GsTTIkIgkAHAZVj87u0WXOqWpaO/Lgt01OMfFVWwUzxT/qNSQsQd67k4kDVOtpqRJJjnj9FRo3AItnR33UQoSvM+Km9EL7iVM+vbrTYAw5HDzZFfpXd9uZb4Tz4JHvUNLMJHD6wbrYCCINAjcDJmxVJi5eydB7vQSMXs6LNFrUxRV3M4zDRslenSpLjsowQwzoNOW7yOSZBzobjLFKq3RPOu3rmlbMwn5694GmC5uv05qpu5dQl+IO2WWehnWa+VByBwAaBM+VYtVjnV14VHtNGI5d5ToqbZu9zqewy0IRSv+THuMmLoWMyUfNaOuKOIKAqRztErkeienEpx5q5iqtrHUcuMR20zTTlmCakEhECgQ4Cp8mxzMBVEfQaKRMhyGpKctGpQRSt+krG63LMTtZNkmuEXiagnZ71h0Qn/sea2drKaNGBYVNceMXsvLq5GuAABCoEzpFjHdOr84KNdI7KBNEjt5rNkqQRFKneydHKA4RCklpXIHx51NsudNPt44e9J1rvyIx9q3fr0J2bc0T/B7PoQ8vf7OoVOQ571ifUzVQTQRCoEtgjx+7X9fBTTrwew1yCoWIs9z9FCwnEGchTIhxJjphUbC5wuptkMqHi70kkx/pkobjXHALLYouqUvjqyNgdhu95DTYdE25+o06ywstlH2jWOSw7zdLJguudHrnyahPOQw3PX0dgnxy3rr/wTxOK8z+pZQqpJvB8ZIUNM1MTGDG5cPIrPpMNZUpPc1u/iC0V9XXd19WgN66OuT7HPg5t01sYP2mI2VAaRJ1mQnSz0F1mXb0EIxB47pHjI3GxvAY1HuO+Az3jhf9oUZJmEhecctAhy3HjmmipZ1wsT3SHbubsyKbAFwiAAAgcQeAqOablR1rrxpbIIpiWN4PZ/QjJ5soLEuTK9RbRDwWSL4ixA4MDEACBWxK4So5vCQOVAgEQAIHrCECOr2OPkkEABEDAEIAcGxgIggAIgMB1BCDH17FHySAAAiBgCECODQwEQQAEQOA6ApDj69ijZBAAARAwBCDHBgaCIAACIHAdAcjxdexRMgiAAAgYApBjAwNBEAABELiOAOT4OvYoGQRAAAQMAcixgYEgCIAACFxHAHJ8HXuUDAIgAAKGAOTYwEAQBEAABK4jADm+jj1KBgEQAAFD4J5yvCz8tOJpGkd9pcQwxvea8sM1ycT9mUYhCAIgAAKfR+BiOdbnzYc3ONn3OITwMAzjOLnXfZgHGZsMK2/Ly96k+Xm9hBqDAAj8AIFX5VhedbPyjg0SWvOiMbe4TVzDG3NIcvlvmvgFd7zsTVZZSN/zMdIrQ0iqQ57nEt4lEpzJR+XFIpk/HO4isNn14u3NZme8TunYJuyCDOOfJPCSHAcRbb3yiGZGXLYmSa69k4M9rYj6Wp9w3sobRbI8tJZ+sYTMEw71Vc2bb7vaGCFK8iiz6Ofx0M0tfqFMelE1l9hpJrWLxuuDp9NMW4xPEFghsFOOec0bpbYhczxCadm6aMH61vZiZIvp6jvv1Ef+yVkLNS7Et26WO8PxJoGurn8+LzDjLvbn3BBFLxiPf51mRzchlo8ACGwR2CXHadM2rEEKedXiyvfYSd48A0+RPFKdrH8Wwkvm7M/OQX5j3msFrBf/QalHvEm6s+uvMKuMLFVj+6NBp5l5xeLqIO9s6QcNE1T1egK75JjULqx6ZcDv0Ll6hjRv0pK7EbJXVoQXk5bFsz/IsRtXUTgcF2fScdDZ9e83KwcWx9CvETSStNGdZnJK7xnknS3tQAsTEAgE9slxwlaO7pRWDYko6ORQkzBzpnme3O9y4ec5+Zj4Nzu/o0Hu0s948cILjraWXEBeqpb+I59HrI4Nqs6uf5dZMbA4Il5no6fsTjPTTt0oVw8uyR50ttRmQRgEagTeJMcyYsu9Zo6X8V4oqVbX2Lgot4oOiktOnPhyZhejPvD5IgHpy6NE6q/e8vwqxpmYdpp5JHkmnxqPOs2iPQIg0CAgcs+KXVsAAB1kSURBVLzQRWnVv9EuNY2PXUNQVialGIcpE2Z2mkimnKfs5fnJn/mjQ1FcrtWgl77R2touussNbVcQDvoIdHb9m8x8MTwywmBxKe7AjSmf4hCsJFm7TjObBWEQqBFQOU5XprlFZ01C2U3/ENSr3qpLVHajKXzghVd+m6sseKmWaprkOOi0b0I80nJqHBDXTaCz699kZovxA8imhHEkI2bFzENwHnySPeo0s1kQBoEagZM3K5IWx4veXC1YP5NM2sUN2dUH+jwOEy17Szl2vu1BVo5NQngngXqnFE7eZSan4HGWwaJjIvzY68/Z/CWK69U0c804tgnONQ5AoELgTDlWLTZjP6tBPjX81oRMtHpuyqkpZJckPStCDslEzasGiOwmcKxI/dmbOqBtKTcMok5zyzrNHAXNU19KRNNOs2iPAAg0CJwmxzIZNkSQjTIllYzDKHf2ZYmxFTQFVF8pR8tOMvCEWTeJnhHYINCpPm8z05GWDQKJTp3eaWYbf2wTrGeEQaBG4Bw51qGvglkrWfciShuZBWZzuJKdbDQnlRYvbIo7xTEQktS64uzLo777Qjfd0noMSXqfehuoiQo7X5tmZjBAjg0MBN9AYI8cu+svgtrFyzHMJRgqxiSoxZ+ZIDzac5V0D7x4DOZOa0cjSnaoB+0dLu5q5XiwLGxsCnaevv4gdscfCHR2/SVmel6XkfDXZ1Yc24SvH1xo4KEE9slx6/oLv5KN8z8uUE0gaYIoajqmJY0UMLC2q+IOtafBUWLlNpAqG3aUy37V8jsjD1gda1+YjkzBhPYSM+m0o57odmwTvnNAoVVnEdgjx8fWIYnkYh47E25P1aKiQtNCmx5KpL+qUO4kA2puP+NieaKbZddtbT6EQQAEQOASApfJMS/ZRCRlNZ0JsaUR5dqK6hKl2ZqasFmk23zGAkEQAAEQuA+By+SYdvyioMbAfcCgJiAAAiDwXgJXyvF7W4rSQAAEQODWBCDHt+4eVA4EQOB3CECOf6ev0VIQAIFbE4Ac37p7UDkQAIHfIQA5/p2+RktBAARuTQByfOvuQeVAAAR+hwDk+Hf6Gi0FARC4NQHI8a27B5UDARD4HQKQ49/pa7QUBEDg1gQgx7fuHlQOBEDgdwhAjn+nr9FSEACBWxOAHN+6e1A5EACB3yFwYznmp8nrAzV/p0fQUhAAgR8lcLUc83M2zSPoUzek5yGnOA0tlT9NwycIgAAIfCSBq+XYvzvaImzLsXmQcXolxdrb8rKXWtpSEAYBEACBmxB4VY5ZLNfescGPjI8vc6q+YEkRsK9ihdyWY33PB73KKb2gaVmeyzSWfwNZTdj0UNp//tzseinhzWadL2fqrFunt06zPyOHgx8h8JIcy0xrvvLIvFGJ3qkUV7BOFO17RqdpmsKbRpNstuU4dA0bFCpe9ButpV3JhQUi+glsdL06erNZLI5flqsDzr5aWitm33PaGhWd3jrNTMkIgsA6gZ1yHF+TJEO+PqB5nLp3Lel71pO9Gcs6e+Qz6qt4aS9rOT1aaysL8a2bqTk+uwl0df3zeYFZGEtpcD2fIYp2sMxfV906vXWamdIRBIEtArvkOG3ahten2xngSirftiR5mxnCDDLpPN7NsfP/lD3nIpkzuTlY6HPu5/uPD3iT9LOz668wq4ysoJUP96NBX906vXWaff/gQguPJLBLjmnREVa9MuALOWxXbSMDJzt3IUNr15nmg7PnojkT5Nh1Q5Qhx8WZdBx0dv37zcqBJWNpHOkN4nZ93FO3Tm+dZh1cYQICicA+OU75yvGY0qohEYWGIog3SdSFtcSFTZFxTpvK7J7VeNQd53kOuQqRZi+NUqv1/MLII1bHBktn17/LrBhYHDHOYUFfnrLj9nEtqdNbp5mhhiAIbBN4kxwHba1NgHCpW1jGhLm0pM0L/WHQ5g3uzK5zUFzK7sSXLV3MNhNYrBJ4l866SjQLzRPCAFrV3LC1bEdUKKzTW6eZawEOQGCTgMjxMo1D/W9s/JaWD8jVgmQtUdlbiJNGrtIQp2ElzAdhxkhC3J3I/CUNDnnCVRr0MZmL4XTdvVpXJG4RkM6oaJnP+CYzXwyPDDdoqvX0mUy9fULTW6eZcYwgCHQQUDlOl6OZJWfzUjb96bo61rNS5atytmgNNjKsbYlpV4LTUgFxkfzPvySx9KeJSY55/lh3LoxFctY1rx16LWr6eJOZLcYPGZuS1bKZZBNWvHWaZaXiEAQ2CJy8WZG0ONv7pSui6DaOx2OcSF7HWS6GS5LpZwM3Yx55sT6Pw0TL3lKOm41lnU6+m3ZI2CZgtWjF+l1mcgoeZ9mB0DERLr1J52xX03bdOr11mrlCcQACWwTOlGPVYjNFtDoyHx4DLYY5zFIpsUE1+aCSVVxQqibS3NiQWjJRc60DPl8jIL20SfNdZloOf2eywyBKZtlMzVOsEeKu8oY3dbBhVpaMGBBYIXCaHMtkaIog3c8ctqV5aOs8mschTHSObk56StXEbTl2RazQQFIHAYYZ4TczvM1MR1p2Tl5R4yi6pRybC6x1SHILc28vFNokhQQQCATOkWMdrCqYq7gbWsnRTQeUqolUWrywye0W80FIUuvVunxlonxLadwyvL/Fb9NZW7W1QiWNvmrFHHobqImKafH34/qI6PTWaWZLRRgENgjskWN3/UWQvXg9hq5146YdG8TkGCgnCA/sRnR9xsQJlbSX9g7tYzDMxRXL0ihhA823JOu5cWtDZ629nV1/iZkfDeF+URoZVp/px2dz9dDK6NWfqXX86hjz3joLXWOKNBDICeyT49b1F+YyBy/HOpbTZ0N3G9Grcpye5hZvA8mbx8esxk1P1SxfFXnA6jisBVM32lBCe4mZ9BX9MpyGZ+Vezs66dXrbZfZVowmNOZHAHjk+qRo8T16S48Y10VLPuFie6GbZJBkntQJuQQAEQOBvBD5Vjp/PZeuujvglHWL8tzGC3CAAAm8hcAM5ftKeb0Vb8a68t4wAFAICIHATAneQ45ugQDVAAARA4EoCkOMr6aNsEAABEIgEIMcRBQIgAAIgcCUByPGV9FE2CIAACEQCkOOIAgEQAAEQuJIA5PhK+igbBEAABCIByHFEgQAIgAAIXEkAcnwlfZQNAiAAApEA5DiiQAAEQAAEriQAOb6SPsoGARAAgUgAchxRIAACIAACVxKAHF9JH2WDAAiAQCRwYznGI4RiLyHw2wQ2n174bjyNp34dVA16Nm753iyOLaP7yvwQMblajvnR6OXDjvVlC43HFC+Vv75ugRUIfBoBflJsmAnmqbH2DQAhXJ1IPc0lt/lcs8VmPhqPKA9W63V01c7LZA/svUyp1dHX6/PF5Go5fsq7Ikv4xXvaE/l6d6+8LS97qWXyhBAI3JxAeJWLvmlBNGkulyM8KVSOV998QnpI7zKb09uDeRJmc5AdZnHKqkOOh8m8H23mN25nUeNQngK4AGljvg52DdSK5J+tSjcUvvnqoqvE5FU5lg5v9BZBot5Ob8upvCwnkax3bpugvueD+3PUbl8Weh1a+UeVWKlnqsbroSV7M9A4Vb5rve7+Zjk3u17q+wtmWb8P47H9Tu6zN9nUpUplReWYHyHOciivwomTRCWSJ8uQlimFW+m96C85DF55Uqk3/kzyWRHOSlRzfhd14fFU8VCdF+w21TvYNAuLb9i8h5i8JMfSV9lASXDCKJJvJUmSvSjyZk7oz2maoqhGN22CFnEBPubXQL13NfXPn12N/XMpt3Gw0fVaz18wi218PJrvS1Ue+z91XGUrCVYl933fHhSzwYoYLVbSu7bl26dG5JMkn3ymrbY8Ezb1XK+jyePXSfUygt+WT0n+FjF57pRjXvMmoKYPzICTvrRLRH3PerKvs5evUeJKvOiXNOM+BDldh1NMzseVH3XR7MAA1cMti7SxRd0OLPQCV11dH74VbY2QLzALAziN6PQG6kM63g0rUlL5xlWMbx0JrFdZyVzHWEN/5CdG5tY5o3f1aCnhk11lhSUTzp3tTMgq3y6np3yzItTP2NAWB1dfkvI1vk9OYy6FYhWztqe6rjYooxJ6ODotvPw9YpccM2dubFgOxK7OK1K+a0nyNjOEppr0LYIFK6oDZ3K8qma0Y+0kNKv/Mq3urmTWxSHXwn8ZKGzeGBG+8jose4vv7PqfMZOGmuGa1DhtAeyF3LC3M0GG89beMTuy2cSzi+EDHRPiNqgut02bJgdqF2ro8ha15iw+RyXKVYZ8lE4pF9WjMJUiNbmowLvFpFKBF6N2yTFxGeQ0zYT2KM5GhpJ4yNDSxXpfcCY3Eup28gPiwy9rE0Ipu5mcDOuhUPX2yr6e7aRYIsB/jsvewjq7/kfMyh7mmGEcGfafSGc9I92nHmNnhj71H2rFe8m8IA2/pQz8F4xFabnCmsHMEi5hmMKPhfwbnFrFmrm8MVYD7MHnqUQJMDNHSqdSK/kd0Pujokp7rUDhWmxpT6m+uy8FbX8HqNtpsQd87pPjVCC3eI8cc4fQL7q1P/EmibqwljgZQSVFBmO+vYRcBS/2UinVfvUuvT91546KryTX2qBxiwyfPWw060mfR6yOTdU6u/6rzYrRzBHx93hdWhpqrwXDJKgM4A1/ISMNX/ob6Y9/oIl7BGyhjuO8Sfmi0KuNKdHlNfESFDgx/1rAgiqdcq1GqnGlDk05liZIjveISUHg5Yg3yXHoZUs/VVm6T/hxmE9hnIXO0qImTt6CO9PRob8ou+s6tnQxqVz6VZV/uiY/YdVvUuXikFDGpibPIw17rdHQKtL6/9CwwK93pWnSN5vlbQujVpdsbqwaJDuD+iOEDmm9osjsrpZBFaBnDNBGvX1V+yy70G5mUAOkR+eJtJt+WWfhjrNJmqzju/i0w6FygRPPjHBW4FND+GcvQXIVYlSpVkR2Hie3mCvtKRN3Rah16JYlbV7ohPfVjdM2NOslMdnZuXVzkeOFLkqr/o3m24T1IL1jW2VTs7Agqg/S2M2kvOGrEX9r4INQgBqFw8wfHQrBkMcMUt7uD6toM0BtBc1CuaLJdqG8psmhTqFD1yxt2Z8Yls7Y7PpvNvNt4653I3UTzna/SxGPYaQFg4xuP8QKRZSIyjqAXRXxLpZc+0pL+SkXzZKVP6urlcZx1ZOzikWUzHzyqgBZypzfNUA8SqXlki9twHvFpNqy/kiV4/wEoZ3t+yj5lca2UpMd/2jGzmqdEfFpcY+0t8NpqYB4XvvnXxZtYc4FUUeJd+6y6CsP1GoQa6r+g6cYL4Ek2atO6CROp7ZmgzO3H3nY2fXfbGbb5sepTflL74r40N0aNNrXBx3ZpolSllp34WJzFzKR1ostC2rHsL8Nd4Iun7SmYWIQveR1LvNfJiZtEBspJ29W6GZAAhPro/o3TjLg5KtZhC3j0HQGfxHhxfo8DhNt0Goi9UvKFwuwge3hEAW37mkj2ZYVzvObdfJ5PudIhr3Cb9b7q814PNGg41YaFpJgIpp8NhL0sQ1cQH1MqgcqMy9R6pFrWzhmY+fYudCeo+s35nmaRppvWtjq52qpjcrEi1tdhbgYVyuKkZoFGjb1ZmKyCmkt8Uw5Vi3Oh0rkKr+SpW5wtPmgklVaQ6maSP2yPmBrN4EmKtSXsqCt/vKqXV3dX05ebEgaovWzKV8Q7mzcV5tp4/iLmh17Ikg2RrY9aXy99IMCl0T+pMi2pmmKlG33mcOvd2YXgL7AR8c0JJO0VYvhmkvTtBj/GRpsS9Xi9MuiZKDtwOJPdhFdhXiepFrFaSPV4+JiaqgybxAmJ8YyNLY5H8lUE8lraE0sNAvEgrP4Aw5Pk2OqM/1pM7O68oXtcmVJIijX54QcHN3ILXw1cZugK8LUJK5561K7kWwcZUFpvNYvS/z0Q4bZ6tfUuO820+GdzV2JzqazkFiZDAlaGUpDV289S7ewBl2jc0KSufIXkuTCunexVG8ZrlJZ+tWNLsSwztimVNPijOQKCUB4/27kffDmyHEVYiepVsZn5WvDPcTE1PHl4DlyLJ2gPbxRubIbOANHNxWNUjWRSovXGMlJwP4PSWodarMhtWlJvHGhG1fE7cXoD+JZgRsUTkyWbykvrc1qteKOifBrFhz35WbSPLfi1Y7P1JjWDnoBT5HUxKcJXE7KxodZV1ZVS/Pn6+AY7xxbF1aCo7VbQdtYuZQhVTCl6RSiecCCQEaCbahdIeAqxG5srZLfECrNKaEeK9HNCUmZNJHK3C0mReVejdgjx+76iyB48XIMA5jZS3pMjoGy414mmGlu7ZsSrR8WuWLDFxzqSF9wZI3uAHKV5OtlJdWaqiXXxVzpFrvXGl8Tjt3hCeyqTGfX/46Zzvw4zHUwZlKZKFM36JxPsZuhcnbI2dV05pZn74Lu75C7ns1TlNddUBa7oeEqzcPL1IYToxSHhYo1ytPUm68mxa7Wqp5YOpH68DcIvUhDS9RPzqQdGJ53p99Fsp2Vqpion79/7pPj1vUXflOC2ZvWuWDecX85oZlvTjVRVTpMO5sJR94kzQttg6Z2uZzW5YrPA1bH+YB1XZrQ/o6Z9CMpS+r46i8P2uF19dDU9icjzScNO4uRK65Ze8Pa3NZUhUkXG84F/4LH17XFLNTFziZVmKLNbmtCMpiL3zKjdPWomSv1wZMGVyqSQrnHkFrFFTSm5YrXzmm3x2/R+FK3POXWe4/3yPFe3532rxPUQVUtKC6W5RmDq7ZVB4gEgWMIyHqwqQarhbRmxxIfDclnW+98nqKQxhMn35vH28GqwUHT1ILl3WiiZEgbyCzHZgVkdq5FjnXZyz9apkKoeVXxTPa8huai/ZOH+MttxLPM8cGPcoaJJ6Ro8vfNiuTKht4lJp8qx3SBr+9xS4/DPARkrPnBWlgiAgTOIyAyVjwVrbPAhhxT7jTA871YypSrabW8+JU8TibayYgHLk8qTgU8faowzlN994/zqpHzSkInE5l3uqo2msGcK1rXqTRwcfSKCjSarAVb1q/sOCU/G6EbyHF2D2esMA+VDcmNxgiAwHcSoGlQ18c3t5dXiOV8lOgy3tWuy8jlePWggetDxOQOcvwqeeQDARAAgS8iADn+os5EU0AABD6ZAOT4k3sPdQcBEPgiApDjL+pMNAUEQOCTCUCOP7n3UHcQAIEvIgA5/qLORFNAAAQ+mQDk+JN7D3UHARD4IgKQ4y/qTDQFBEDgkwlAjj+591B3EACBLyIAOf6izkRTQAAEPpkA5PiTew91BwEQ+CICkOMv6kw0BQRA4JMJQI4/ufdQ998msPFgnPS0tAxT4zk7mVV2+L7HAGUF/9Ah5PiHOhtN/TQC/DD35qO6Nx4b2XyqZTNhFU9nLjZLj97sCcmTL+lR+fnfaoW+MBFy/IWdiiZ9DQF5xG/jjU+rciw5czUcJnlVWR7Px+Zhw5V1d02Oxcw9XZPN6NWn/X/T/J95eLOt2spb6+wrSL6mu0+TY//GotX31nwNTDSECfCSLk6qZtff2Ux6Mmhhc3XK7xjqfDnT62OjrcgrcqxJyxzeEhfXnSSXJMqLvGmVXqGkf6mOmj3FVN/oIVUzKq4PxfdR7EVsm4+A562QeZZXm8R3jiwLvfe1/KOXnTRd2Up/WPgMOU4vXaF36Jnh2h7XH0YN1W0SkFnHYmze5Fos7+5sJm2LNWxN+2hAgzyO8qKlTVI7EsLC1K1C9eWpleqp0LI9V1ONpM5RLGsLXq6WyxQqWjHO3LFhxYzia6bBsf1gs1g/m+LCVIi2ySV8+MEpcswn5NG8uVBfef6NBD98ABxbfZl0bqaEKPN2S52b9zR7PvmLXVzdu1omWp0tTRn+Fqq+PYjrUJlT1IAkacs06Mub+AtJSuGOoJepF3Wrea7orECwDu0iOiBKJCuhrPacxfsLC25nWDcrWvF5EWfIMZ0Lix7mzmwM7c/D9lE1PuBN0p3trXRympNplt3ZzGxihjWvEwIF0dkENT/nk9lWqyflSSUrIlhEpb6RnDXP7M0bSuf6uGQWnKTNEN0UkU/dRrFsKHPRIPbjCqmaWT+fGj5Jjksc0nMF6tIQMQcT4PlBE9CN6IMLYXdlH8uMHEd6+Xss/85m8rU6vG6+rKhSK1OqLVXzFz79lqn5pml8SZntLcCkjCZTHqwa1TxXDAWDH1fJrObElF5JprylRLChK6RuZ3x/avBtcsy9FGfkp+L6yHq/bXVc9DFHxF/HdaLd2cx1sKiNVtsmdTbBZtkZlhJ0GSt1kPpoXOPTVNf7aNhztBM73emlk5L5oy3Ix+CjRorzmblQjuqprqmt7HPYQsN3bPLo7Ep93gn3tuZvkuPQMw7qbZmgYq8RkE5OfZxPzJByZzPf8LymMTVPaLQ02v8pkNSI94TtZQb8A2J2TZlZSKdqrVSgaiQNXBNwk7Yqx/bKjfXNirLM4Jhq6MpgSxez0r6PStolx8s0DvW/sf2NSa99yc5wH0UJle3pei9SPM1rCnxnM9/RvqYmzSc0W2py/CFI7tM5zjriatST2IwrZnSzHezRNva2bZiqu1G9LDlUVptDh1JYsMvW6bqKLn+lsoQ+LbxTjuP1PFnPKsRK8+WrsrKtGCDqAwjwnMg6XQ5T14uNHPu5ZlPCJU/3NPM94aptk2zCSkttltfDSd9yH77oPNVe5FCmxRiWQaeysggvFlilIflgY7Mi559CTedWx0yK1NEjRHk3RK4CSHLM5aYcWcjVPDbqUwO75Hh/I5MWF5da7HeGHDcnIBNnnEVxdabFr0cacWczR9iqrksIl19sttRnevGIcCk676JLjjP5qh86UZNmuygql7utiM3rwMfBiu/ZS6tavf41xcxzvMhuHoeJrrXQllJpRWG++fUKeZsPOzpTjlWLlfCHoUF19xKQeTxM/KOPnUs8ceLsurOZa7JWtFxKaMpGS4O3cF/Ui3eIELz6FOJa1JO0ZN6uDZeU+SvOXGSl2bb/OLmufnkdcqvFKq5pSO1CavKlzSE/RRVcNc063Md/8NFpcszdYr58fDAjVL2XgHZ6NpMkOk2uO5vZpqrolnIclse01EzN0hWkj4o3vbw6GYiWipStXXBcT3KGuWRyYjUypeSN6F0d+9oKwYAoJbnoVFWK1uaQsUObzEKInaybFHnuHnGOHBNL+lO2d6fw3fV724VuUXnsOlDvyLQTR6bj45ZmZixINeuDuLMJ7I1+B5UJYSGYglaDUcXIjXPAdahWr3oNw8rqONhLPaRpriRK4EldxGZ1cEaZo9gQvZIu11uy1+aQcbxEUuDZ/yFJrVcBflDiGXLMXSLsyuswiv78IFifWdXYHW9BL1OQe3/tSQ63NXOXkAQBiKPYXUDU2QQdNFaMNK7rkzOOIuj+jmauQUWRTM2shG2GgyvJXowWHkdFrK8DHwUbGXcmQ0aA013t83rT3ny2/6z7zos8mM5472J5d6OT5bgcAd8G8O4dzMsaWpv5hdWZ1b7zo9o265ZLghvBTjz4soIxPTzo0Xx2HcHOtKiff6wQXcHrs3FSXidvol9YSqt2ZimxeEYmt7SI5dOEek8+xYdf/hYIWJCNDWXSC9hId9cuYktF5Q3+5OMz5PiTeaDuIHA4AfkpTzVrl/vwc3gpxeRlQ5LoEZrhRpG5LLSdmVPcaWjrIDQtrXd5eybExptXSM8zCCmHticzyOodF8sTbYeu22ZZP+IQcvwR3YRKfi4BXhTWHpvW1SR6dkW+KtaMHYpKuxvZmjrkbmdW912f1g3Jf+XbryyCSdL1yXLGs7nygk4wjcrGDMnXF4rx8wk5jj2NAAh8GIHKOzu0BcvSEvFowfsBevTy50odXvb5sxkhxz/b9Wg4CIDAvQhAju/VH6gNCIDAzxKAHP9s16PhIAAC9yIAOb5Xf6A2IAACP0sAcvyzXY+GgwAI3IsA5Phe/YHagAAI/CwByPHPdj0aDgIgcC8CkON79QdqAwIg8LMEIMc/2/VoOAiAwL0IQI7v1R+oDQiAwM8SgBz/bNej4SAAAvciADm+V3+gNiAAAj9LAHL8s12PhoMACNyLAOT4Xv2B2oAACPwsAcjxz3Y9Gg4CIHAvAv8DV+mDtSJgm4QAAAAASUVORK5CYII=;" vertex="1" parent="1">
                    <mxGeometry x="539.001826171875" y="732.9923076923076" width="474" height="334" as="geometry"/>
                </mxCell>
            </root>
        </mxGraphModel>
    </diagram>
</mxfile>